<svg width="89" height="17" viewBox="0 0 89 17" fill="none" xmlns="http://www.w3.org/2000/svg">
<g clip-path="url(#clip0_2_11337)">
<path d="M70.662 3.94141L64.5934 16.831H62.0703L64.346 12.0101L60.7676 3.94141H63.3566L65.6488 9.35434L68.1554 3.94141H70.662Z" fill="#1D1D1B"/>
<path d="M47.5258 8.50857C47.5 8.02341 47.3362 7.55663 47.0547 7.1659C46.7731 6.77517 46.3861 6.47762 45.9415 6.30999C45.497 6.14237 45.0142 6.11202 44.553 6.22271C44.0918 6.3334 43.6723 6.58026 43.3463 6.9328C43.0204 7.28535 42.8023 7.72812 42.7189 8.20642C42.6356 8.68471 42.6907 9.17758 42.8774 9.62411C43.0641 10.0706 43.3743 10.4513 43.7696 10.719C44.1649 10.9867 44.628 11.1297 45.1016 11.1305C45.4294 11.1239 45.7525 11.0506 46.0524 10.9149C46.3522 10.7791 46.6228 10.5836 46.8484 10.3396C47.0739 10.0957 47.25 9.80819 47.3662 9.49385C47.4825 9.17951 47.5368 8.84459 47.5258 8.50857ZM40.4678 16.814V3.9414H42.661V5.12549C42.998 4.69698 43.4254 4.35254 43.911 4.11813C44.3966 3.88372 44.9278 3.76545 45.4644 3.77225C46.6392 3.84436 47.7428 4.37387 48.5497 5.2526C49.3566 6.13132 49.806 7.29294 49.806 8.50011C49.806 9.70728 49.3566 10.8689 48.5497 11.7476C47.7428 12.6264 46.6392 13.1559 45.4644 13.228C44.9567 13.2395 44.4528 13.1364 43.9883 12.926C43.5238 12.7155 43.11 12.4028 42.7765 12.0101V16.814H40.4678Z" fill="#1D1D1B"/>
<path d="M57.6682 8.50836C57.6682 8.18182 57.6055 7.85848 57.4837 7.55679C57.3619 7.25511 57.1833 6.98099 56.9582 6.75009C56.7331 6.5192 56.4659 6.33604 56.1718 6.21108C55.8777 6.08611 55.5624 6.0218 55.2441 6.0218C54.9258 6.0218 54.6105 6.08611 54.3164 6.21108C54.0223 6.33604 53.7551 6.5192 53.53 6.75009C53.3049 6.98099 53.1263 7.25511 53.0045 7.55679C52.8827 7.85848 52.82 8.18182 52.82 8.50836C52.82 8.83491 52.8827 9.15825 53.0045 9.45993C53.1263 9.76162 53.3049 10.0357 53.53 10.2666C53.7551 10.4975 54.0223 10.6807 54.3164 10.8057C54.6105 10.9306 54.9258 10.9949 55.2441 10.9949C55.5624 10.9949 55.8777 10.9306 56.1718 10.8057C56.4659 10.6807 56.7331 10.4975 56.9582 10.2666C57.1833 10.0357 57.3619 9.76162 57.4837 9.45993C57.6055 9.15825 57.6682 8.83491 57.6682 8.50836ZM57.6682 13.0755V11.8914C57.3279 12.3191 56.8971 12.6617 56.4085 12.8932C55.92 13.1248 55.3864 13.2392 54.8483 13.2278C54.2608 13.2196 53.6809 13.0895 53.1436 12.8454C52.6064 12.6012 52.1229 12.248 51.7223 11.807C51.3217 11.366 51.0122 10.8465 50.8126 10.2795C50.613 9.71264 50.5273 9.11014 50.5608 8.50836C50.5342 7.90324 50.6262 7.29879 50.8312 6.73073C51.0363 6.16267 51.3502 5.64252 51.7545 5.201C52.1588 4.75948 52.6452 4.40556 53.1851 4.16012C53.725 3.91469 54.3074 3.78273 54.8978 3.77204C55.4259 3.76865 55.9482 3.88519 56.4271 4.11331C56.9061 4.34143 57.33 4.67546 57.6682 5.09145V3.9412H59.845V13.0755H57.6682Z" fill="#1D1D1B"/>
<path d="M36.5106 4.83792C36.7112 4.50851 36.991 4.2375 37.3231 4.05089C37.6552 3.86428 38.0284 3.76833 38.4071 3.77225C38.7365 3.76701 39.0631 3.83632 39.3635 3.97524V6.30956C38.8692 5.99968 38.2921 5.85761 37.7145 5.90359C37.342 5.98101 37.0103 6.19608 36.7822 6.50793C36.5542 6.81979 36.4458 7.20669 36.4777 7.59513V13.0081H34.3174V3.87374H36.5106V4.83792Z" fill="#1D1D1B"/>
<path d="M87.6809 3.43374L85.0919 1.89444L82.4534 0.355138C82.0571 0.120445 81.6076 -0.00305417 81.15 -0.00292959C80.6924 -0.00280502 80.2429 0.120936 79.8467 0.355845C79.4505 0.590754 79.1216 0.928548 78.8932 1.33524C78.6647 1.74192 78.5446 2.20316 78.5451 2.67255V3.02778C78.5472 3.12074 78.5725 3.2116 78.6187 3.29159C78.6649 3.37159 78.7305 3.43802 78.809 3.48449L80.0293 4.21185C80.107 4.2559 80.1945 4.27846 80.2832 4.27729C80.372 4.27612 80.4589 4.25127 80.5354 4.20518C80.612 4.1591 80.6755 4.09337 80.7198 4.01446C80.764 3.93555 80.7875 3.84617 80.7879 3.75514V2.92628C80.7865 2.83276 80.8096 2.74058 80.8547 2.65929C80.8998 2.578 80.9653 2.51057 81.0444 2.46397C81.1234 2.41738 81.2132 2.39334 81.3044 2.39432C81.3956 2.3953 81.4848 2.42128 81.5629 2.46957L83.9541 3.89046L86.3617 5.29444C86.4406 5.3401 86.5063 5.40646 86.552 5.48671C86.5976 5.56696 86.6217 5.65822 86.6217 5.75116C86.6217 5.84409 86.5976 5.93536 86.552 6.01561C86.5063 6.09586 86.4406 6.16221 86.3617 6.20787L83.9541 7.62877L81.5629 9.03275C81.4848 9.08103 81.3956 9.10701 81.3044 9.108C81.2132 9.10898 81.1234 9.08493 81.0444 9.03834C80.9653 8.99175 80.8998 8.92431 80.8547 8.84303C80.8096 8.76174 80.7865 8.66955 80.7879 8.57603V8.17006C80.7879 7.69875 80.6672 7.23571 80.4379 6.82731C80.2085 6.41892 79.8786 6.07951 79.4811 5.8431C79.0836 5.60669 78.6325 5.48157 78.173 5.48027C77.7136 5.47898 77.2618 5.60156 76.8631 5.83573L74.2411 7.39195L71.652 8.91434C71.255 9.15085 70.9254 9.49016 70.6963 9.89833C70.4672 10.3065 70.3467 10.7692 70.3467 11.2402C70.3467 11.7112 70.4672 12.1739 70.6963 12.5821C70.9254 12.9903 71.255 13.3296 71.652 13.5661L74.2411 15.0885L76.8631 16.6447C77.2618 16.8789 77.7136 17.0014 78.173 17.0001C78.6325 16.9989 79.0836 16.8737 79.4811 16.6373C79.8786 16.4009 80.2085 16.0615 80.4379 15.6531C80.6672 15.2447 80.7879 14.7817 80.7879 14.3104V13.9721C80.7912 13.878 80.7682 13.7849 80.7214 13.7039C80.6746 13.6229 80.6061 13.5575 80.524 13.5153L79.3037 12.788C79.226 12.7439 79.1385 12.7214 79.0498 12.7225C78.961 12.7237 78.8741 12.7486 78.7976 12.7946C78.721 12.8407 78.6575 12.9065 78.6132 12.9854C78.569 13.0643 78.5455 13.1537 78.5451 13.2447V14.0566C78.5495 14.1516 78.5287 14.246 78.4848 14.3297C78.441 14.4134 78.3757 14.4833 78.2961 14.532C78.2165 14.5806 78.1255 14.6062 78.0329 14.6059C77.9402 14.6056 77.8494 14.5794 77.7701 14.5303L75.3624 13.1094L73.0373 11.7054C72.9587 11.6574 72.8936 11.5893 72.8484 11.5078C72.8032 11.4262 72.7794 11.334 72.7794 11.2402C72.7794 11.1464 72.8032 11.0542 72.8484 10.9727C72.8936 10.8911 72.9587 10.823 73.0373 10.775L75.4284 9.37106L77.7701 7.89942C77.8494 7.85025 77.9402 7.82412 78.0329 7.82382C78.1255 7.82352 78.2165 7.84906 78.2961 7.8977C78.3757 7.94635 78.441 8.01627 78.4848 8.1C78.5287 8.18373 78.5495 8.27811 78.5451 8.37305V8.77902C78.5446 9.2484 78.6647 9.70964 78.8932 10.1163C79.1216 10.523 79.4505 10.8608 79.8467 11.0957C80.2429 11.3306 80.6924 11.4544 81.15 11.4545C81.6076 11.4546 82.0571 11.3311 82.4534 11.0964L85.0919 9.55713L87.6809 8.03474C88.078 7.79823 88.4076 7.45892 88.6367 7.05075C88.8657 6.64257 88.9863 6.17985 88.9863 5.70887C88.9863 5.23789 88.8657 4.77516 88.6367 4.36699C88.4076 3.95881 88.078 3.6195 87.6809 3.383" fill="#1D1D1B"/>
<path d="M9.13576 9.67563C8.84115 10.7829 8.16722 11.744 7.23762 12.3828C6.30802 13.0215 5.18506 13.295 4.07474 13.1532C2.96442 13.0113 1.94118 12.4636 1.19273 11.6105C0.444271 10.7573 0.0207804 9.65599 -5.88665e-05 8.50847C-0.00595532 7.34987 0.400903 6.22895 1.14404 5.35641C1.88717 4.48387 2.91541 3.91979 4.03548 3.7702C5.15554 3.62061 6.29031 3.89582 7.22648 4.54408C8.16265 5.19235 8.83575 6.16903 9.11927 7.29056H6.79409C6.59831 6.88224 6.29565 6.53784 5.91996 6.29587C5.54428 6.0539 5.11039 5.9239 4.6668 5.92041C3.99764 5.92041 3.35588 6.19308 2.88271 6.67843C2.40955 7.16379 2.14373 7.82207 2.14373 8.50847C2.14373 9.19486 2.40955 9.85315 2.88271 10.3385C3.35588 10.8239 3.99764 11.0965 4.6668 11.0965C5.12074 11.1021 5.56621 10.9703 5.94752 10.7176C6.32882 10.4649 6.62902 10.1024 6.81058 9.67563H9.13576Z" fill="#1D1D1B"/>
<path d="M12.4174 0.186096H10.1747V13.0756H12.4174V0.186096Z" fill="#1D1D1B"/>
<path d="M15.7978 9.11737C15.8235 9.71568 16.079 10.2792 16.5085 10.6849C16.938 11.0906 17.5065 11.3055 18.09 11.2825C18.5103 11.2946 18.9261 11.1912 19.2943 10.983C19.6625 10.7748 19.9698 10.4694 20.1843 10.0985H22.493C22.1304 11.1557 21.4166 12.0482 20.4766 12.6195C19.5366 13.1908 18.4306 13.4044 17.3524 13.2227C16.2743 13.0411 15.2929 12.4759 14.5805 11.6262C13.868 10.7766 13.4699 9.69671 13.4561 8.57608C13.4378 7.94679 13.5452 7.32033 13.7716 6.73517C13.998 6.15001 14.3387 5.61852 14.7727 5.17335C15.2067 4.72819 15.7248 4.37875 16.2953 4.1465C16.8657 3.91426 17.4765 3.80412 18.09 3.82284C18.6999 3.80609 19.3067 3.9181 19.8726 4.15193C20.4386 4.38576 20.9517 4.73642 21.38 5.18213C21.8084 5.62785 22.1428 6.15911 22.3626 6.74295C22.5825 7.32679 22.683 7.95074 22.6579 8.57608C22.6747 8.77304 22.6747 8.97115 22.6579 9.16812L15.7978 9.11737ZM20.2667 7.67956C20.1935 7.13872 19.9266 6.64518 19.5182 6.295C19.1097 5.94481 18.5889 5.76303 18.057 5.78503C17.5222 5.76582 16.999 5.94782 16.5859 6.29675C16.1729 6.64569 15.8984 7.1375 15.8143 7.67956H20.2667Z" fill="#1D1D1B"/>
<path d="M30.6556 13.0757V11.8916C30.3155 12.3151 29.887 12.655 29.4019 12.8863C28.9167 13.1175 28.3872 13.2343 27.8522 13.2279C27.2647 13.2197 26.6848 13.0897 26.1476 12.8455C25.6103 12.6013 25.1268 12.2481 24.7262 11.8071C24.3256 11.3662 24.0161 10.8466 23.8165 10.2797C23.6169 9.71276 23.5312 9.11027 23.5647 8.50849C23.5404 7.90253 23.6345 7.2977 23.8413 6.72956C24.0482 6.16143 24.3637 5.64144 24.7693 5.20017C25.1749 4.75891 25.6625 4.40527 26.2032 4.16004C26.744 3.91481 27.3271 3.78293 27.9182 3.77217C28.4443 3.76651 28.9648 3.88213 29.4415 4.11049C29.9182 4.33886 30.3387 4.67414 30.6721 5.09158V3.94133H32.8654V13.0757H30.6556ZM30.6556 8.50849C30.6331 8.02241 30.4719 7.55381 30.1922 7.16077C29.9125 6.76772 29.5265 6.46751 29.082 6.29733C28.6375 6.12716 28.1542 6.09449 27.6918 6.2034C27.2294 6.3123 26.8083 6.55798 26.4808 6.90998C26.1532 7.26199 25.9335 7.70486 25.849 8.1837C25.7644 8.66254 25.8187 9.15631 26.0051 9.60381C26.1915 10.0513 26.5018 10.4329 26.8975 10.7012C27.2933 10.9696 27.7571 11.1129 28.2315 11.1135C28.5598 11.1138 28.8848 11.0458 29.1867 10.9135C29.4886 10.7812 29.7611 10.5874 29.9878 10.3438C30.2145 10.1002 30.3905 9.81195 30.5053 9.49646C30.6201 9.18097 30.6713 8.84486 30.6556 8.50849Z" fill="#1D1D1B"/>
</g>
<defs>
<clipPath id="clip0_2_11337">
<rect width="89" height="17" fill="white"/>
</clipPath>
</defs>
</svg>
