<svg width="10" height="11" viewBox="0 0 10 11" fill="none" xmlns="http://www.w3.org/2000/svg">
<path d="M2.98238 1.09312C2.3276 1.27358 1.67726 1.46981 1.03194 1.68163C0.973015 1.70071 0.920634 1.73597 0.880766 1.78337C0.840898 1.83078 0.815145 1.88842 0.806441 1.94975C0.425566 4.80769 1.30557 6.89288 2.35538 8.2665C2.79986 8.85389 3.32985 9.37137 3.92769 9.80169C4.16557 9.96944 4.37594 10.0904 4.54163 10.1681C4.62413 10.2073 4.6915 10.2334 4.74307 10.2493C4.76562 10.2572 4.78887 10.2629 4.8125 10.2664C4.83586 10.2626 4.85886 10.2569 4.88125 10.2493C4.9335 10.2334 5.00088 10.2073 5.08338 10.1681C5.24838 10.0904 5.45944 9.96875 5.69732 9.80169C6.29515 9.37136 6.82514 8.85389 7.26963 8.2665C8.31944 6.89356 9.19944 4.80769 8.81857 1.94975C8.80994 1.8884 8.78421 1.83071 8.74434 1.78329C8.70446 1.73587 8.65203 1.70064 8.59307 1.68163C8.1455 1.53519 7.38994 1.29663 6.64263 1.09381C5.8795 0.886875 5.17757 0.733563 4.8125 0.733563C4.44813 0.733563 3.7455 0.886875 2.98238 1.09381V1.09312ZM2.7995 0.385C3.54544 0.182188 4.33813 0 4.8125 0C5.28688 0 6.07957 0.182188 6.8255 0.385C7.58863 0.59125 8.35794 0.835312 8.81032 0.983125C8.99945 1.04559 9.16713 1.16013 9.2941 1.31361C9.42106 1.46708 9.50216 1.65326 9.52807 1.85075C9.93782 4.92869 8.987 7.20981 7.83338 8.71887C7.34418 9.36442 6.76087 9.9329 6.10294 10.4053C5.87544 10.5688 5.6344 10.7125 5.38244 10.835C5.18994 10.9257 4.983 11 4.8125 11C4.642 11 4.43575 10.9257 4.24257 10.835C3.99061 10.7125 3.74956 10.5688 3.52207 10.4053C2.86415 9.93289 2.28084 9.36441 1.79163 8.71887C0.638004 7.20981 -0.312809 4.92869 0.0969412 1.85075C0.122851 1.65326 0.203946 1.46708 0.330909 1.31361C0.457872 1.16013 0.625554 1.04559 0.814691 0.983125C1.47139 0.767806 2.13318 0.568373 2.7995 0.385Z" fill="black"/>
<path d="M4.12567 7.56252C4.12567 7.38018 4.1981 7.20532 4.32704 7.07638C4.45597 6.94745 4.63084 6.87502 4.81317 6.87502C4.99551 6.87502 5.17038 6.94745 5.29931 7.07638C5.42824 7.20532 5.50067 7.38018 5.50067 7.56252C5.50067 7.74486 5.42824 7.91972 5.29931 8.04866C5.17038 8.17759 4.99551 8.25002 4.81317 8.25002C4.63084 8.25002 4.45597 8.17759 4.32704 8.04866C4.1981 7.91972 4.12567 7.74486 4.12567 7.56252ZM4.19373 3.43408C4.18458 3.34735 4.19376 3.25966 4.22068 3.1767C4.24761 3.09374 4.29167 3.01738 4.35002 2.95255C4.40836 2.88772 4.47968 2.83588 4.55935 2.8004C4.63903 2.76492 4.72527 2.74658 4.81248 2.74658C4.8997 2.74658 4.98594 2.76492 5.06561 2.8004C5.14529 2.83588 5.21661 2.88772 5.27495 2.95255C5.3333 3.01738 5.37736 3.09374 5.40428 3.1767C5.43121 3.25966 5.44039 3.34735 5.43123 3.43408L5.19061 5.84514C5.18083 5.93862 5.13678 6.02516 5.06695 6.08807C4.99712 6.15097 4.90647 6.18578 4.81248 6.18578C4.7185 6.18578 4.62785 6.15097 4.55802 6.08807C4.48819 6.02516 4.44414 5.93862 4.43436 5.84514L4.19373 3.43408Z" fill="black"/>
</svg>
