<svg width="84" height="20" viewBox="0 0 84 20" fill="none" xmlns="http://www.w3.org/2000/svg">
<path fill-rule="evenodd" clip-rule="evenodd" d="M6.92743 4.52295H12.3471C15.257 4.52295 16.3525 5.99609 16.1832 8.16033C15.9034 11.7348 13.7433 13.7101 10.8782 13.7101H9.42464C9.03152 13.7101 8.76711 13.9704 8.66079 14.6755L8.04663 18.7745C8.00606 19.0403 7.86616 19.1942 7.65631 19.2166H4.25116C3.93079 19.2166 3.81747 18.9718 3.90001 18.4415L5.97612 5.30079C6.05866 4.77337 6.34685 4.52295 6.92743 4.52295Z" fill="#009EE3"/>
<path fill-rule="evenodd" clip-rule="evenodd" d="M34.4505 4.27956C36.279 4.27956 37.9662 5.27144 37.7354 7.74486C37.4556 10.6828 35.8817 12.3084 33.3985 12.3154H31.23C30.9181 12.3154 30.767 12.5686 30.6858 13.0918L30.2661 15.7597C30.2032 16.1626 29.9961 16.3627 29.6898 16.3627H27.671C27.3492 16.3627 27.2373 16.1556 27.3087 15.6967L28.9749 5.00144C29.0574 4.47542 29.2547 4.27956 29.6142 4.27956H34.4505ZM31.1615 10.0042H32.8053C33.8336 9.96507 34.5177 9.25298 34.5862 7.9687C34.6282 7.17547 34.0924 6.60748 33.2404 6.61168L31.6917 6.61867L31.1615 10.0028V10.0042ZM43.2222 15.5415C43.4069 15.375 43.5944 15.2868 43.5678 15.4939L43.502 15.9891C43.4684 16.2479 43.5706 16.3865 43.8126 16.3865H45.6047C45.9069 16.3865 46.0538 16.2633 46.1293 15.7975L47.2345 8.85986C47.2891 8.51151 47.2052 8.34084 46.9408 8.34084H44.9682C44.7905 8.34084 44.7052 8.44156 44.6576 8.71297L44.5848 9.13966C44.5471 9.3621 44.4449 9.40127 44.3498 9.17604C44.0155 8.38421 43.1621 8.02886 41.9715 8.05684C39.2043 8.1128 37.3395 10.2127 37.1408 12.9058C36.9855 14.9875 38.4782 16.6229 40.4452 16.6229C41.8708 16.6229 42.5101 16.2032 43.2278 15.5443L43.2222 15.5415ZM41.7211 14.474C40.5306 14.474 39.701 13.5241 39.8744 12.3601C40.0479 11.1962 41.1601 10.2463 42.3507 10.2463C43.5412 10.2463 44.3708 11.1948 44.1987 12.3601C44.0266 13.5255 42.913 14.474 41.7211 14.474ZM50.746 8.31845H48.9343C48.558 8.31845 48.4055 8.59825 48.5258 8.9424L50.7838 15.5555L48.5608 18.7004C48.3761 18.962 48.5188 19.2026 48.7804 19.2026H50.8244C50.9437 19.2163 51.0644 19.1955 51.1723 19.1427C51.2801 19.0899 51.3706 19.0073 51.4329 18.9046L58.3761 8.9424C58.5902 8.63602 58.4895 8.31565 58.1383 8.31425H56.2035C55.8719 8.31425 55.739 8.44436 55.5488 8.72136L52.6514 12.9183L51.3588 8.71297C51.2832 8.45835 51.0944 8.31845 50.746 8.31845Z" fill="#113984"/>
<path fill-rule="evenodd" clip-rule="evenodd" d="M65.6006 4.27954C67.4304 4.27954 69.1176 5.27143 68.8854 7.74485C68.6126 10.6827 67.0317 12.3084 64.5485 12.3154H62.3801C62.0681 12.3154 61.917 12.5686 61.8359 13.0918L61.4162 15.7597C61.3518 16.1626 61.1462 16.3627 60.8398 16.3627H58.8224C58.5007 16.3627 58.3887 16.1556 58.4601 15.6967L60.1291 5.00142C60.2102 4.4754 60.4089 4.27954 60.7684 4.27954H65.6006ZM62.3129 10.0042H63.9567C64.985 9.96505 65.6691 9.25297 65.7377 7.96869C65.7796 7.17546 65.2438 6.60747 64.3904 6.61166L62.8431 6.61866L62.3129 10.0028V10.0042ZM74.3737 15.5414C74.5583 15.375 74.7458 15.2868 74.7192 15.4939L74.6535 15.9891C74.6185 16.2479 74.722 16.3864 74.9626 16.3864H76.7561C77.0583 16.3864 77.2052 16.2633 77.2794 15.7975L78.3846 8.85985C78.4405 8.5115 78.3566 8.34082 78.0908 8.34082H76.121C75.9433 8.34082 75.8566 8.44155 75.8104 8.71296L75.7377 9.13965C75.6999 9.36209 75.5978 9.40126 75.5026 9.17602C75.1683 8.38419 74.3149 8.02885 73.1174 8.05683C70.3516 8.11279 68.4867 10.2127 68.2866 12.9057C68.1327 14.9874 69.6255 16.6229 71.5911 16.6229C73.018 16.6229 73.656 16.2032 74.3751 15.5442L74.3737 15.5414ZM72.8725 14.474C71.682 14.474 70.8524 13.5241 71.0259 12.3601C71.1993 11.1962 72.3115 10.2463 73.5021 10.2463C74.6926 10.2463 75.5222 11.1948 75.3488 12.3601C75.1753 13.5255 74.0631 14.474 72.8725 14.474ZM81.1448 16.3962H79.0757C79.0389 16.3983 79.0021 16.392 78.968 16.3778C78.934 16.3636 78.9036 16.3419 78.8791 16.3143C78.8546 16.2867 78.8367 16.254 78.8266 16.2185C78.8166 16.183 78.8147 16.1458 78.8211 16.1094L80.6398 4.58732C80.6573 4.5088 80.7009 4.43849 80.7633 4.38773C80.8257 4.33697 80.9035 4.30871 80.9839 4.30752H83.0544C83.0905 4.30565 83.1265 4.31184 83.1599 4.32564C83.1933 4.33943 83.2232 4.36049 83.2475 4.38728C83.2717 4.41407 83.2897 4.44592 83.3001 4.48052C83.3105 4.51512 83.3131 4.5516 83.3076 4.58732L81.4889 16.1094C81.4735 16.1899 81.4309 16.2626 81.3683 16.3153C81.3056 16.368 81.2267 16.3976 81.1448 16.399V16.3962Z" fill="#009EE3"/>
<path fill-rule="evenodd" clip-rule="evenodd" d="M3.53083 0H8.95752C10.4852 0 12.2969 0.0503638 13.5099 1.1192C14.3199 1.83408 14.7452 2.97146 14.6472 4.19698C14.3143 8.33941 11.8353 10.6603 8.51264 10.6603H5.83637C5.38169 10.6603 5.07951 10.9611 4.9508 11.7795L4.20374 16.5291C4.15618 16.8369 4.02187 17.0188 3.78404 17.0411H0.436251C0.0655177 17.0411 -0.0659891 16.7613 0.0305415 16.143L2.43681 0.903749C2.53334 0.29099 2.8705 0 3.53083 0Z" fill="#113984"/>
<path fill-rule="evenodd" clip-rule="evenodd" d="M5.0293 11.2969L5.97642 5.30079C6.05896 4.77337 6.34715 4.52295 6.92074 4.52295H12.3404C13.2372 4.52295 13.9633 4.66285 14.5313 4.92166C13.9857 8.60801 11.6018 10.6575 8.47782 10.6575H5.80854C5.4504 10.6575 5.18738 10.8366 5.0293 11.2969Z" fill="#172C70"/>
</svg>
