<svg width="320" height="44" viewBox="0 0 320 44" fill="none" xmlns="http://www.w3.org/2000/svg">
<path d="M4.91145 37.6879L4.91595 36.9679L7.79145 34.3804C8.03145 34.1644 8.19195 33.9604 8.27295 33.7684C8.35695 33.5734 8.39895 33.3739 8.39895 33.1699C8.39895 32.9209 8.34195 32.6959 8.22795 32.4949C8.11395 32.2939 7.95795 32.1349 7.75995 32.0179C7.56495 31.9009 7.34295 31.8424 7.09395 31.8424C6.83595 31.8424 6.60645 31.9039 6.40545 32.0269C6.20445 32.1469 6.04545 32.3074 5.92845 32.5084C5.81445 32.7094 5.75895 32.9284 5.76195 33.1654H4.94295C4.94295 32.7574 5.03745 32.3974 5.22645 32.0854C5.41545 31.7704 5.67195 31.5244 5.99595 31.3474C6.32295 31.1674 6.69345 31.0774 7.10745 31.0774C7.50945 31.0774 7.86945 31.1704 8.18745 31.3564C8.50545 31.5394 8.75595 31.7899 8.93895 32.1079C9.12495 32.4229 9.21795 32.7799 9.21795 33.1789C9.21795 33.4609 9.18195 33.7054 9.10995 33.9124C9.04095 34.1194 8.93295 34.3114 8.78595 34.4884C8.63895 34.6624 8.45445 34.8484 8.23245 35.0464L5.84295 37.1929L5.73945 36.9229H9.21795V37.6879H4.91145ZM12.2116 37.8274C11.8786 37.8274 11.5681 37.7584 11.2801 37.6204C10.9951 37.4824 10.7506 37.2934 10.5466 37.0534C10.3456 36.8104 10.2016 36.5314 10.1146 36.2164L10.8841 36.0094C10.9381 36.2224 11.0341 36.4069 11.1721 36.5629C11.3101 36.7159 11.4706 36.8359 11.6536 36.9229C11.8396 37.0069 12.0331 37.0489 12.2341 37.0489C12.4981 37.0489 12.7351 36.9859 12.9451 36.8599C13.1581 36.7309 13.3261 36.5614 13.4491 36.3514C13.5721 36.1384 13.6336 35.9059 13.6336 35.6539C13.6336 35.3929 13.5691 35.1574 13.4401 34.9474C13.3141 34.7344 13.1446 34.5664 12.9316 34.4434C12.7186 34.3204 12.4861 34.2589 12.2341 34.2589C11.9491 34.2589 11.7046 34.3189 11.5006 34.4389C11.2996 34.5559 11.1406 34.6999 11.0236 34.8709L10.3126 34.6009L10.5106 31.2124H13.9891V31.9729H10.8976L11.2531 31.6399L11.0866 34.3534L10.9111 34.1239C11.0911 33.9319 11.3056 33.7834 11.5546 33.6784C11.8066 33.5734 12.0631 33.5209 12.3241 33.5209C12.7261 33.5209 13.0861 33.6154 13.4041 33.8044C13.7221 33.9904 13.9741 34.2454 14.1601 34.5694C14.3461 34.8904 14.4391 35.2519 14.4391 35.6539C14.4391 36.0529 14.3371 36.4174 14.1331 36.7474C13.9291 37.0744 13.6576 37.3369 13.3186 37.5349C12.9826 37.7299 12.6136 37.8274 12.2116 37.8274ZM17.1533 31.2124H17.9678L16.2398 37.6924H15.4253L17.1533 31.2124ZM20.2659 37.6924V32.0989L19.0464 32.8369V31.9414L20.2659 31.2124H21.0804V37.6924H20.2659ZM22.6126 37.6879L22.6171 36.9679L25.4926 34.3804C25.7326 34.1644 25.8931 33.9604 25.9741 33.7684C26.0581 33.5734 26.1001 33.3739 26.1001 33.1699C26.1001 32.9209 26.0431 32.6959 25.9291 32.4949C25.8151 32.2939 25.6591 32.1349 25.4611 32.0179C25.2661 31.9009 25.0441 31.8424 24.7951 31.8424C24.5371 31.8424 24.3076 31.9039 24.1066 32.0269C23.9056 32.1469 23.7466 32.3074 23.6296 32.5084C23.5156 32.7094 23.4601 32.9284 23.4631 33.1654H22.6441C22.6441 32.7574 22.7386 32.3974 22.9276 32.0854C23.1166 31.7704 23.3731 31.5244 23.6971 31.3474C24.0241 31.1674 24.3946 31.0774 24.8086 31.0774C25.2106 31.0774 25.5706 31.1704 25.8886 31.3564C26.2066 31.5394 26.4571 31.7899 26.6401 32.1079C26.8261 32.4229 26.9191 32.7799 26.9191 33.1789C26.9191 33.4609 26.8831 33.7054 26.8111 33.9124C26.7421 34.1194 26.6341 34.3114 26.4871 34.4884C26.3401 34.6624 26.1556 34.8484 25.9336 35.0464L23.5441 37.1929L23.4406 36.9229H26.9191V37.6879H22.6126ZM29.6338 31.2124H30.4483L28.7203 37.6924H27.9058L29.6338 31.2124ZM31.4368 37.6879L31.4413 36.9679L34.3168 34.3804C34.5568 34.1644 34.7173 33.9604 34.7983 33.7684C34.8823 33.5734 34.9243 33.3739 34.9243 33.1699C34.9243 32.9209 34.8673 32.6959 34.7533 32.4949C34.6393 32.2939 34.4833 32.1349 34.2853 32.0179C34.0903 31.9009 33.8683 31.8424 33.6193 31.8424C33.3613 31.8424 33.1318 31.9039 32.9308 32.0269C32.7298 32.1469 32.5708 32.3074 32.4538 32.5084C32.3398 32.7094 32.2843 32.9284 32.2873 33.1654H31.4683C31.4683 32.7574 31.5628 32.3974 31.7518 32.0854C31.9408 31.7704 32.1973 31.5244 32.5213 31.3474C32.8483 31.1674 33.2188 31.0774 33.6328 31.0774C34.0348 31.0774 34.3948 31.1704 34.7128 31.3564C35.0308 31.5394 35.2813 31.7899 35.4643 32.1079C35.6503 32.4229 35.7433 32.7799 35.7433 33.1789C35.7433 33.4609 35.7073 33.7054 35.6353 33.9124C35.5663 34.1194 35.4583 34.3114 35.3113 34.4884C35.1643 34.6624 34.9798 34.8484 34.7578 35.0464L32.3683 37.1929L32.2648 36.9229H35.7433V37.6879H31.4368ZM37.9495 37.6924V32.0989L36.73 32.8369V31.9414L37.9495 31.2124H38.764V37.6924H37.9495Z" fill="#7D8791"/>
<path d="M7.73473 26.165C6.94273 26.165 6.2644 25.9927 5.69973 25.648C5.13507 25.2997 4.70057 24.8157 4.39623 24.196C4.09557 23.5763 3.94523 22.8577 3.94523 22.04C3.94523 21.2223 4.09557 20.5037 4.39623 19.884C4.70057 19.2643 5.13507 18.7822 5.69973 18.4375C6.2644 18.0892 6.94273 17.915 7.73473 17.915C8.52673 17.915 9.20507 18.0892 9.76973 18.4375C10.3381 18.7822 10.7726 19.2643 11.0732 19.884C11.3776 20.5037 11.5297 21.2223 11.5297 22.04C11.5297 22.8577 11.3776 23.5763 11.0732 24.196C10.7726 24.8157 10.3381 25.2997 9.76973 25.648C9.20507 25.9927 8.52673 26.165 7.73473 26.165ZM7.73473 24.9165C8.2664 24.9202 8.70823 24.8028 9.06023 24.5645C9.4159 24.3262 9.68173 23.9907 9.85773 23.558C10.0374 23.1253 10.1272 22.6193 10.1272 22.04C10.1272 21.4607 10.0374 20.9583 9.85773 20.533C9.68173 20.104 9.4159 19.7703 9.06023 19.532C8.70823 19.2937 8.2664 19.1708 7.73473 19.1635C7.20307 19.1598 6.76123 19.2772 6.40923 19.5155C6.05723 19.7538 5.7914 20.0893 5.61173 20.522C5.43573 20.9547 5.34773 21.4607 5.34773 22.04C5.34773 22.6193 5.43573 23.1235 5.61173 23.5525C5.78773 23.9778 6.05173 24.3097 6.40373 24.548C6.7594 24.7863 7.20307 24.9092 7.73473 24.9165ZM12.7345 26V20.06H13.906V21.5065L13.763 21.3195C13.8363 21.1215 13.9335 20.9418 14.0545 20.7805C14.1792 20.6155 14.3277 20.4798 14.5 20.3735C14.6467 20.2745 14.808 20.1975 14.984 20.1425C15.1637 20.0838 15.347 20.049 15.534 20.038C15.721 20.0233 15.9025 20.0307 16.0785 20.06V21.2975C15.9025 21.2462 15.699 21.2297 15.468 21.248C15.2407 21.2663 15.0353 21.3305 14.852 21.4405C14.6687 21.5395 14.5183 21.666 14.401 21.82C14.2873 21.974 14.203 22.15 14.148 22.348C14.093 22.5423 14.0655 22.7532 14.0655 22.9805V26H12.7345ZM19.5121 26.165C18.9658 26.165 18.4891 26.0275 18.0821 25.7525C17.6751 25.4775 17.3598 25.1035 17.1361 24.6305C16.9125 24.1575 16.8006 23.624 16.8006 23.03C16.8006 22.4287 16.9125 21.8933 17.1361 21.424C17.3635 20.951 17.6843 20.5788 18.0986 20.3075C18.513 20.0325 19.0006 19.895 19.5616 19.895C20.1263 19.895 20.5993 20.0325 20.9806 20.3075C21.3656 20.5788 21.6571 20.951 21.8551 21.424C22.0531 21.897 22.1521 22.4323 22.1521 23.03C22.1521 23.6203 22.0531 24.1538 21.8551 24.6305C21.6571 25.1035 21.362 25.4775 20.9696 25.7525C20.5773 26.0275 20.0915 26.165 19.5121 26.165ZM19.7156 24.977C20.0713 24.977 20.3573 24.8963 20.5736 24.735C20.7936 24.57 20.9531 24.3408 21.0521 24.0475C21.1548 23.7542 21.2061 23.415 21.2061 23.03C21.2061 22.6413 21.1548 22.3022 21.0521 22.0125C20.9531 21.7192 20.7973 21.4918 20.5846 21.3305C20.372 21.1655 20.097 21.083 19.7596 21.083C19.404 21.083 19.1106 21.171 18.8796 21.347C18.6486 21.5193 18.4781 21.754 18.3681 22.051C18.2581 22.3443 18.2031 22.6707 18.2031 23.03C18.2031 23.393 18.2563 23.723 18.3626 24.02C18.4726 24.3133 18.6395 24.5462 18.8631 24.7185C19.0868 24.8908 19.371 24.977 19.7156 24.977ZM21.2061 26V21.831H21.0411V18.08H22.3776V26H21.2061ZM26.7302 26.165C26.1289 26.165 25.6009 26.0348 25.1462 25.7745C24.6915 25.5142 24.3359 25.153 24.0792 24.691C23.8262 24.229 23.6997 23.6973 23.6997 23.096C23.6997 22.447 23.8244 21.8842 24.0737 21.4075C24.323 20.9272 24.6695 20.555 25.1132 20.291C25.5569 20.027 26.0702 19.895 26.6532 19.895C27.2692 19.895 27.7917 20.0398 28.2207 20.3295C28.6534 20.6155 28.9742 21.0207 29.1832 21.545C29.3922 22.0693 29.471 22.6872 29.4197 23.3985H28.1052V22.9145C28.1015 22.2692 27.9879 21.798 27.7642 21.501C27.5405 21.204 27.1885 21.0555 26.7082 21.0555C26.1655 21.0555 25.7622 21.2242 25.4982 21.5615C25.2342 21.8952 25.1022 22.3847 25.1022 23.03C25.1022 23.6313 25.2342 24.097 25.4982 24.427C25.7622 24.757 26.1472 24.922 26.6532 24.922C26.9795 24.922 27.26 24.8505 27.4947 24.7075C27.733 24.5608 27.9164 24.35 28.0447 24.075L29.3537 24.471C29.1264 25.0063 28.7744 25.4225 28.2977 25.7195C27.8247 26.0165 27.3022 26.165 26.7302 26.165ZM24.6842 23.3985V22.3975H28.7707V23.3985H24.6842ZM30.7569 26V20.06H31.9284V21.5065L31.7854 21.3195C31.8587 21.1215 31.9559 20.9418 32.0769 20.7805C32.2015 20.6155 32.35 20.4798 32.5224 20.3735C32.669 20.2745 32.8304 20.1975 33.0064 20.1425C33.186 20.0838 33.3694 20.049 33.5564 20.038C33.7434 20.0233 33.9249 20.0307 34.1009 20.06V21.2975C33.9249 21.2462 33.7214 21.2297 33.4904 21.248C33.263 21.2663 33.0577 21.3305 32.8744 21.4405C32.691 21.5395 32.5407 21.666 32.4234 21.82C32.3097 21.974 32.2254 22.15 32.1704 22.348C32.1154 22.5423 32.0879 22.7532 32.0879 22.9805V26H30.7569ZM37.8535 26.165C37.2522 26.165 36.7242 26.0348 36.2695 25.7745C35.8148 25.5142 35.4592 25.153 35.2025 24.691C34.9495 24.229 34.823 23.6973 34.823 23.096C34.823 22.447 34.9477 21.8842 35.197 21.4075C35.4463 20.9272 35.7928 20.555 36.2365 20.291C36.6802 20.027 37.1935 19.895 37.7765 19.895C38.3925 19.895 38.915 20.0398 39.344 20.3295C39.7767 20.6155 40.0975 21.0207 40.3065 21.545C40.5155 22.0693 40.5943 22.6872 40.543 23.3985H39.2285V22.9145C39.2248 22.2692 39.1112 21.798 38.8875 21.501C38.6638 21.204 38.3118 21.0555 37.8315 21.0555C37.2888 21.0555 36.8855 21.2242 36.6215 21.5615C36.3575 21.8952 36.2255 22.3847 36.2255 23.03C36.2255 23.6313 36.3575 24.097 36.6215 24.427C36.8855 24.757 37.2705 24.922 37.7765 24.922C38.1028 24.922 38.3833 24.8505 38.618 24.7075C38.8563 24.5608 39.0397 24.35 39.168 24.075L40.477 24.471C40.2497 25.0063 39.8977 25.4225 39.421 25.7195C38.948 26.0165 38.4255 26.165 37.8535 26.165ZM35.8075 23.3985V22.3975H39.894V23.3985H35.8075ZM44.2617 26.165C43.7154 26.165 43.2387 26.0275 42.8317 25.7525C42.4247 25.4775 42.1094 25.1035 41.8857 24.6305C41.662 24.1575 41.5502 23.624 41.5502 23.03C41.5502 22.4287 41.662 21.8933 41.8857 21.424C42.113 20.951 42.4339 20.5788 42.8482 20.3075C43.2625 20.0325 43.7502 19.895 44.3112 19.895C44.8759 19.895 45.3489 20.0325 45.7302 20.3075C46.1152 20.5788 46.4067 20.951 46.6047 21.424C46.8027 21.897 46.9017 22.4323 46.9017 23.03C46.9017 23.6203 46.8027 24.1538 46.6047 24.6305C46.4067 25.1035 46.1115 25.4775 45.7192 25.7525C45.3269 26.0275 44.841 26.165 44.2617 26.165ZM44.4652 24.977C44.8209 24.977 45.1069 24.8963 45.3232 24.735C45.5432 24.57 45.7027 24.3408 45.8017 24.0475C45.9044 23.7542 45.9557 23.415 45.9557 23.03C45.9557 22.6413 45.9044 22.3022 45.8017 22.0125C45.7027 21.7192 45.5469 21.4918 45.3342 21.3305C45.1215 21.1655 44.8465 21.083 44.5092 21.083C44.1535 21.083 43.8602 21.171 43.6292 21.347C43.3982 21.5193 43.2277 21.754 43.1177 22.051C43.0077 22.3443 42.9527 22.6707 42.9527 23.03C42.9527 23.393 43.0059 23.723 43.1122 24.02C43.2222 24.3133 43.389 24.5462 43.6127 24.7185C43.8364 24.8908 44.1205 24.977 44.4652 24.977ZM45.9557 26V21.831H45.7907V18.08H47.1272V26H45.9557Z" fill="#141B22"/>
<path d="M140.535 26.165C139.967 26.165 139.453 26.0678 138.995 25.8735C138.54 25.6755 138.164 25.395 137.867 25.032C137.574 24.6653 137.383 24.2308 137.295 23.7285L138.494 23.547C138.615 24.031 138.868 24.4087 139.253 24.68C139.638 24.9477 140.088 25.0815 140.601 25.0815C140.92 25.0815 141.213 25.032 141.481 24.933C141.749 24.8303 141.963 24.6855 142.124 24.4985C142.289 24.3078 142.372 24.0805 142.372 23.8165C142.372 23.6735 142.346 23.547 142.295 23.437C142.247 23.327 142.179 23.2317 142.091 23.151C142.007 23.0667 141.903 22.9952 141.778 22.9365C141.657 22.8742 141.523 22.821 141.376 22.777L139.347 22.1775C139.149 22.1188 138.947 22.0437 138.742 21.952C138.537 21.8567 138.348 21.7338 138.175 21.5835C138.007 21.4295 137.869 21.2407 137.763 21.017C137.657 20.7897 137.603 20.5147 137.603 20.192C137.603 19.7043 137.728 19.2918 137.977 18.9545C138.23 18.6135 138.571 18.3568 139 18.1845C139.429 18.0085 139.91 17.9205 140.441 17.9205C140.977 17.9278 141.455 18.0232 141.877 18.2065C142.302 18.3898 142.654 18.6538 142.933 18.9985C143.215 19.3395 143.41 19.7538 143.516 20.2415L142.284 20.4505C142.229 20.1535 142.112 19.8987 141.932 19.686C141.752 19.4697 141.532 19.3047 141.272 19.191C141.012 19.0737 140.729 19.0132 140.425 19.0095C140.132 19.0022 139.862 19.0462 139.616 19.1415C139.374 19.2368 139.18 19.3707 139.033 19.543C138.89 19.7153 138.819 19.9133 138.819 20.137C138.819 20.357 138.883 20.5348 139.011 20.6705C139.14 20.8062 139.297 20.9143 139.484 20.995C139.675 21.072 139.864 21.1362 140.051 21.1875L141.514 21.6C141.697 21.6513 141.904 21.721 142.135 21.809C142.37 21.8933 142.596 22.0125 142.812 22.1665C143.032 22.3205 143.213 22.5258 143.356 22.7825C143.499 23.0355 143.571 23.3545 143.571 23.7395C143.571 24.1392 143.49 24.4912 143.329 24.7955C143.168 25.0962 142.946 25.3492 142.663 25.5545C142.385 25.7562 142.062 25.9083 141.695 26.011C141.329 26.1137 140.942 26.165 140.535 26.165ZM149.022 26V23.0795C149.022 22.8485 149.002 22.612 148.961 22.37C148.925 22.1243 148.851 21.897 148.741 21.688C148.635 21.479 148.483 21.3103 148.285 21.182C148.091 21.0537 147.836 20.9895 147.52 20.9895C147.315 20.9895 147.121 21.0243 146.937 21.094C146.754 21.16 146.593 21.2682 146.453 21.4185C146.318 21.5688 146.21 21.7668 146.129 22.0125C146.052 22.2582 146.013 22.557 146.013 22.909L145.298 22.6395C145.298 22.1005 145.399 21.6257 145.601 21.215C145.803 20.8007 146.092 20.478 146.47 20.247C146.848 20.016 147.304 19.9005 147.839 19.9005C148.25 19.9005 148.595 19.9665 148.873 20.0985C149.152 20.2305 149.378 20.4047 149.55 20.621C149.726 20.8337 149.86 21.0665 149.951 21.3195C150.043 21.5725 150.105 21.82 150.138 22.062C150.171 22.304 150.188 22.5167 150.188 22.7V26H149.022ZM144.847 26V18.08H145.876V22.3535H146.013V26H144.847ZM151.841 19.0865V17.97H152.99V19.0865H151.841ZM151.841 26V20.06H152.99V26H151.841ZM157.54 26.165C156.972 26.165 156.495 26.0275 156.11 25.7525C155.725 25.4738 155.434 25.098 155.236 24.625C155.038 24.152 154.939 23.6185 154.939 23.0245C154.939 22.4305 155.036 21.897 155.23 21.424C155.428 20.951 155.718 20.5788 156.099 20.3075C156.484 20.0325 156.957 19.895 157.518 19.895C158.075 19.895 158.556 20.0325 158.959 20.3075C159.366 20.5788 159.68 20.951 159.9 21.424C160.12 21.8933 160.23 22.4268 160.23 23.0245C160.23 23.6185 160.12 24.1538 159.9 24.6305C159.683 25.1035 159.373 25.4775 158.97 25.7525C158.57 26.0275 158.094 26.165 157.54 26.165ZM154.746 28.64V20.06H155.769V24.3335H155.901V28.64H154.746ZM157.381 25.1255C157.747 25.1255 158.05 25.032 158.288 24.845C158.53 24.658 158.71 24.4068 158.827 24.0915C158.948 23.7725 159.009 23.4168 159.009 23.0245C159.009 22.6358 158.948 22.2838 158.827 21.9685C158.71 21.6532 158.528 21.402 158.283 21.215C158.037 21.028 157.723 20.9345 157.342 20.9345C156.983 20.9345 156.686 21.0225 156.451 21.1985C156.22 21.3745 156.048 21.6202 155.934 21.9355C155.824 22.2508 155.769 22.6138 155.769 23.0245C155.769 23.4352 155.824 23.7982 155.934 24.1135C156.044 24.4288 156.218 24.6763 156.457 24.856C156.695 25.0357 157.003 25.1255 157.381 25.1255ZM164.343 26.165C163.774 26.165 163.298 26.0275 162.913 25.7525C162.528 25.4738 162.236 25.098 162.038 24.625C161.84 24.152 161.741 23.6185 161.741 23.0245C161.741 22.4305 161.838 21.897 162.033 21.424C162.231 20.951 162.52 20.5788 162.902 20.3075C163.287 20.0325 163.76 19.895 164.321 19.895C164.878 19.895 165.358 20.0325 165.762 20.3075C166.169 20.5788 166.482 20.951 166.702 21.424C166.922 21.8933 167.032 22.4268 167.032 23.0245C167.032 23.6185 166.922 24.1538 166.702 24.6305C166.486 25.1035 166.176 25.4775 165.773 25.7525C165.373 26.0275 164.896 26.165 164.343 26.165ZM161.549 28.64V20.06H162.572V24.3335H162.704V28.64H161.549ZM164.183 25.1255C164.55 25.1255 164.852 25.032 165.091 24.845C165.333 24.658 165.512 24.4068 165.63 24.0915C165.751 23.7725 165.811 23.4168 165.811 23.0245C165.811 22.6358 165.751 22.2838 165.63 21.9685C165.512 21.6532 165.331 21.402 165.085 21.215C164.839 21.028 164.526 20.9345 164.145 20.9345C163.785 20.9345 163.488 21.0225 163.254 21.1985C163.023 21.3745 162.85 21.6202 162.737 21.9355C162.627 22.2508 162.572 22.6138 162.572 23.0245C162.572 23.4352 162.627 23.7982 162.737 24.1135C162.847 24.4288 163.021 24.6763 163.259 24.856C163.497 25.0357 163.805 25.1255 164.183 25.1255ZM170.991 26.165C170.401 26.165 169.882 26.0367 169.434 25.78C168.991 25.5197 168.644 25.1585 168.395 24.6965C168.149 24.2308 168.026 23.6918 168.026 23.0795C168.026 22.4305 168.147 21.8677 168.389 21.391C168.635 20.9143 168.976 20.5458 169.412 20.2855C169.849 20.0252 170.357 19.895 170.936 19.895C171.541 19.895 172.056 20.0362 172.481 20.3185C172.907 20.5972 173.224 20.995 173.433 21.512C173.646 22.029 173.73 22.6432 173.686 23.3545H172.536V22.9365C172.529 22.2472 172.397 21.7375 172.14 21.4075C171.887 21.0775 171.501 20.9125 170.98 20.9125C170.404 20.9125 169.972 21.094 169.682 21.457C169.392 21.82 169.247 22.3443 169.247 23.03C169.247 23.6827 169.392 24.1887 169.682 24.548C169.972 24.9037 170.39 25.0815 170.936 25.0815C171.295 25.0815 171.605 25.0008 171.865 24.8395C172.129 24.6745 172.335 24.4398 172.481 24.1355L173.609 24.493C173.378 25.0247 173.028 25.4372 172.558 25.7305C172.089 26.0202 171.567 26.165 170.991 26.165ZM168.873 23.3545V22.458H173.114V23.3545H168.873ZM177.389 26.165C176.836 26.165 176.357 26.0275 175.954 25.7525C175.554 25.4775 175.244 25.1035 175.024 24.6305C174.808 24.1538 174.7 23.6185 174.7 23.0245C174.7 22.4268 174.81 21.8933 175.03 21.424C175.25 20.951 175.562 20.5788 175.965 20.3075C176.372 20.0325 176.854 19.895 177.411 19.895C177.972 19.895 178.444 20.0325 178.825 20.3075C179.21 20.5788 179.5 20.951 179.694 21.424C179.892 21.897 179.991 22.4305 179.991 23.0245C179.991 23.6185 179.892 24.152 179.694 24.625C179.496 25.098 179.204 25.4738 178.819 25.7525C178.434 26.0275 177.958 26.165 177.389 26.165ZM177.549 25.1255C177.927 25.1255 178.235 25.0357 178.473 24.856C178.711 24.6763 178.885 24.4288 178.995 24.1135C179.105 23.7982 179.16 23.4352 179.16 23.0245C179.16 22.6138 179.104 22.2508 178.99 21.9355C178.88 21.6202 178.708 21.3745 178.473 21.1985C178.242 21.0225 177.947 20.9345 177.587 20.9345C177.206 20.9345 176.893 21.028 176.647 21.215C176.401 21.402 176.218 21.6532 176.097 21.9685C175.98 22.2838 175.921 22.6358 175.921 23.0245C175.921 23.4168 175.98 23.7725 176.097 24.0915C176.218 24.4068 176.398 24.658 176.636 24.845C176.878 25.032 177.182 25.1255 177.549 25.1255ZM179.16 26V21.7265H179.028V18.08H180.183V26H179.16Z" fill="#A2A2A2"/>
<path d="M268.351 26V18.08H270.831C270.905 18.08 271.04 18.0818 271.238 18.0855C271.44 18.0892 271.633 18.1038 271.816 18.1295C272.436 18.2065 272.956 18.4283 273.378 18.795C273.803 19.1617 274.124 19.6273 274.34 20.192C274.557 20.753 274.665 21.369 274.665 22.04C274.665 22.7147 274.557 23.3343 274.34 23.899C274.124 24.46 273.803 24.9238 273.378 25.2905C272.956 25.6535 272.436 25.8735 271.816 25.9505C271.633 25.9762 271.44 25.9908 271.238 25.9945C271.04 25.9982 270.905 26 270.831 26H268.351ZM269.528 24.9055H270.831C270.956 24.9055 271.105 24.9018 271.277 24.8945C271.449 24.8872 271.601 24.8725 271.733 24.8505C272.137 24.7735 272.463 24.5993 272.712 24.328C272.965 24.053 273.151 23.7157 273.268 23.316C273.385 22.9163 273.444 22.491 273.444 22.04C273.444 21.5743 273.383 21.1435 273.262 20.7475C273.141 20.3478 272.954 20.0142 272.701 19.7465C272.452 19.4752 272.129 19.3028 271.733 19.2295C271.601 19.2038 271.447 19.1892 271.271 19.1855C271.099 19.1782 270.952 19.1745 270.831 19.1745H269.528V24.9055ZM278.69 26.165C278.1 26.165 277.581 26.0367 277.134 25.78C276.69 25.5197 276.344 25.1585 276.094 24.6965C275.849 24.2308 275.726 23.6918 275.726 23.0795C275.726 22.4305 275.847 21.8677 276.089 21.391C276.334 20.9143 276.675 20.5458 277.112 20.2855C277.548 20.0252 278.056 19.895 278.635 19.895C279.24 19.895 279.755 20.0362 280.181 20.3185C280.606 20.5972 280.923 20.995 281.132 21.512C281.345 22.029 281.429 22.6432 281.385 23.3545H280.236V22.9365C280.228 22.2472 280.096 21.7375 279.84 21.4075C279.587 21.0775 279.2 20.9125 278.679 20.9125C278.104 20.9125 277.671 21.094 277.381 21.457C277.092 21.82 276.947 22.3443 276.947 23.03C276.947 23.6827 277.092 24.1887 277.381 24.548C277.671 24.9037 278.089 25.0815 278.635 25.0815C278.995 25.0815 279.304 25.0008 279.565 24.8395C279.829 24.6745 280.034 24.4398 280.181 24.1355L281.308 24.493C281.077 25.0247 280.727 25.4372 280.258 25.7305C279.788 26.0202 279.266 26.165 278.69 26.165ZM276.573 23.3545V22.458H280.813V23.3545H276.573ZM282.839 26V17.915H283.989V26H282.839ZM285.86 19.0865V17.97H287.01V19.0865H285.86ZM285.86 26V20.06H287.01V26H285.86ZM290.377 26L288.221 20.06H289.382L290.96 24.559L292.539 20.06H293.699L291.543 26H290.377ZM297.22 26.165C296.63 26.165 296.111 26.0367 295.664 25.78C295.22 25.5197 294.873 25.1585 294.624 24.6965C294.378 24.2308 294.256 23.6918 294.256 23.0795C294.256 22.4305 294.377 21.8677 294.619 21.391C294.864 20.9143 295.205 20.5458 295.642 20.2855C296.078 20.0252 296.586 19.895 297.165 19.895C297.77 19.895 298.285 20.0362 298.711 20.3185C299.136 20.5972 299.453 20.995 299.662 21.512C299.875 22.029 299.959 22.6432 299.915 23.3545H298.766V22.9365C298.758 22.2472 298.626 21.7375 298.37 21.4075C298.117 21.0775 297.73 20.9125 297.209 20.9125C296.633 20.9125 296.201 21.094 295.911 21.457C295.621 21.82 295.477 22.3443 295.477 23.03C295.477 23.6827 295.621 24.1887 295.911 24.548C296.201 24.9037 296.619 25.0815 297.165 25.0815C297.524 25.0815 297.834 25.0008 298.095 24.8395C298.359 24.6745 298.564 24.4398 298.711 24.1355L299.838 24.493C299.607 25.0247 299.257 25.4372 298.788 25.7305C298.318 26.0202 297.796 26.165 297.22 26.165ZM295.103 23.3545V22.458H299.343V23.3545H295.103ZM301.259 26V20.06H302.282V21.501L302.139 21.314C302.212 21.1233 302.308 20.9492 302.425 20.7915C302.542 20.6302 302.678 20.4982 302.832 20.3955C302.982 20.2855 303.149 20.2012 303.332 20.1425C303.519 20.0802 303.71 20.0435 303.904 20.0325C304.099 20.0178 304.286 20.027 304.465 20.06V21.138C304.271 21.0867 304.055 21.072 303.816 21.094C303.582 21.116 303.365 21.1912 303.167 21.3195C302.98 21.4405 302.832 21.5872 302.722 21.7595C302.616 21.9318 302.539 22.1243 302.491 22.337C302.443 22.546 302.419 22.7678 302.419 23.0025V26H301.259ZM308.15 26.165C307.56 26.165 307.041 26.0367 306.593 25.78C306.15 25.5197 305.803 25.1585 305.554 24.6965C305.308 24.2308 305.185 23.6918 305.185 23.0795C305.185 22.4305 305.306 21.8677 305.548 21.391C305.794 20.9143 306.135 20.5458 306.571 20.2855C307.008 20.0252 307.516 19.895 308.095 19.895C308.7 19.895 309.215 20.0362 309.64 20.3185C310.066 20.5972 310.383 20.995 310.592 21.512C310.805 22.029 310.889 22.6432 310.845 23.3545H309.695V22.9365C309.688 22.2472 309.556 21.7375 309.299 21.4075C309.046 21.0775 308.66 20.9125 308.139 20.9125C307.563 20.9125 307.131 21.094 306.841 21.457C306.551 21.82 306.406 22.3443 306.406 23.03C306.406 23.6827 306.551 24.1887 306.841 24.548C307.131 24.9037 307.549 25.0815 308.095 25.0815C308.454 25.0815 308.764 25.0008 309.024 24.8395C309.288 24.6745 309.494 24.4398 309.64 24.1355L310.768 24.493C310.537 25.0247 310.187 25.4372 309.717 25.7305C309.248 26.0202 308.726 26.165 308.15 26.165ZM306.032 23.3545V22.458H310.273V23.3545H306.032ZM314.548 26.165C313.995 26.165 313.516 26.0275 313.113 25.7525C312.713 25.4775 312.403 25.1035 312.183 24.6305C311.967 24.1538 311.859 23.6185 311.859 23.0245C311.859 22.4268 311.969 21.8933 312.189 21.424C312.409 20.951 312.721 20.5788 313.124 20.3075C313.531 20.0325 314.013 19.895 314.57 19.895C315.131 19.895 315.603 20.0325 315.984 20.3075C316.369 20.5788 316.659 20.951 316.853 21.424C317.051 21.897 317.15 22.4305 317.15 23.0245C317.15 23.6185 317.051 24.152 316.853 24.625C316.655 25.098 316.363 25.4738 315.978 25.7525C315.593 26.0275 315.117 26.165 314.548 26.165ZM314.708 25.1255C315.086 25.1255 315.394 25.0357 315.632 24.856C315.87 24.6763 316.044 24.4288 316.154 24.1135C316.264 23.7982 316.319 23.4352 316.319 23.0245C316.319 22.6138 316.263 22.2508 316.149 21.9355C316.039 21.6202 315.867 21.3745 315.632 21.1985C315.401 21.0225 315.106 20.9345 314.746 20.9345C314.365 20.9345 314.052 21.028 313.806 21.215C313.56 21.402 313.377 21.6532 313.256 21.9685C313.139 22.2838 313.08 22.6358 313.08 23.0245C313.08 23.4168 313.139 23.7725 313.256 24.0915C313.377 24.4068 313.557 24.658 313.795 24.845C314.037 25.032 314.341 25.1255 314.708 25.1255ZM316.319 26V21.7265H316.187V18.08H317.342V26H316.319Z" fill="#A2A2A2"/>
<rect x="10" y="5" width="149" height="2" rx="1" fill="#2BBC5D"/>
<path d="M163 6L312 5.99999" stroke="#B7B7B7" stroke-width="2" stroke-linecap="round" stroke-dasharray="4 4"/>
<circle r="5.48972" transform="matrix(1 0 0 -1 9.48972 5.48974)" fill="#2BBC5D"/>
<circle r="5.48972" transform="matrix(1 0 0 -1 314.068 5.48974)" fill="#B7B7B7"/>
<circle r="5.48972" transform="matrix(1 0 0 -1 161.49 5.48974)" fill="#B7B7B7"/>
</svg>
