<svg width="67" height="16" viewBox="0 0 67 16" fill="none" xmlns="http://www.w3.org/2000/svg">
<path d="M65.0133 11.1984C64.7625 11.1992 64.5142 11.2487 64.2828 11.3442C64.0514 11.4396 63.8413 11.5791 63.6646 11.7547C63.4878 11.9303 63.3479 12.1385 63.2527 12.3674C63.1575 12.5964 63.109 12.8416 63.1099 13.0891V13.0928C63.1072 13.5924 63.3057 14.0727 63.6618 14.4279C64.0179 14.7832 64.5025 14.9844 65.009 14.9872H65.0125C66.062 14.9872 66.9158 14.1385 66.9158 13.0928C66.9172 12.8454 66.8692 12.6001 66.7746 12.371C66.6799 12.142 66.5405 11.9335 66.3641 11.7576C66.1878 11.5817 65.9781 11.4418 65.747 11.3458C65.5158 11.2498 65.2678 11.1997 65.017 11.1984H65.0133ZM58.7526 9.73505C58.7526 8.30189 57.5229 7.14166 56.0062 7.14166C54.4894 7.14166 53.2594 8.30374 53.2594 9.73505C53.2594 11.1664 54.491 12.3269 56.0078 12.3269C57.5245 12.3269 58.7526 11.1666 58.7526 9.73505ZM58.7633 4.69452H61.7926V14.7743H58.7633V14.1297C57.8798 14.7315 56.8315 15.0533 55.7579 15.0525C52.8091 15.0525 50.4165 12.6723 50.4165 9.73505C50.4165 6.79784 52.808 4.41788 55.7579 4.41788C56.8316 4.41623 57.8802 4.73817 58.7633 5.34062V4.69452ZM34.5061 6.00787V4.6961H31.4023V14.7743H34.512V10.0693C34.512 8.4812 36.2395 7.62907 37.4389 7.62907H37.4745V4.6961C36.2443 4.6961 35.1144 5.22081 34.5061 6.00787ZM26.7747 9.73505C26.7747 8.30189 25.5451 7.14166 24.028 7.14166C22.511 7.14166 21.2816 8.30374 21.2816 9.73505C21.2816 11.1664 22.5128 12.3269 24.0299 12.3269C25.5469 12.3269 26.7747 11.1666 26.7747 9.73505ZM26.7855 4.69452H29.8177V14.7743H26.7855V14.1297C25.9019 14.7313 24.8536 15.0532 23.78 15.0525C20.8312 15.0525 18.4386 12.6723 18.4386 9.73505C18.4386 6.79784 20.8299 4.41788 23.78 4.41788C24.8537 4.41628 25.9023 4.73822 26.7855 5.34062V4.69452ZM45.03 4.42502C43.8202 4.42502 42.6744 4.79819 41.9069 5.83015V4.6961H38.8892V14.7743H41.9452V9.47825C41.9452 7.94644 42.9768 7.19455 44.2207 7.19455C45.5519 7.19455 46.3195 7.98796 46.3195 9.45709V14.7743H49.3463V8.36536C49.3463 6.0203 47.4725 4.42476 45.0303 4.42476L45.03 4.42502ZM14.0231 14.7743H17.1963V0.20461H14.0231V14.7743ZM0.0849609 14.7769H3.44558V0.201172H0.0868375L0.0849609 14.7769ZM11.8388 0.201172C11.8388 3.3563 10.6038 6.29297 8.40152 8.47458L13.0452 14.7769H8.89586L3.85064 7.92713L5.1535 6.9552C6.21387 6.16844 7.07305 5.14795 7.66243 3.97524C8.2518 2.80253 8.55503 1.51009 8.54789 0.201172H11.8388Z" fill="#0A0B09"/>
</svg>
