<svg width="33" height="21" viewBox="0 0 33 21" fill="none" xmlns="http://www.w3.org/2000/svg">
<path d="M20.5629 2.69659H11.8097V18.3858H20.5629V2.69659Z" fill="#FF5F00"/>
<path d="M12.3653 10.5379C12.3661 9.02913 12.7088 7.54009 13.368 6.18218C14.0271 4.82426 14.9856 3.63262 16.1716 2.69642C14.9177 1.7153 13.4469 1.04734 11.8817 0.748203C10.3165 0.449066 8.70235 0.527415 7.17369 0.97672C5.64503 1.42603 4.24615 2.23328 3.09363 3.3312C1.94111 4.42912 1.06832 5.78592 0.548009 7.28852C0.027696 8.79112 -0.125078 10.396 0.102418 11.9695C0.329914 13.5429 0.931091 15.0393 1.85585 16.334C2.78061 17.6287 4.00217 18.6842 5.41874 19.4125C6.8353 20.1408 8.40584 20.5208 9.99948 20.5209C12.238 20.5223 14.4114 19.77 16.1678 18.3856C14.9792 17.4506 14.0192 16.2582 13.3604 14.8986C12.7017 13.5391 12.3614 12.0479 12.3653 10.5379Z" fill="#EB001B"/>
<path d="M32.3724 10.5378C32.375 12.4097 31.8492 14.2445 30.8551 15.8321C29.861 17.4197 28.4388 18.6961 26.7514 19.515C25.064 20.3339 23.1796 20.6622 21.3138 20.4625C19.448 20.2628 17.6763 19.543 16.2015 18.3856C17.3886 17.4495 18.3479 16.2575 19.0074 14.8989C19.6669 13.5403 20.0095 12.0505 20.0095 10.541C20.0095 9.0315 19.6669 7.54161 19.0074 6.18304C18.3479 4.82446 17.3886 3.63245 16.2015 2.69639C17.6767 1.54236 19.4474 0.82524 21.3116 0.626851C23.1757 0.428463 25.0582 0.756797 26.7443 1.57439C28.4304 2.39198 29.8521 3.6659 30.8472 5.25079C31.8424 6.83568 32.3709 8.66771 32.3724 10.5378Z" fill="#F79E1B"/>
</svg>
