<svg width="137" height="22" viewBox="0 0 137 22" fill="none" xmlns="http://www.w3.org/2000/svg">
<path d="M64.0854 9.7873C64.0854 9.7873 64.4584 11.6143 64.5424 11.997H62.9028L63.6886 9.86067C63.6788 9.87569 63.8503 9.41342 63.9484 9.12881L64.0854 9.7873ZM69.2853 2.35733V19.6427C69.2851 20.2678 69.0367 20.8673 68.5946 21.3093C68.1526 21.7513 67.5531 21.9998 66.928 22H43.3573C42.7322 21.9998 42.1327 21.7513 41.6907 21.3093C41.2487 20.8673 41.0002 20.2678 41 19.6427V2.35733C41.0002 1.7322 41.2487 1.13274 41.6907 0.690705C42.1327 0.248671 42.7322 0.000234263 43.3573 0H66.928C67.5531 0.000234263 68.1526 0.248671 68.5946 0.690705C69.0367 1.13274 69.2851 1.7322 69.2853 2.35733ZM48.4892 14.6929L51.5925 7.072H49.5057L47.5761 12.2772L47.3649 11.2219L46.6772 7.71547C46.5641 7.22933 46.2158 7.09144 45.7836 7.072H42.6069L42.5724 7.22403C43.2999 7.4025 43.9978 7.68533 44.6443 8.06372L46.4023 14.6929H48.4892ZM53.1252 14.7026L54.3626 7.072H52.3889L51.1568 14.7026H53.1252ZM59.9948 12.2083C60.0045 11.3394 59.4742 10.6765 58.3401 10.1311C57.6481 9.782 57.2256 9.54689 57.2256 9.18803C57.2353 8.86364 57.5844 8.52953 58.3596 8.52953C58.8645 8.51529 59.3661 8.61435 59.8277 8.81945L60.0045 8.90253L60.275 7.25231C59.7107 7.0363 59.1114 6.92632 58.5072 6.92792C56.5573 6.92792 55.1873 7.96914 55.1776 9.45143C55.1626 10.5466 56.1596 11.1556 56.9065 11.5233C57.6675 11.8963 57.9282 12.142 57.9282 12.4708C57.9185 12.9817 57.3095 13.2168 56.7447 13.2168C55.9589 13.2168 55.5364 13.0939 54.893 12.8093L54.6331 12.6865L54.3582 14.4003C54.8196 14.6116 55.6743 14.7981 56.5582 14.8078C58.6301 14.8122 59.9806 13.786 59.9957 12.2056L59.9948 12.2083ZM66.928 14.7026L65.337 7.072H63.8096C63.3385 7.072 62.9797 7.20988 62.7781 7.70575L59.8463 14.7035H61.9181C61.9181 14.7035 62.2567 13.7604 62.3309 13.5597H64.865C64.9242 13.8302 65.101 14.7035 65.101 14.7035L66.928 14.7026Z" fill="#0066B3"/>
<path d="M22.6113 2.35303H12.9863V19.6475H22.6113V2.35303Z" fill="#FF5F00"/>
<path d="M13.5972 11C13.5972 7.48611 15.2472 4.36944 17.7833 2.35278C15.9194 0.886111 13.5667 0 11 0C4.91944 0 0 4.91944 0 11C0 17.0806 4.91944 22 11 22C13.5667 22 15.9194 21.1139 17.7833 19.6472C15.2472 17.6611 13.5972 14.5139 13.5972 11Z" fill="#EB001B"/>
<path d="M35.5978 11C35.5978 17.0806 30.6783 22 24.5978 22C22.0311 22 19.6783 21.1139 17.8145 19.6472C20.3811 17.6306 22.0006 14.5139 22.0006 11C22.0006 7.48611 20.3506 4.36944 17.8145 2.35278C19.6783 0.886111 22.0311 0 24.5978 0C30.6783 0 35.5978 4.95 35.5978 11Z" fill="#F79E1B"/>
<g clip-path="url(#clip0_2_12580)">
<path d="M109.272 0H75V22H109.397V0H109.272ZM109.151 0.248879C109.151 0.494071 109.151 21.505 109.151 21.7502H75.2498C75.2498 21.505 75.2498 0.494993 75.2498 0.249801L109.151 0.248879Z" fill="#1D1D1B"/>
<path d="M109.146 12.2217C109.146 12.2217 99.8174 18.8041 82.7305 21.7491H109.146V12.2217Z" fill="#EF7D00"/>
<path d="M93.0132 5.58398C91.6121 5.58398 90.4746 6.67905 90.4746 8.03037C90.4746 9.46742 91.5623 10.5413 93.0132 10.5413C94.4281 10.5413 95.5453 9.45267 95.5453 8.05895C95.5453 6.66523 94.4355 5.58398 93.0132 5.58398Z" fill="url(#paint0_radial_2_12580)"/>
<path d="M78.6005 5.67352H77.2354V10.4345H78.5931C79.314 10.4345 79.8348 10.263 80.292 9.88143C80.5605 9.65797 80.777 9.37851 80.9262 9.0626C81.0754 8.74669 81.1537 8.40199 81.1557 8.05263C81.1557 6.65061 80.1058 5.67352 78.6005 5.67352ZM79.6864 9.24909C79.3923 9.51364 79.0144 9.62794 78.4143 9.62794H78.1645V6.48008H78.4143C79.0144 6.48008 79.3776 6.587 79.6864 6.86538C79.8494 7.0162 79.9791 7.19935 80.0674 7.40314C80.1556 7.60692 80.2004 7.82687 80.1989 8.04894C80.2006 8.27348 80.156 8.49598 80.0678 8.70249C79.9796 8.909 79.8498 9.09508 79.6864 9.24909Z" fill="#05171D"/>
<path d="M82.5113 5.67358H81.584V10.4346H82.5113V5.67358Z" fill="#05171D"/>
<path d="M84.7824 7.4996C84.2294 7.29312 84.0607 7.1567 84.0607 6.90044C84.0607 6.60087 84.3529 6.37227 84.7529 6.37227C85.0295 6.37227 85.2599 6.48657 85.5032 6.75757L85.9881 6.12247C85.6033 5.77897 85.1046 5.59072 84.5888 5.59429C83.7473 5.59429 83.1048 6.17962 83.1048 6.95667C83.1048 7.6139 83.4044 7.94942 84.2754 8.26467C84.4989 8.33358 84.715 8.42435 84.9207 8.53567C85.0055 8.58668 85.0756 8.65889 85.1241 8.74519C85.1726 8.83149 85.1978 8.92892 85.1972 9.0279C85.1972 9.4132 84.8903 9.69895 84.4755 9.69895C84.2632 9.70227 84.0545 9.64406 83.8746 9.53136C83.6946 9.41866 83.5512 9.25629 83.4615 9.06385L82.8633 9.64272C83.2901 10.2695 83.8044 10.5488 84.5123 10.5488C85.4756 10.5488 86.1531 9.90359 86.1531 8.98181C86.1522 8.22872 85.8388 7.88582 84.7824 7.4996Z" fill="#05171D"/>
<path d="M86.4453 8.05626C86.4453 9.45644 87.545 10.5451 88.959 10.5451C89.3631 10.546 89.7618 10.4512 90.1223 10.2685V9.17069C89.7536 9.5394 89.4226 9.69149 89.0014 9.69149C88.0658 9.69149 87.4021 9.01306 87.4021 8.04889C87.4021 7.13633 88.087 6.41458 88.959 6.41458C89.4005 6.41458 89.737 6.5722 90.1223 6.95013V5.85783C89.7723 5.66582 89.3794 5.56532 88.9802 5.56563C88.6499 5.56149 88.322 5.62276 88.0155 5.74591C87.709 5.86906 87.4298 6.05166 87.1942 6.28318C86.9586 6.5147 86.7711 6.79057 86.6426 7.09488C86.514 7.39919 86.447 7.72593 86.4453 8.05626Z" fill="#05171D"/>
<path d="M97.6465 8.87122L96.3763 5.67358H95.3623L97.3828 10.5562H97.8824L99.9389 5.67358H98.9323L97.6465 8.87122Z" fill="#05171D"/>
<path d="M100.36 10.4346H102.994V9.628H101.288V8.34212H102.928V7.53649H101.288V6.48014H102.994V5.67358H100.36V10.4346Z" fill="#05171D"/>
<path d="M106.67 7.07837C106.67 6.18701 106.058 5.67358 104.985 5.67358H103.607V10.4346H104.537V8.52095H104.658L105.942 10.4346H107.085L105.585 8.42877C106.285 8.2859 106.67 7.80749 106.67 7.07837ZM104.807 7.86464H104.537V6.42207H104.819C105.398 6.42207 105.713 6.66541 105.713 7.12907C105.713 7.59272 105.401 7.86464 104.807 7.86464Z" fill="#05171D"/>
<path d="M107.324 6.02846C107.324 5.94458 107.269 5.89941 107.167 5.89941H107.03V6.31882H107.13V6.15567L107.248 6.31882H107.371L107.232 6.14553C107.259 6.14026 107.283 6.12556 107.3 6.10408C107.317 6.0826 107.325 6.05577 107.324 6.02846ZM107.149 6.08561H107.131V5.97592H107.15C107.2 5.97592 107.225 5.99436 107.225 6.02938C107.225 6.06441 107.199 6.08561 107.149 6.08561Z" fill="#1D1D1B"/>
<path d="M107.188 5.74177C107.114 5.74031 107.042 5.76068 106.981 5.8003C106.919 5.83991 106.871 5.89697 106.842 5.9642C106.813 6.03143 106.804 6.10579 106.818 6.17779C106.831 6.24979 106.866 6.31617 106.917 6.36848C106.968 6.42078 107.034 6.45664 107.106 6.47148C107.177 6.48631 107.252 6.47945 107.32 6.45177C107.387 6.4241 107.445 6.37686 107.486 6.31607C107.527 6.25529 107.549 6.18372 107.549 6.11048C107.549 6.01396 107.511 5.92128 107.444 5.85234C107.376 5.7834 107.284 5.7437 107.188 5.74177ZM107.188 6.40914C107.128 6.41153 107.068 6.39596 107.018 6.36442C106.967 6.33289 106.926 6.28684 106.902 6.23218C106.877 6.17753 106.869 6.11677 106.88 6.05771C106.89 5.99865 106.917 5.94399 106.959 5.90076C107 5.85753 107.054 5.82769 107.112 5.8151C107.171 5.8025 107.232 5.80771 107.288 5.83005C107.343 5.8524 107.391 5.89087 107.425 5.94051C107.458 5.99016 107.476 6.04871 107.476 6.10864C107.477 6.18673 107.447 6.26207 107.393 6.31832C107.339 6.37457 107.265 6.4072 107.187 6.40914H107.188Z" fill="#1D1D1B"/>
<path d="M85.5576 11.6853L86.8002 12.9868V11.7535H86.9771V13.4173L85.7374 12.1195V13.3463H85.5595L85.5576 11.6853Z" fill="#1D1D1B"/>
<path d="M85.541 11.6855V13.3613H85.7512V12.163L86.9937 13.4618V11.7371H86.7827V12.9456C86.7283 12.8875 85.541 11.644 85.541 11.644V11.6855ZM85.5742 11.727L86.8168 13.0285V11.7694H86.9606V13.377L85.7189 12.0773V13.33H85.5742V11.727Z" fill="#1D1D1B"/>
<path d="M87.8389 11.7534H88.6685V11.9175H88.0232V12.3913H88.6519V12.5563H88.0232V13.1812H88.6685V13.3462H87.8389V11.7534Z" fill="#1D1D1B"/>
<path d="M88.6638 11.737H87.8213V13.3611H88.6804V13.1629H88.0351V12.5702H88.6638V12.3739H88.0351V11.9333H88.6804V11.7351L88.6638 11.737ZM88.6472 11.7692V11.901H88.002V12.408H88.6315V12.5389H88.002V13.198H88.6472V13.3298H87.8582V11.7692H88.6472Z" fill="#1D1D1B"/>
<path d="M89.9168 13.3462H89.7389V11.9175H89.3545V11.7534H90.3048V11.9175H89.9168V13.3462Z" fill="#1D1D1B"/>
<path d="M90.3048 11.7368H89.3369V11.935H89.7222V13.361H89.9324V11.935H90.3214V11.7368H90.3048ZM90.2882 11.7691V11.9009H89.8992V13.3297H89.7554V11.9009H89.371V11.7691H90.2882Z" fill="#1D1D1B"/>
<path d="M91.4919 12.9473L92.0054 11.6707L92.5206 12.9473L92.9391 11.7536H93.1318L92.5206 13.4285L92.0054 12.1454L91.4901 13.4285L90.8799 11.7536H91.0725L91.4919 12.9473Z" fill="#1D1D1B"/>
<path d="M95.4287 12.5518C95.4287 12.7158 95.3801 12.8762 95.2889 13.0127C95.1978 13.1491 95.0682 13.2554 94.9166 13.3182C94.765 13.381 94.5982 13.3974 94.4373 13.3654C94.2764 13.3334 94.1285 13.2544 94.0125 13.1384C93.8965 13.0224 93.8175 12.8745 93.7855 12.7136C93.7535 12.5527 93.7699 12.3859 93.8327 12.2343C93.8955 12.0827 94.0018 11.9531 94.1382 11.862C94.2747 11.7708 94.4351 11.7222 94.5991 11.7222C94.8192 11.7222 95.0302 11.8096 95.1858 11.9651C95.3413 12.1207 95.4287 12.3317 95.4287 12.5518ZM93.9456 12.5518C93.9469 12.6806 93.9862 12.8061 94.0587 12.9126C94.1312 13.019 94.2335 13.1017 94.3529 13.1501C94.4723 13.1985 94.6033 13.2105 94.7294 13.1846C94.8556 13.1587 94.9713 13.096 95.0619 13.0045C95.1525 12.913 95.2141 12.7967 95.2387 12.6703C95.2634 12.5439 95.2501 12.413 95.2005 12.2941C95.1509 12.1752 95.0673 12.0737 94.9601 12.0022C94.8529 11.9308 94.727 11.8927 94.5982 11.8927C94.4243 11.8932 94.2576 11.9625 94.1347 12.0855C94.0117 12.2084 93.9424 12.3751 93.9419 12.549L93.9456 12.5518Z" fill="#1D1D1B"/>
<path d="M93.751 12.552C93.7501 12.7197 93.799 12.8839 93.8915 13.0238C93.984 13.1638 94.116 13.2731 94.2707 13.3379C94.4254 13.4027 94.5959 13.4201 94.7605 13.388C94.9251 13.3558 95.0765 13.2755 95.1954 13.1572C95.3144 13.0389 95.3955 12.888 95.4286 12.7235C95.4616 12.5591 95.4451 12.3885 95.3812 12.2335C95.3172 12.0784 95.2086 11.9459 95.0692 11.8526C94.9298 11.7593 94.7658 11.7095 94.5981 11.7095C94.4871 11.7091 94.3772 11.7306 94.2746 11.7728C94.1719 11.8149 94.0786 11.8769 93.9999 11.9551C93.9212 12.0334 93.8588 12.1264 93.8161 12.2288C93.7733 12.3312 93.7512 12.441 93.751 12.552ZM93.7842 12.552C93.7822 12.3904 93.8283 12.2318 93.9166 12.0964C94.005 11.9611 94.1316 11.8551 94.2803 11.7919C94.4291 11.7287 94.5933 11.7111 94.752 11.7415C94.9108 11.7719 95.0569 11.8487 95.1718 11.9624C95.2868 12.076 95.3653 12.2213 95.3975 12.3797C95.4297 12.5381 95.414 12.7024 95.3525 12.8519C95.291 13.0014 95.1864 13.1292 95.0521 13.2191C94.9178 13.3089 94.7597 13.3568 94.5981 13.3567C94.3837 13.3572 94.1778 13.2728 94.0253 13.1221C93.8728 12.9713 93.7861 12.7664 93.7842 12.552Z" fill="#1D1D1B"/>
<path d="M93.9277 12.5491C93.9288 12.6811 93.969 12.8099 94.0431 12.9192C94.1173 13.0285 94.2221 13.1135 94.3444 13.1633C94.4668 13.2131 94.6011 13.2256 94.7305 13.1993C94.8599 13.1729 94.9787 13.1088 95.0717 13.0151C95.1648 12.9214 95.2281 12.8022 95.2536 12.6726C95.279 12.543 95.2656 12.4088 95.2149 12.2868C95.1643 12.1648 95.0786 12.0606 94.9688 11.9872C94.859 11.9138 94.7299 11.8745 94.5979 11.8743C94.4196 11.8751 94.2488 11.9465 94.1232 12.073C93.9975 12.1996 93.9272 12.3708 93.9277 12.5491ZM93.9618 12.5491C93.9637 12.4237 94.0025 12.3016 94.0735 12.1983C94.1445 12.0949 94.2444 12.0148 94.3608 11.9681C94.4772 11.9213 94.6047 11.9101 94.7275 11.9356C94.8503 11.9612 94.9627 12.0225 95.0508 12.1118C95.1388 12.2011 95.1984 12.3144 95.2223 12.4376C95.2461 12.5607 95.2329 12.6881 95.1845 12.8038C95.1361 12.9194 95.0546 13.0182 94.9502 13.0877C94.8459 13.1572 94.7233 13.1943 94.5979 13.1943C94.5137 13.1939 94.4304 13.1769 94.3528 13.1443C94.2752 13.1116 94.2048 13.0639 94.1457 13.004C94.0866 12.944 94.0399 12.8729 94.0083 12.7949C93.9768 12.7168 93.961 12.6333 93.9618 12.5491Z" fill="#1D1D1B"/>
<path d="M96.3752 13.3462H96.1982V11.7534H96.4305C96.7329 11.7534 97.0131 11.8336 97.0131 12.1922C97.0163 12.2473 97.0085 12.3025 96.9902 12.3546C96.9718 12.4067 96.9433 12.4546 96.9062 12.4956C96.8691 12.5365 96.8243 12.5696 96.7743 12.593C96.7242 12.6164 96.6701 12.6296 96.6149 12.6319L97.1209 13.3462H96.9006L96.4195 12.6466H96.3752V13.3462ZM96.3752 12.4899H96.4305C96.6315 12.4899 96.8343 12.4521 96.8343 12.2051C96.8343 11.9442 96.6416 11.9175 96.4287 11.9175H96.3761L96.3752 12.4899Z" fill="#1D1D1B"/>
<path d="M96.1982 11.737H96.1816V13.3611H96.3918V12.6615H96.4195C96.4195 12.6735 96.8877 13.3537 96.8877 13.3537L97.1182 13.3611H97.1513C97.1513 13.3611 96.6647 12.6772 96.6398 12.6403C96.7498 12.6295 96.8514 12.5768 96.9235 12.493C96.9956 12.4092 97.0327 12.3009 97.0269 12.1905C97.0269 11.8835 96.8315 11.7351 96.4278 11.7351L96.1982 11.737ZM96.4278 11.7692C96.814 11.7692 96.9937 11.9038 96.9937 12.1923C96.9967 12.2454 96.9891 12.2985 96.9714 12.3485C96.9537 12.3986 96.9262 12.4447 96.8905 12.4841C96.8548 12.5234 96.8117 12.5553 96.7636 12.5779C96.7155 12.6004 96.6633 12.6132 96.6103 12.6154H96.5808L97.0868 13.327H96.9025C96.9025 13.3141 96.4342 12.6348 96.4342 12.6348L96.3771 12.6274H96.3605V13.327H96.2157V11.7692H96.4278Z" fill="#1D1D1B"/>
<path d="M96.375 11.9011H96.3584V12.5067H96.4303C96.6266 12.5067 96.8506 12.4726 96.8506 12.2052C96.8506 11.9241 96.6331 11.9011 96.4285 11.9011H96.375ZM96.4275 11.9352C96.6322 11.9352 96.8165 11.9554 96.8165 12.2052C96.8165 12.4412 96.6211 12.4735 96.4294 12.4735H96.3916V11.9352H96.4275Z" fill="#1D1D1B"/>
<path d="M98.7263 11.7534H98.965L98.2175 12.4954L98.9899 13.3462H98.7447L98.0893 12.6153L98.0451 12.6586V13.3462H97.8672V11.7534H98.0451V12.4392L98.7263 11.7534Z" fill="#1D1D1B"/>
<path d="M98.9652 11.737H98.72C98.72 11.737 98.1163 12.3426 98.0647 12.396V11.737H97.8545V13.3611H98.0647V12.6596C98.0745 12.6534 98.0834 12.646 98.0914 12.6375L98.7366 13.3556L98.9938 13.3611H99.0316C99.0316 13.3611 98.2647 12.5168 98.2426 12.4937C98.2665 12.4716 99.0085 11.7351 99.0085 11.7351L98.9652 11.737ZM98.9247 11.7692L98.1937 12.4946L98.9532 13.3298H98.7449C98.7449 13.3206 98.1043 12.6043 98.1043 12.6043L98.0932 12.5905L98.0361 12.6477C98.0361 12.6477 98.0315 13.2975 98.0315 13.3298H97.8877V11.7692H98.0315V12.4762L98.7329 11.7692H98.9247Z" fill="#1D1D1B"/>
</g>
<g clip-path="url(#clip1_2_12580)">
<path d="M135.921 -0.00152588H114V22.0008H135.925V14.7393C136.017 14.595 136.062 14.4259 136.054 14.2549C136.054 14.0302 136.012 13.8903 135.925 13.7729" fill="url(#paint1_radial_2_12580)"/>
<path d="M115.976 9.51928L115.554 8.49147L115.135 9.51928H115.976ZM125.266 9.11034C125.171 9.1556 125.066 9.1739 124.962 9.16321H124.213V8.59099H124.972C125.071 8.58315 125.171 8.59886 125.263 8.63686C125.305 8.65744 125.34 8.69017 125.363 8.73079C125.386 8.77141 125.397 8.81805 125.393 8.86466C125.396 8.91329 125.386 8.96193 125.364 9.00526C125.342 9.04859 125.308 9.08494 125.266 9.11034ZM130.605 9.51928L130.179 8.49147L129.755 9.51928H130.605ZM120.654 10.6318H120.022V8.61043L119.129 10.6318H118.585L117.689 8.61043V10.6318H116.434L116.201 10.0565H114.918L114.679 10.6318H114.009L115.113 8.05376H116.028L117.074 10.4942V8.05376H118.079L118.886 9.80228L119.627 8.05376H120.652V10.6318H120.654ZM123.171 10.6318H121.111V8.05376H123.169V8.59099H121.728V9.05747H123.135V9.58615H121.728V10.1008H123.169L123.171 10.6318ZM126.075 8.74804C126.079 8.89291 126.04 9.0358 125.963 9.1583C125.885 9.2808 125.773 9.37729 125.64 9.43532C125.759 9.47894 125.865 9.55387 125.945 9.65223C126.032 9.78051 126.048 9.8948 126.048 10.1249V10.6318H125.426V10.3061C125.426 10.1506 125.44 9.92823 125.328 9.80461C125.238 9.71365 125.101 9.69421 124.88 9.69421H124.218V10.6318H123.602V8.05376H125.019C125.33 8.05376 125.563 8.06231 125.765 8.17738C125.968 8.29244 126.075 8.46038 126.075 8.74804ZM127.061 10.6318H126.432V8.05376H127.061V10.6318ZM134.354 10.6318H133.478L132.312 8.69673V10.6318H131.055L130.815 10.0565H129.535L129.302 10.6318H128.581C128.282 10.6318 127.903 10.565 127.688 10.3465C127.474 10.128 127.358 9.83105 127.358 9.36224C127.358 8.97972 127.426 8.63064 127.69 8.35153C127.89 8.1455 128.202 8.05065 128.623 8.05065H129.22V8.60343H128.64C128.416 8.60343 128.289 8.63686 128.166 8.75892C128.061 8.86777 127.989 9.06991 127.989 9.3428C127.989 9.61569 128.044 9.81783 128.158 9.94845C128.253 10.0503 128.426 10.0814 128.588 10.0814H128.865L129.729 8.05376H130.653L131.699 10.4942V8.05376H132.637L133.72 9.84893V8.05376H134.351V10.6318H134.354ZM114.003 11.138H115.056L115.293 10.565H115.825L116.058 11.138H118.13V10.7003L118.314 11.1395H119.389L119.574 10.6933V11.138H124.722V10.198H124.822C124.892 10.198 124.912 10.2066 124.912 10.3224V11.138H127.574V10.9187C127.881 11.0711 128.22 11.1463 128.563 11.138H129.683L129.923 10.565H130.454L130.688 11.138H132.846V10.5937L133.173 11.138H134.902V7.53986H133.192V7.96435L132.948 7.53986H131.192V7.96435L130.973 7.53986H128.6C128.203 7.53986 127.854 7.59506 127.571 7.74977V7.53986H125.934V7.74977C125.755 7.59039 125.51 7.53986 125.238 7.53986H119.257L118.856 8.47282L118.444 7.53986H116.56V7.96435L116.357 7.53986H114.746L114 9.25028V11.1364L114.003 11.138Z" fill="white"/>
<path d="M135.921 13.0388H134.797C134.712 13.0288 134.625 13.0451 134.549 13.0854C134.518 13.1054 134.494 13.1332 134.478 13.1659C134.462 13.1986 134.455 13.235 134.458 13.2712C134.457 13.3135 134.469 13.3552 134.493 13.3898C134.518 13.4245 134.553 13.4503 134.593 13.4633C134.67 13.4863 134.75 13.496 134.831 13.492L135.164 13.5014C135.501 13.5099 135.726 13.5675 135.864 13.709C135.886 13.7277 135.905 13.7491 135.922 13.7727L135.921 13.0388ZM135.922 14.7391C135.772 14.9576 135.48 15.0688 135.085 15.0688H133.896V14.516H135.08C135.198 14.516 135.28 14.5004 135.33 14.4522C135.353 14.4306 135.371 14.4045 135.384 14.3754C135.396 14.3464 135.403 14.3151 135.402 14.2835C135.403 14.2511 135.397 14.2189 135.383 14.1893C135.37 14.1598 135.35 14.1338 135.325 14.1132C135.262 14.0675 135.184 14.047 135.107 14.0557C134.528 14.0363 133.807 14.0736 133.807 13.258C133.807 12.8841 134.04 12.4907 134.691 12.4907H135.918V11.9775H134.783C134.438 11.9775 134.189 12.06 134.011 12.1882V11.9775H132.323C132.053 11.9775 131.736 12.0444 131.586 12.1882V11.9775H128.575V12.1882C128.335 12.0149 127.931 11.9775 127.744 11.9775H125.758V12.1882C125.568 12.004 125.146 11.9775 124.889 11.9775H122.666L122.157 12.528L121.681 11.9775H118.359V15.5749H121.618L122.142 15.0159L122.636 15.5749H124.644V14.7306H124.842C125.109 14.7344 125.423 14.7236 125.697 14.6038V15.5749H127.354V14.6373H127.432C127.533 14.6373 127.544 14.6373 127.544 14.7438V15.5749H132.582C132.902 15.5749 133.235 15.4932 133.42 15.3416V15.5749H135.016C135.348 15.5749 135.672 15.5282 135.919 15.4093V14.7391H135.922ZM133.461 13.709C133.581 13.8326 133.645 13.9896 133.645 14.2532C133.645 14.8083 133.298 15.0672 132.677 15.0672H131.479V14.5144H132.674C132.763 14.525 132.853 14.5023 132.926 14.4507C132.949 14.4291 132.968 14.403 132.98 14.374C132.993 14.3449 132.999 14.3136 132.999 14.282C132.999 14.2496 132.992 14.2176 132.979 14.1882C132.966 14.1588 132.946 14.1327 132.921 14.1117C132.858 14.0666 132.78 14.0462 132.702 14.0542C132.126 14.0347 131.405 14.072 131.405 13.2565C131.405 12.8825 131.638 12.4891 132.285 12.4891H133.52V13.038H132.393C132.308 13.0278 132.221 13.0438 132.145 13.0839C132.113 13.1061 132.088 13.1366 132.072 13.1721C132.056 13.2076 132.05 13.2468 132.054 13.2855C132.059 13.3243 132.073 13.3611 132.097 13.3921C132.121 13.4231 132.152 13.4472 132.188 13.4617C132.266 13.4852 132.347 13.4952 132.428 13.4913L132.76 13.4998C133.094 13.5099 133.323 13.5675 133.461 13.709ZM127.901 13.5496C127.806 13.594 127.701 13.6122 127.596 13.6024H126.852V13.024H127.611C127.711 13.015 127.812 13.0308 127.905 13.0699C127.946 13.0926 127.98 13.1266 128.003 13.1679C128.025 13.2092 128.036 13.2561 128.033 13.3031C128.035 13.3519 128.024 13.4004 128.001 13.4436C127.978 13.4869 127.945 13.5234 127.904 13.5496H127.901ZM128.273 13.8707C128.392 13.9129 128.497 13.9878 128.575 14.0868C128.662 14.2128 128.675 14.3302 128.677 14.5572V15.0688H128.055V14.7461C128.055 14.5906 128.07 14.3613 127.956 14.2415C127.865 14.149 127.729 14.1272 127.504 14.1272H126.852V15.0688H126.23V12.4907H127.652C127.963 12.4907 128.192 12.5039 128.394 12.612C128.496 12.6668 128.58 12.75 128.637 12.8515C128.693 12.953 128.718 13.0685 128.711 13.1842C128.715 13.3291 128.676 13.4721 128.599 13.5945C128.521 13.7169 128.408 13.8132 128.275 13.8707H128.273ZM129.05 12.4907H131.107V13.0232H129.668V13.4897H131.075V14.0161H129.668V14.5292H131.11V15.0641H129.053L129.05 12.4907ZM124.897 13.6817H124.101V13.0256H124.904C125.126 13.0256 125.281 13.1158 125.281 13.3412C125.281 13.5667 125.133 13.6817 124.897 13.6817ZM123.487 14.8355L122.541 13.7852L123.487 12.769V14.8355ZM121.044 14.5331H119.529V14.0199H120.882V13.4936H119.529V13.0271H121.074L121.748 13.7789L121.044 14.5331ZM125.942 13.3412C125.942 14.0573 125.408 14.205 124.869 14.205H124.101V15.0703H122.903L122.145 14.2151L121.356 15.0703H118.915V12.4907H121.394L122.152 13.3358L122.936 12.4907H124.904C125.393 12.4907 125.942 12.6259 125.942 13.3397V13.3412Z" fill="white"/>
</g>
<defs>
<radialGradient id="paint0_radial_2_12580" cx="0" cy="0" r="1" gradientUnits="userSpaceOnUse" gradientTransform="translate(93.0104 8.06264) scale(2.50723)">
<stop offset="0.01" stop-color="#FFF3E8"/>
<stop offset="0.1" stop-color="#FEEEDF"/>
<stop offset="0.24" stop-color="#FDE2C7"/>
<stop offset="0.43" stop-color="#FACE9F"/>
<stop offset="0.65" stop-color="#F6B268"/>
<stop offset="0.89" stop-color="#F18E22"/>
<stop offset="1" stop-color="#EF7D00"/>
</radialGradient>
<radialGradient id="paint1_radial_2_12580" cx="0" cy="0" r="1" gradientUnits="userSpaceOnUse" gradientTransform="translate(117.868 3.84305) scale(20.5702 20.5703)">
<stop stop-color="#9DD5F6"/>
<stop offset="0.07" stop-color="#98D3F5"/>
<stop offset="0.16" stop-color="#89CEF3"/>
<stop offset="0.25" stop-color="#70C6EF"/>
<stop offset="0.35" stop-color="#4EBBEA"/>
<stop offset="0.45" stop-color="#23ADE3"/>
<stop offset="0.5" stop-color="#0DA6E0"/>
<stop offset="1" stop-color="#2E77BC"/>
</radialGradient>
<clipPath id="clip0_2_12580">
<rect width="34.396" height="22" fill="white" transform="translate(75)"/>
</clipPath>
<clipPath id="clip1_2_12580">
<rect width="22.0505" height="22" fill="white" transform="translate(114)"/>
</clipPath>
</defs>
</svg>
