<svg width="61" height="16" viewBox="0 0 61 16" fill="none" xmlns="http://www.w3.org/2000/svg">
<path d="M17.868 13L15.06 4.36H16.362L18.756 11.734L21.18 4.36H22.482L19.674 13H17.868ZM25.546 13.18C24.902 13.18 24.336 13.04 23.848 12.76C23.364 12.476 22.986 12.082 22.714 11.578C22.446 11.07 22.312 10.482 22.312 9.814C22.312 9.106 22.444 8.492 22.708 7.972C22.976 7.452 23.348 7.05 23.824 6.766C24.3 6.482 24.854 6.34 25.486 6.34C26.146 6.34 26.708 6.494 27.172 6.802C27.636 7.106 27.982 7.54 28.21 8.104C28.442 8.668 28.534 9.338 28.486 10.114H27.232V9.658C27.224 8.906 27.08 8.35 26.8 7.99C26.524 7.63 26.102 7.45 25.534 7.45C24.906 7.45 24.434 7.648 24.118 8.044C23.802 8.44 23.644 9.012 23.644 9.76C23.644 10.472 23.802 11.024 24.118 11.416C24.434 11.804 24.89 11.998 25.486 11.998C25.878 11.998 26.216 11.91 26.5 11.734C26.788 11.554 27.012 11.298 27.172 10.966L28.402 11.356C28.15 11.936 27.768 12.386 27.256 12.706C26.744 13.022 26.174 13.18 25.546 13.18ZM23.236 10.114V9.136H27.862V10.114H23.236ZM29.8322 13V6.52H30.9482V8.092L30.7922 7.888C30.8722 7.68 30.9762 7.49 31.1042 7.318C31.2322 7.142 31.3802 6.998 31.5482 6.886C31.7122 6.766 31.8942 6.674 32.0942 6.61C32.2982 6.542 32.5062 6.502 32.7182 6.49C32.9302 6.474 33.1342 6.484 33.3302 6.52V7.696C33.1182 7.64 32.8822 7.624 32.6222 7.648C32.3662 7.672 32.1302 7.754 31.9142 7.894C31.7102 8.026 31.5482 8.186 31.4282 8.374C31.3122 8.562 31.2282 8.772 31.1762 9.004C31.1242 9.232 31.0982 9.474 31.0982 9.73V13H29.8322ZM34.5928 5.458V4.24H35.8468V5.458H34.5928ZM34.5928 13V6.52H35.8468V13H34.5928ZM38.2426 13V6.292C38.2426 6.128 38.2486 5.954 38.2606 5.77C38.2726 5.582 38.3066 5.398 38.3626 5.218C38.4226 5.034 38.5206 4.866 38.6566 4.714C38.8206 4.534 39.0006 4.406 39.1966 4.33C39.3926 4.254 39.5866 4.21 39.7786 4.198C39.9746 4.186 40.1546 4.18 40.3186 4.18H41.1346V5.212H40.3786C40.0826 5.212 39.8606 5.286 39.7126 5.434C39.5686 5.578 39.4966 5.784 39.4966 6.052V13H38.2426ZM37.1686 7.528V6.52H41.1346V7.528H37.1686ZM42.3946 5.458V4.24H43.6486V5.458H42.3946ZM42.3946 13V6.52H43.6486V13H42.3946ZM48.3273 13.18C47.6833 13.18 47.1173 13.04 46.6293 12.76C46.1453 12.476 45.7673 12.082 45.4953 11.578C45.2273 11.07 45.0933 10.482 45.0933 9.814C45.0933 9.106 45.2253 8.492 45.4893 7.972C45.7573 7.452 46.1293 7.05 46.6053 6.766C47.0813 6.482 47.6353 6.34 48.2673 6.34C48.9273 6.34 49.4893 6.494 49.9533 6.802C50.4173 7.106 50.7633 7.54 50.9913 8.104C51.2233 8.668 51.3153 9.338 51.2673 10.114H50.0133V9.658C50.0053 8.906 49.8613 8.35 49.5813 7.99C49.3053 7.63 48.8833 7.45 48.3153 7.45C47.6873 7.45 47.2153 7.648 46.8993 8.044C46.5833 8.44 46.4253 9.012 46.4253 9.76C46.4253 10.472 46.5833 11.024 46.8993 11.416C47.2153 11.804 47.6713 11.998 48.2673 11.998C48.6593 11.998 48.9973 11.91 49.2813 11.734C49.5693 11.554 49.7933 11.298 49.9533 10.966L51.1833 11.356C50.9313 11.936 50.5493 12.386 50.0373 12.706C49.5253 13.022 48.9553 13.18 48.3273 13.18ZM46.0173 10.114V9.136H50.6433V10.114H46.0173ZM55.1874 13.18C54.5834 13.18 54.0614 13.03 53.6214 12.73C53.1854 12.43 52.8474 12.022 52.6074 11.506C52.3714 10.986 52.2534 10.402 52.2534 9.754C52.2534 9.102 52.3734 8.52 52.6134 8.008C52.8534 7.492 53.1934 7.086 53.6334 6.79C54.0774 6.49 54.6034 6.34 55.2114 6.34C55.8234 6.34 56.3374 6.49 56.7534 6.79C57.1734 7.086 57.4894 7.492 57.7014 8.008C57.9174 8.524 58.0254 9.106 58.0254 9.754C58.0254 10.402 57.9174 10.984 57.7014 11.5C57.4854 12.016 57.1674 12.426 56.7474 12.73C56.3274 13.03 55.8074 13.18 55.1874 13.18ZM55.3614 12.046C55.7734 12.046 56.1094 11.948 56.3694 11.752C56.6294 11.556 56.8194 11.286 56.9394 10.942C57.0594 10.598 57.1194 10.202 57.1194 9.754C57.1194 9.306 57.0574 8.91 56.9334 8.566C56.8134 8.222 56.6254 7.954 56.3694 7.762C56.1174 7.57 55.7954 7.474 55.4034 7.474C54.9874 7.474 54.6454 7.576 54.3774 7.78C54.1094 7.984 53.9094 8.258 53.7774 8.602C53.6494 8.946 53.5854 9.33 53.5854 9.754C53.5854 10.182 53.6494 10.57 53.7774 10.918C53.9094 11.262 54.1054 11.536 54.3654 11.74C54.6294 11.944 54.9614 12.046 55.3614 12.046ZM57.1194 13V8.338H56.9754V4.36H58.2354V13H57.1194Z" fill="#E71583"/>
<path d="M9.99738 6.04233C9.99738 6.50809 9.99894 6.9741 9.99712 7.43986C9.99034 9.04204 9.47515 10.4737 8.48206 11.735C7.63576 12.8099 6.56107 13.5711 5.22878 13.9645C5.07365 14.0104 4.93208 14.0125 4.77643 13.9666C3.37088 13.5511 2.26098 12.7291 1.39408 11.5773C0.711776 10.6704 0.276371 9.65527 0.0930835 8.54166C0.0365069 8.19748 0.0104347 7.84534 0.00678464 7.49654C-0.00416567 6.42807 0.00443814 5.3596 5.87332e-06 4.29114C-0.00051557 4.19316 0.033639 4.15238 0.120459 4.11468C1.71086 3.42118 3.29996 2.72486 4.88854 2.02674C4.96519 1.99288 5.02802 1.99006 5.10676 2.02469C6.69899 2.72486 8.292 3.42272 9.88631 4.11853C9.96766 4.15392 10.0008 4.19342 9.99999 4.28575C9.99477 4.87128 9.99738 5.45681 9.99738 6.04233ZM3.88632 10.7019C5.35236 9.25671 6.82622 7.80405 8.292 6.35908C8.04484 6.11569 7.78828 5.86332 7.51896 5.59812C6.31442 6.78585 5.10103 7.98229 3.86886 9.19721C3.39538 8.72863 2.92296 8.26082 2.47191 7.81405C2.20858 8.06591 1.94942 8.31417 1.70304 8.54987C2.43228 9.26876 3.16465 9.99073 3.88632 10.7019Z" fill="#E71583"/>
</svg>
