<svg width="101" height="20" viewBox="0 0 101 20" fill="none" xmlns="http://www.w3.org/2000/svg">
<path d="M88.5629 2.12665H79.8097V17.8158H88.5629V2.12665Z" fill="#FF5F00"/>
<path d="M80.3653 9.96789C80.3661 8.45915 80.7088 6.97011 81.368 5.61219C82.0271 4.25426 82.9856 3.06262 84.1716 2.12642C82.9177 1.14529 81.4469 0.477334 79.8817 0.178196C78.3165 -0.120942 76.7024 -0.0425927 75.1737 0.406714C73.645 0.856021 72.2461 1.66327 71.0936 2.7612C69.9411 3.85912 69.0683 5.21592 68.548 6.71853C68.0277 8.22114 67.8749 9.82604 68.1024 11.3995C68.3299 12.9729 68.9311 14.4694 69.8559 15.7641C70.7806 17.0588 72.0022 18.1142 73.4187 18.8425C74.8353 19.5708 76.4058 19.9508 77.9995 19.9509C80.238 19.9524 82.4114 19.2 84.1678 17.8157C82.9792 16.8806 82.0192 15.6882 81.3604 14.3287C80.7017 12.9691 80.3614 11.4779 80.3653 9.96789Z" fill="#EB001B"/>
<path d="M100.372 9.96781C100.375 11.8397 99.8492 13.6745 98.8551 15.2621C97.861 16.8498 96.4388 18.1261 94.7514 18.945C93.064 19.7639 91.1796 20.0923 89.3138 19.8926C87.448 19.6928 85.6763 18.973 84.2015 17.8156C85.3886 16.8795 86.3479 15.6875 87.0074 14.3289C87.6669 12.9703 88.0095 11.4805 88.0095 9.97097C88.0095 8.46148 87.6669 6.97159 87.0074 5.613C86.3479 4.25442 85.3886 3.0624 84.2015 2.12633C85.6767 0.972299 87.4474 0.255173 89.3116 0.0567832C91.1757 -0.141607 93.0582 0.18673 94.7443 1.00433C96.4304 1.82193 97.8521 3.09585 98.8473 4.68075C99.8424 6.26565 100.371 8.09769 100.372 9.96781Z" fill="#F79E1B"/>
<path fill-rule="evenodd" clip-rule="evenodd" d="M7.6887 3C9.65151 3 11.4626 4.10983 11.2149 6.87736C10.9145 10.1646 9.22501 11.9835 6.55936 11.9913H4.23162C3.89672 11.9913 3.73454 12.2747 3.64743 12.8601L3.1969 15.8452C3.12932 16.296 2.90706 16.5199 2.57817 16.5199H0.411115C0.0657079 16.5199 -0.0544332 16.2882 0.0221571 15.7748L1.81077 3.80772C1.89937 3.21915 2.11112 3 2.49708 3H7.6887ZM4.15803 9.40539H5.92262C7.02642 9.36156 7.76078 8.5648 7.83437 7.12781C7.87942 6.24026 7.30424 5.60473 6.38966 5.60943L4.72721 5.61726L4.15803 9.40382V9.40539ZM17.1048 15.601C17.303 15.4147 17.5043 15.3161 17.4757 15.5478L17.4052 16.1019C17.3691 16.3915 17.4787 16.5465 17.7385 16.5465H19.6623C19.9867 16.5465 20.1444 16.4087 20.2255 15.8875L21.4119 8.12493C21.4704 7.73516 21.3803 7.54419 21.0965 7.54419H18.979C18.7883 7.54419 18.6967 7.6569 18.6456 7.96058L18.5675 8.438C18.527 8.68689 18.4173 8.73072 18.3152 8.4787C17.9563 7.59272 17.0402 7.19512 15.7622 7.22643C12.7917 7.28904 10.7899 9.63862 10.5766 12.6519C10.4099 14.9811 12.0123 16.811 14.1238 16.811C15.6541 16.811 16.3404 16.3414 17.1108 15.6041L17.1048 15.601ZM15.4934 14.4067C14.2154 14.4067 13.3248 13.3438 13.5111 12.0414C13.6973 10.7391 14.8912 9.67619 16.1692 9.67619C17.4472 9.67619 18.3378 10.7375 18.153 12.0414C17.9683 13.3454 16.7729 14.4067 15.4934 14.4067ZM25.1813 7.51915H23.2365C22.8326 7.51915 22.6689 7.83221 22.798 8.21729L25.2219 15.6167L22.8356 19.1356C22.6373 19.4283 22.7905 19.6975 23.0713 19.6975H25.2654C25.3935 19.7129 25.5231 19.6896 25.6389 19.6305C25.7547 19.5714 25.8518 19.479 25.9187 19.3641L33.372 8.21729C33.6017 7.87448 33.4936 7.51602 33.1167 7.51445H31.0397C30.6838 7.51445 30.5411 7.66003 30.3369 7.96997L27.2267 12.666L25.8391 7.96058C25.758 7.67568 25.5553 7.51915 25.1813 7.51915Z" fill="#113984"/>
<path fill-rule="evenodd" clip-rule="evenodd" d="M41.1267 3C43.091 3 44.9021 4.10983 44.6528 6.87736C44.36 10.1646 42.663 11.9835 39.9973 11.9913H37.6696C37.3347 11.9913 37.1725 12.2747 37.0854 12.8601L36.6349 15.8452C36.5658 16.296 36.345 16.5199 36.0161 16.5199H33.8506C33.5052 16.5199 33.385 16.2882 33.4616 15.7748L35.2532 3.80772C35.3403 3.21915 35.5536 3 35.9395 3H41.1267ZM37.5975 9.40539H39.3621C40.4659 9.36156 41.2002 8.5648 41.2738 7.12781C41.3189 6.24026 40.7437 5.60473 39.8276 5.60943L38.1667 5.61726L37.5975 9.40382V9.40539ZM50.5443 15.601C50.7425 15.4147 50.9437 15.3161 50.9152 15.5478L50.8446 16.1019C50.8071 16.3915 50.9182 16.5465 51.1765 16.5465H53.1018C53.4262 16.5465 53.5839 16.4087 53.6634 15.8875L54.8498 8.12494C54.9099 7.73517 54.8198 7.54419 54.5345 7.54419H52.42C52.2292 7.54419 52.1361 7.6569 52.0866 7.96058L52.0085 8.438C51.9679 8.68689 51.8583 8.73073 51.7562 8.47871C51.3973 7.59272 50.4812 7.19512 49.1957 7.22643C46.2267 7.28904 44.2248 9.63863 44.0101 12.6519C43.8449 14.9811 45.4472 16.811 47.5572 16.811C49.089 16.811 49.7739 16.3414 50.5458 15.6042L50.5443 15.601ZM48.9329 14.4067C47.6549 14.4067 46.7643 13.3438 46.9505 12.0414C47.1367 10.7391 48.3307 9.67619 49.6087 9.67619C50.8867 9.67619 51.7772 10.7375 51.591 12.0414C51.4048 13.3454 50.2109 14.4067 48.9329 14.4067ZM57.8128 16.5574H55.5917C55.5522 16.5597 55.5127 16.5527 55.4761 16.5368C55.4396 16.5209 55.407 16.4967 55.3807 16.4658C55.3544 16.4349 55.3352 16.3983 55.3244 16.3586C55.3136 16.3189 55.3115 16.2772 55.3184 16.2366L57.2707 3.34437C57.2896 3.25652 57.3363 3.17785 57.4033 3.12106C57.4704 3.06426 57.5538 3.03264 57.6401 3.0313H59.8628C59.9015 3.02922 59.9402 3.03614 59.976 3.05158C60.0119 3.06701 60.044 3.09057 60.07 3.12055C60.096 3.15052 60.1153 3.18616 60.1265 3.22487C60.1377 3.26359 60.1404 3.30441 60.1346 3.34437L58.1823 16.2366C58.1657 16.3266 58.12 16.4079 58.0527 16.4669C57.9854 16.5259 57.9007 16.559 57.8128 16.5606V16.5574Z" fill="#009EE3"/>
</svg>
