<svg width="13" height="11" viewBox="0 0 13 11" fill="none" xmlns="http://www.w3.org/2000/svg">
<path d="M0.649875 6.05005H1.29989V9.90001C1.29989 10.5067 1.88295 11 2.59992 11H10.4001C11.117 11 11.7001 10.5067 11.7001 9.90001V6.05005H12.3501C12.4787 6.05003 12.6043 6.01776 12.7112 5.95732C12.818 5.89689 12.9013 5.811 12.9505 5.71051C12.9997 5.61003 13.0126 5.49946 12.9875 5.39279C12.9624 5.28612 12.9006 5.18813 12.8097 5.11121L6.95956 0.161259C6.89925 0.110139 6.82761 0.0695839 6.74876 0.0419133C6.6699 0.0142427 6.58537 0 6.5 0C6.41463 0 6.3301 0.0142427 6.25125 0.0419133C6.17239 0.0695839 6.10075 0.110139 6.04044 0.161259L0.190316 5.11121C0.0994375 5.18813 0.037552 5.28612 0.0124825 5.39279C-0.0125869 5.49946 0.000285326 5.61003 0.0494719 5.71051C0.0986585 5.811 0.181951 5.89689 0.28882 5.95732C0.395688 6.01776 0.521335 6.05003 0.649875 6.05005ZM5.19997 9.90001V7.15004H7.80003V9.90001H5.19997ZM6.5 1.3278L10.4001 4.62776V7.15004L10.4007 9.90001H9.10006V7.15004C9.10006 6.5434 8.51699 6.05005 7.80003 6.05005H5.19997C4.48301 6.05005 3.89994 6.5434 3.89994 7.15004V9.90001H2.59992V4.62776L6.5 1.3278Z" fill="#3C3C3F"/>
</svg>
