<svg width="9" height="11" viewBox="0 0 9 11" fill="none" xmlns="http://www.w3.org/2000/svg">
<path d="M8.25 4.8125H7.5V2.75C7.5 1.2375 6.15 0 4.5 0C2.85 0 1.5 1.2375 1.5 2.75V4.8125H0.75C0.375 4.8125 0 5.15625 0 5.5V10.3125C0 10.6562 0.375 11 0.75 11H8.25C8.625 11 9 10.6562 9 10.3125V5.5C9 5.15625 8.625 4.8125 8.25 4.8125ZM5.25 9.625H3.75L4.05 8.1125C3.675 7.975 3.375 7.5625 3.375 7.21875C3.375 6.66875 3.9 6.1875 4.5 6.1875C5.1 6.1875 5.625 6.66875 5.625 7.21875C5.625 7.63125 5.4 7.975 4.95 8.1125L5.25 9.625ZM6 4.8125H3V2.75C3 1.99375 3.675 1.375 4.5 1.375C5.325 1.375 6 1.99375 6 2.75V4.8125Z" fill="#7A7A7A"/>
</svg>
