<svg width="317" height="25" viewBox="0 0 317 25" fill="none" xmlns="http://www.w3.org/2000/svg">
<path d="M0.7 8V0.8H3.48C3.88333 0.8 4.235 0.883333 4.535 1.05C4.835 1.21667 5.06833 1.44167 5.235 1.725C5.40167 2.005 5.485 2.315 5.485 2.655C5.485 3.04167 5.38167 3.38667 5.175 3.69C4.96833 3.99 4.69167 4.19833 4.345 4.315L4.335 4.07C4.80167 4.20333 5.16833 4.43667 5.435 4.77C5.70167 5.10333 5.835 5.50667 5.835 5.98C5.835 6.39667 5.74667 6.75667 5.57 7.06C5.39333 7.36 5.145 7.59167 4.825 7.755C4.505 7.91833 4.13333 8 3.71 8H0.7ZM1.44 7.295H3.53C3.82333 7.295 4.08667 7.24333 4.32 7.14C4.55333 7.03333 4.73667 6.88333 4.87 6.69C5.00667 6.49667 5.075 6.26333 5.075 5.99C5.075 5.72333 5.01333 5.48333 4.89 5.27C4.76667 5.05667 4.59833 4.88667 4.385 4.76C4.175 4.63 3.935 4.565 3.665 4.565H1.44V7.295ZM1.44 3.87H3.475C3.705 3.87 3.915 3.81833 4.105 3.715C4.295 3.60833 4.445 3.46333 4.555 3.28C4.66833 3.09667 4.725 2.885 4.725 2.645C4.725 2.305 4.60667 2.02833 4.37 1.815C4.13667 1.60167 3.83833 1.495 3.475 1.495H1.44V3.87ZM7.60281 10.4L8.64781 7.565L8.66281 8.405L6.29781 2.6H7.07781L9.01781 7.455H8.69781L10.4878 2.6H11.2378L8.33781 10.4H7.60281ZM16.3482 8.15C15.8049 8.15 15.3449 8.02833 14.9682 7.785C14.5915 7.54167 14.3049 7.20667 14.1082 6.78C13.9149 6.35 13.8149 5.85667 13.8082 5.3C13.8149 4.73333 13.9182 4.23667 14.1182 3.81C14.3182 3.38 14.6065 3.04667 14.9832 2.81C15.3599 2.57 15.8165 2.45 16.3532 2.45C16.8999 2.45 17.3749 2.58333 17.7782 2.85C18.1849 3.11667 18.4632 3.48167 18.6132 3.945L17.8932 4.175C17.7665 3.85167 17.5649 3.60167 17.2882 3.425C17.0149 3.245 16.7015 3.155 16.3482 3.155C15.9515 3.155 15.6232 3.24667 15.3632 3.43C15.1032 3.61 14.9099 3.86167 14.7832 4.185C14.6565 4.50833 14.5915 4.88 14.5882 5.3C14.5949 5.94667 14.7449 6.46667 15.0382 6.86C15.3315 7.25 15.7682 7.445 16.3482 7.445C16.7149 7.445 17.0265 7.36167 17.2832 7.195C17.5432 7.025 17.7399 6.77833 17.8732 6.455L18.6132 6.675C18.4132 7.155 18.1199 7.52167 17.7332 7.775C17.3465 8.025 16.8849 8.15 16.3482 8.15ZM19.5988 8V0.65H20.3338V8H19.5988ZM21.9328 1.575V0.75H22.6678V1.575H21.9328ZM21.9328 8V2.6H22.6678V8H21.9328ZM26.4068 8.15C25.8635 8.15 25.4035 8.02833 25.0268 7.785C24.6501 7.54167 24.3635 7.20667 24.1668 6.78C23.9735 6.35 23.8735 5.85667 23.8668 5.3C23.8735 4.73333 23.9768 4.23667 24.1768 3.81C24.3768 3.38 24.6651 3.04667 25.0418 2.81C25.4185 2.57 25.8751 2.45 26.4118 2.45C26.9585 2.45 27.4335 2.58333 27.8368 2.85C28.2435 3.11667 28.5218 3.48167 28.6718 3.945L27.9518 4.175C27.8251 3.85167 27.6235 3.60167 27.3468 3.425C27.0735 3.245 26.7601 3.155 26.4068 3.155C26.0101 3.155 25.6818 3.24667 25.4218 3.43C25.1618 3.61 24.9685 3.86167 24.8418 4.185C24.7151 4.50833 24.6501 4.88 24.6468 5.3C24.6535 5.94667 24.8035 6.46667 25.0968 6.86C25.3901 7.25 25.8268 7.445 26.4068 7.445C26.7735 7.445 27.0851 7.36167 27.3418 7.195C27.6018 7.025 27.7985 6.77833 27.9318 6.455L28.6718 6.675C28.4718 7.155 28.1785 7.52167 27.7918 7.775C27.4051 8.025 26.9435 8.15 26.4068 8.15ZM29.6989 8L29.7039 0.8H30.4439V5.2L32.8539 2.6H33.8339L31.3039 5.3L34.1639 8H33.0939L30.4439 5.4V8H29.6989ZM34.7648 1.575V0.75H35.4998V1.575H34.7648ZM34.7648 8V2.6H35.4998V8H34.7648ZM40.8988 8V5.245C40.8988 4.945 40.8705 4.67 40.8138 4.42C40.7572 4.16667 40.6655 3.94667 40.5388 3.76C40.4155 3.57 40.2538 3.42333 40.0538 3.32C39.8572 3.21667 39.6172 3.165 39.3338 3.165C39.0738 3.165 38.8438 3.21 38.6438 3.3C38.4472 3.39 38.2805 3.52 38.1438 3.69C38.0105 3.85667 37.9088 4.06 37.8388 4.3C37.7688 4.54 37.7338 4.81333 37.7338 5.12L37.2138 5.005C37.2138 4.45167 37.3105 3.98667 37.5038 3.61C37.6972 3.23333 37.9638 2.94833 38.3038 2.755C38.6438 2.56167 39.0338 2.465 39.4738 2.465C39.7972 2.465 40.0788 2.515 40.3188 2.615C40.5622 2.715 40.7672 2.85 40.9338 3.02C41.1038 3.19 41.2405 3.385 41.3438 3.605C41.4472 3.82167 41.5222 4.05333 41.5688 4.3C41.6155 4.54333 41.6388 4.78667 41.6388 5.03V8H40.8988ZM36.9938 8V2.6H37.6588V3.93H37.7338V8H36.9938ZM45.0813 10.55C44.8047 10.55 44.5313 10.5083 44.2613 10.425C43.9947 10.345 43.748 10.2167 43.5213 10.04C43.2947 9.86667 43.1047 9.64 42.9513 9.36L43.6163 8.99C43.7663 9.29 43.9763 9.505 44.2463 9.635C44.5197 9.76833 44.798 9.835 45.0813 9.835C45.4713 9.835 45.7863 9.76167 46.0263 9.615C46.2697 9.47167 46.4463 9.25833 46.5563 8.975C46.6663 8.69167 46.7197 8.33833 46.7163 7.915V6.475H46.8013V2.6H47.4563V7.925C47.4563 8.07833 47.4513 8.225 47.4413 8.365C47.4347 8.50833 47.4197 8.64833 47.3963 8.785C47.333 9.18833 47.2013 9.52 47.0013 9.78C46.8047 10.04 46.5447 10.2333 46.2213 10.36C45.9013 10.4867 45.5213 10.55 45.0813 10.55ZM45.0313 8.15C44.528 8.15 44.098 8.025 43.7413 7.775C43.3847 7.52167 43.1113 7.18 42.9213 6.75C42.7313 6.32 42.6363 5.835 42.6363 5.295C42.6363 4.75833 42.7297 4.275 42.9163 3.845C43.1063 3.415 43.378 3.075 43.7313 2.825C44.0847 2.575 44.508 2.45 45.0013 2.45C45.508 2.45 45.9347 2.57333 46.2813 2.82C46.628 3.06667 46.8897 3.405 47.0663 3.835C47.2463 4.26167 47.3363 4.74833 47.3363 5.295C47.3363 5.83167 47.248 6.31667 47.0713 6.75C46.8947 7.18 46.6347 7.52167 46.2913 7.775C45.948 8.025 45.528 8.15 45.0313 8.15ZM45.1063 7.465C45.4897 7.465 45.8063 7.37167 46.0563 7.185C46.3063 6.99833 46.493 6.74167 46.6163 6.415C46.7397 6.085 46.8013 5.71167 46.8013 5.295C46.8013 4.87167 46.7397 4.49833 46.6163 4.175C46.493 3.84833 46.3063 3.59333 46.0563 3.41C45.8097 3.22667 45.498 3.135 45.1213 3.135C44.7347 3.135 44.4147 3.23 44.1613 3.42C43.908 3.61 43.7197 3.86833 43.5963 4.195C43.4763 4.52167 43.4163 4.88833 43.4163 5.295C43.4163 5.705 43.478 6.075 43.6013 6.405C43.728 6.73167 43.9163 6.99 44.1663 7.18C44.4163 7.37 44.7297 7.465 45.1063 7.465ZM50.8563 8V0.8H53.6363C53.7063 0.8 53.7846 0.803333 53.8713 0.81C53.9613 0.813333 54.0513 0.823333 54.1413 0.84C54.5179 0.896666 54.8363 1.02833 55.0963 1.235C55.3596 1.43833 55.5579 1.695 55.6912 2.005C55.8279 2.315 55.8963 2.65833 55.8963 3.035C55.8963 3.40833 55.8279 3.75 55.6912 4.06C55.5546 4.37 55.3546 4.62833 55.0913 4.835C54.8313 5.03833 54.5146 5.16833 54.1413 5.225C54.0513 5.23833 53.9613 5.24833 53.8713 5.255C53.7846 5.26167 53.7063 5.265 53.6363 5.265H51.5913V8H50.8563ZM51.5913 4.565H53.6163C53.6763 4.565 53.7463 4.56167 53.8263 4.555C53.9063 4.54833 53.9846 4.53667 54.0613 4.52C54.3079 4.46667 54.5096 4.365 54.6663 4.215C54.8263 4.065 54.9446 3.88667 55.0213 3.68C55.1013 3.47333 55.1413 3.25833 55.1413 3.035C55.1413 2.81167 55.1013 2.59667 55.0213 2.39C54.9446 2.18 54.8263 2 54.6663 1.85C54.5096 1.7 54.3079 1.59833 54.0613 1.545C53.9846 1.52833 53.9063 1.51833 53.8263 1.515C53.7463 1.50833 53.6763 1.505 53.6163 1.505H51.5913V4.565ZM58.202 8.15C57.7954 8.15 57.4537 8.07667 57.177 7.93C56.9037 7.78333 56.6987 7.58833 56.562 7.345C56.4254 7.10167 56.357 6.83667 56.357 6.55C56.357 6.25667 56.4154 6.00667 56.532 5.8C56.652 5.59 56.8137 5.41833 57.017 5.285C57.2237 5.15167 57.462 5.05 57.732 4.98C58.0054 4.91333 58.307 4.855 58.637 4.805C58.9704 4.75167 59.2954 4.70667 59.612 4.67C59.932 4.63 60.212 4.59167 60.452 4.555L60.192 4.715C60.202 4.18167 60.0987 3.78667 59.882 3.53C59.6654 3.27333 59.2887 3.145 58.752 3.145C58.382 3.145 58.0687 3.22833 57.812 3.395C57.5587 3.56167 57.3804 3.825 57.277 4.185L56.562 3.975C56.6854 3.49167 56.9337 3.11667 57.307 2.85C57.6804 2.58333 58.1654 2.45 58.762 2.45C59.2554 2.45 59.6737 2.54333 60.017 2.73C60.3637 2.91333 60.6087 3.18 60.752 3.53C60.8187 3.68667 60.862 3.86167 60.882 4.055C60.902 4.24833 60.912 4.445 60.912 4.645V8H60.257V6.645L60.447 6.725C60.2637 7.18833 59.9787 7.54167 59.592 7.785C59.2054 8.02833 58.742 8.15 58.202 8.15ZM58.287 7.515C58.6304 7.515 58.9304 7.45333 59.187 7.33C59.4437 7.20667 59.6504 7.03833 59.807 6.825C59.9637 6.60833 60.0654 6.365 60.112 6.095C60.152 5.92167 60.1737 5.73167 60.177 5.525C60.1804 5.315 60.182 5.15833 60.182 5.055L60.462 5.2C60.212 5.23333 59.9404 5.26667 59.647 5.3C59.357 5.33333 59.0704 5.37167 58.787 5.415C58.507 5.45833 58.2537 5.51 58.027 5.57C57.8737 5.61333 57.7254 5.675 57.582 5.755C57.4387 5.83167 57.3204 5.935 57.227 6.065C57.137 6.195 57.092 6.35667 57.092 6.55C57.092 6.70667 57.1304 6.85833 57.207 7.005C57.287 7.15167 57.4137 7.27333 57.587 7.37C57.7637 7.46667 57.997 7.515 58.287 7.515ZM62.6809 10.4L63.7259 7.565L63.7409 8.405L61.3759 2.6H62.1559L64.0959 7.455H63.7759L65.5659 2.6H66.3159L63.4159 10.4H62.6809ZM66.2836 9.045L66.3286 8.68C66.4619 8.69 66.5586 8.66333 66.6186 8.6C66.6786 8.53667 66.7153 8.45167 66.7286 8.345C66.7419 8.23833 66.7453 8.12333 66.7386 8H66.2836V6.945H67.1386V8.2C67.1386 8.50667 67.0603 8.73667 66.9036 8.89C66.7503 9.04333 66.5436 9.095 66.2836 9.045ZM71.8118 10.4L72.8568 7.565L72.8718 8.405L70.5068 2.6H71.2868L73.2268 7.455H72.9068L74.6968 2.6H75.4468L72.5468 10.4H71.8118ZM78.3749 8.15C77.8383 8.15 77.3799 8.02833 76.9999 7.785C76.6199 7.54167 76.3283 7.205 76.1249 6.775C75.9216 6.345 75.8199 5.85167 75.8199 5.295C75.8199 4.72833 75.9233 4.23167 76.1299 3.805C76.3366 3.37833 76.6299 3.04667 77.0099 2.81C77.3933 2.57 77.8483 2.45 78.3749 2.45C78.9149 2.45 79.3749 2.57167 79.7549 2.815C80.1383 3.055 80.4299 3.39 80.6299 3.82C80.8333 4.24667 80.9349 4.73833 80.9349 5.295C80.9349 5.86167 80.8333 6.36 80.6299 6.79C80.4266 7.21667 80.1333 7.55 79.7499 7.79C79.3666 8.03 78.9083 8.15 78.3749 8.15ZM78.3749 7.445C78.9749 7.445 79.4216 7.24667 79.7149 6.85C80.0083 6.45 80.1549 5.93167 80.1549 5.295C80.1549 4.64167 80.0066 4.12167 79.7099 3.735C79.4166 3.34833 78.9716 3.155 78.3749 3.155C77.9716 3.155 77.6383 3.24667 77.3749 3.43C77.1149 3.61 76.9199 3.86167 76.7899 4.185C76.6633 4.505 76.5999 4.875 76.5999 5.295C76.5999 5.945 76.7499 6.46667 77.0499 6.86C77.3499 7.25 77.7916 7.445 78.3749 7.445ZM84.1029 8.135C83.7796 8.135 83.4962 8.085 83.2529 7.985C83.0129 7.885 82.8079 7.75 82.6379 7.58C82.4712 7.41 82.3362 7.21667 82.2329 7C82.1296 6.78 82.0546 6.54833 82.0079 6.305C81.9612 6.05833 81.9379 5.81333 81.9379 5.57V2.6H82.6779V5.355C82.6779 5.65167 82.7062 5.92667 82.7629 6.18C82.8196 6.43333 82.9096 6.655 83.0329 6.845C83.1596 7.03167 83.3212 7.17667 83.5179 7.28C83.7179 7.38333 83.9596 7.435 84.2429 7.435C84.5029 7.435 84.7312 7.39 84.9279 7.3C85.1279 7.21 85.2946 7.08167 85.4279 6.915C85.5646 6.745 85.6679 6.54 85.7379 6.3C85.8079 6.05667 85.8429 5.78333 85.8429 5.48L86.3629 5.595C86.3629 6.14833 86.2662 6.61333 86.0729 6.99C85.8796 7.36667 85.6129 7.65167 85.2729 7.845C84.9329 8.03833 84.5429 8.135 84.1029 8.135ZM85.9179 8V6.67H85.8429V2.6H86.5779V8H85.9179ZM91.5223 8.15C91.1157 8.15 90.774 8.07667 90.4973 7.93C90.224 7.78333 90.019 7.58833 89.8823 7.345C89.7457 7.10167 89.6773 6.83667 89.6773 6.55C89.6773 6.25667 89.7357 6.00667 89.8523 5.8C89.9723 5.59 90.134 5.41833 90.3373 5.285C90.544 5.15167 90.7823 5.05 91.0523 4.98C91.3257 4.91333 91.6273 4.855 91.9573 4.805C92.2907 4.75167 92.6157 4.70667 92.9323 4.67C93.2523 4.63 93.5323 4.59167 93.7723 4.555L93.5123 4.715C93.5223 4.18167 93.419 3.78667 93.2023 3.53C92.9857 3.27333 92.609 3.145 92.0723 3.145C91.7023 3.145 91.389 3.22833 91.1323 3.395C90.879 3.56167 90.7007 3.825 90.5973 4.185L89.8823 3.975C90.0057 3.49167 90.254 3.11667 90.6273 2.85C91.0007 2.58333 91.4857 2.45 92.0823 2.45C92.5757 2.45 92.994 2.54333 93.3373 2.73C93.684 2.91333 93.929 3.18 94.0723 3.53C94.139 3.68667 94.1823 3.86167 94.2023 4.055C94.2223 4.24833 94.2323 4.445 94.2323 4.645V8H93.5773V6.645L93.7673 6.725C93.584 7.18833 93.299 7.54167 92.9123 7.785C92.5257 8.02833 92.0623 8.15 91.5223 8.15ZM91.6073 7.515C91.9507 7.515 92.2507 7.45333 92.5073 7.33C92.764 7.20667 92.9707 7.03833 93.1273 6.825C93.284 6.60833 93.3857 6.365 93.4323 6.095C93.4723 5.92167 93.494 5.73167 93.4973 5.525C93.5007 5.315 93.5023 5.15833 93.5023 5.055L93.7823 5.2C93.5323 5.23333 93.2607 5.26667 92.9673 5.3C92.6773 5.33333 92.3907 5.37167 92.1073 5.415C91.8273 5.45833 91.574 5.51 91.3473 5.57C91.194 5.61333 91.0457 5.675 90.9023 5.755C90.759 5.83167 90.6407 5.935 90.5473 6.065C90.4573 6.195 90.4123 6.35667 90.4123 6.55C90.4123 6.70667 90.4507 6.85833 90.5273 7.005C90.6073 7.15167 90.734 7.27333 90.9073 7.37C91.084 7.46667 91.3173 7.515 91.6073 7.515ZM97.679 10.55C97.4023 10.55 97.129 10.5083 96.859 10.425C96.5923 10.345 96.3457 10.2167 96.119 10.04C95.8923 9.86667 95.7023 9.64 95.549 9.36L96.214 8.99C96.364 9.29 96.574 9.505 96.844 9.635C97.1173 9.76833 97.3957 9.835 97.679 9.835C98.069 9.835 98.384 9.76167 98.624 9.615C98.8673 9.47167 99.044 9.25833 99.154 8.975C99.264 8.69167 99.3173 8.33833 99.314 7.915V6.475H99.399V2.6H100.054V7.925C100.054 8.07833 100.049 8.225 100.039 8.365C100.032 8.50833 100.017 8.64833 99.994 8.785C99.9307 9.18833 99.799 9.52 99.599 9.78C99.4023 10.04 99.1423 10.2333 98.819 10.36C98.499 10.4867 98.119 10.55 97.679 10.55ZM97.629 8.15C97.1257 8.15 96.6957 8.025 96.339 7.775C95.9823 7.52167 95.709 7.18 95.519 6.75C95.329 6.32 95.234 5.835 95.234 5.295C95.234 4.75833 95.3273 4.275 95.514 3.845C95.704 3.415 95.9757 3.075 96.329 2.825C96.6823 2.575 97.1057 2.45 97.599 2.45C98.1057 2.45 98.5323 2.57333 98.879 2.82C99.2257 3.06667 99.4873 3.405 99.664 3.835C99.844 4.26167 99.934 4.74833 99.934 5.295C99.934 5.83167 99.8457 6.31667 99.669 6.75C99.4923 7.18 99.2323 7.52167 98.889 7.775C98.5457 8.025 98.1257 8.15 97.629 8.15ZM97.704 7.465C98.0873 7.465 98.404 7.37167 98.654 7.185C98.904 6.99833 99.0907 6.74167 99.214 6.415C99.3373 6.085 99.399 5.71167 99.399 5.295C99.399 4.87167 99.3373 4.49833 99.214 4.175C99.0907 3.84833 98.904 3.59333 98.654 3.41C98.4073 3.22667 98.0957 3.135 97.719 3.135C97.3323 3.135 97.0123 3.23 96.759 3.42C96.5057 3.61 96.3173 3.86833 96.194 4.195C96.074 4.52167 96.014 4.88833 96.014 5.295C96.014 5.705 96.0757 6.075 96.199 6.405C96.3257 6.73167 96.514 6.99 96.764 7.18C97.014 7.37 97.3273 7.465 97.704 7.465ZM101.452 8V2.6H102.112V3.9L101.982 3.73C102.042 3.57 102.12 3.42333 102.217 3.29C102.314 3.15333 102.419 3.04167 102.532 2.955C102.672 2.83167 102.835 2.73833 103.022 2.675C103.209 2.60833 103.397 2.57 103.587 2.56C103.777 2.54667 103.95 2.56 104.107 2.6V3.29C103.91 3.24 103.695 3.22833 103.462 3.255C103.229 3.28167 103.014 3.375 102.817 3.535C102.637 3.675 102.502 3.84333 102.412 4.04C102.322 4.23333 102.262 4.44 102.232 4.66C102.202 4.87667 102.187 5.09167 102.187 5.305V8H101.452ZM107.243 8.15C106.716 8.15 106.259 8.03333 105.873 7.8C105.489 7.56667 105.191 7.23833 104.978 6.815C104.764 6.39167 104.658 5.895 104.658 5.325C104.658 4.735 104.763 4.225 104.973 3.795C105.183 3.365 105.478 3.03333 105.858 2.8C106.241 2.56667 106.693 2.45 107.213 2.45C107.746 2.45 108.201 2.57333 108.578 2.82C108.954 3.06333 109.239 3.41333 109.433 3.87C109.626 4.32667 109.714 4.87167 109.698 5.505H108.948V5.245C108.934 4.545 108.783 4.01667 108.493 3.66C108.206 3.30333 107.786 3.125 107.233 3.125C106.653 3.125 106.208 3.31333 105.898 3.69C105.591 4.06667 105.438 4.60333 105.438 5.3C105.438 5.98 105.591 6.50833 105.898 6.885C106.208 7.25833 106.646 7.445 107.213 7.445C107.599 7.445 107.936 7.35667 108.223 7.18C108.513 7 108.741 6.74167 108.908 6.405L109.593 6.67C109.379 7.14 109.064 7.505 108.648 7.765C108.234 8.02167 107.766 8.15 107.243 8.15ZM105.178 5.505V4.89H109.303V5.505H105.178ZM113.092 8.15C112.566 8.15 112.109 8.03333 111.722 7.8C111.339 7.56667 111.041 7.23833 110.827 6.815C110.614 6.39167 110.507 5.895 110.507 5.325C110.507 4.735 110.612 4.225 110.822 3.795C111.032 3.365 111.327 3.03333 111.707 2.8C112.091 2.56667 112.542 2.45 113.062 2.45C113.596 2.45 114.051 2.57333 114.427 2.82C114.804 3.06333 115.089 3.41333 115.282 3.87C115.476 4.32667 115.564 4.87167 115.547 5.505H114.797V5.245C114.784 4.545 114.632 4.01667 114.342 3.66C114.056 3.30333 113.636 3.125 113.082 3.125C112.502 3.125 112.057 3.31333 111.747 3.69C111.441 4.06667 111.287 4.60333 111.287 5.3C111.287 5.98 111.441 6.50833 111.747 6.885C112.057 7.25833 112.496 7.445 113.062 7.445C113.449 7.445 113.786 7.35667 114.072 7.18C114.362 7 114.591 6.74167 114.757 6.405L115.442 6.67C115.229 7.14 114.914 7.505 114.497 7.765C114.084 8.02167 113.616 8.15 113.092 8.15ZM111.027 5.505V4.89H115.152V5.505H111.027ZM121.599 8C121.296 8.06333 120.996 8.08833 120.699 8.075C120.406 8.06167 120.142 7.99833 119.909 7.885C119.679 7.77167 119.504 7.595 119.384 7.355C119.287 7.155 119.234 6.95333 119.224 6.75C119.217 6.54333 119.214 6.30833 119.214 6.045V1.1H119.944V6.015C119.944 6.24167 119.946 6.43167 119.949 6.585C119.956 6.735 119.991 6.86833 120.054 6.985C120.174 7.20833 120.364 7.34167 120.624 7.385C120.887 7.42833 121.212 7.41833 121.599 7.355V8ZM118.059 3.23V2.6H121.599V3.23H118.059ZM124.723 8.15C124.186 8.15 123.728 8.02833 123.348 7.785C122.968 7.54167 122.676 7.205 122.473 6.775C122.269 6.345 122.168 5.85167 122.168 5.295C122.168 4.72833 122.271 4.23167 122.478 3.805C122.684 3.37833 122.978 3.04667 123.358 2.81C123.741 2.57 124.196 2.45 124.723 2.45C125.263 2.45 125.723 2.57167 126.103 2.815C126.486 3.055 126.778 3.39 126.978 3.82C127.181 4.24667 127.283 4.73833 127.283 5.295C127.283 5.86167 127.181 6.36 126.978 6.79C126.774 7.21667 126.481 7.55 126.098 7.79C125.714 8.03 125.256 8.15 124.723 8.15ZM124.723 7.445C125.323 7.445 125.769 7.24667 126.063 6.85C126.356 6.45 126.503 5.93167 126.503 5.295C126.503 4.64167 126.354 4.12167 126.058 3.735C125.764 3.34833 125.319 3.155 124.723 3.155C124.319 3.155 123.986 3.24667 123.723 3.43C123.463 3.61 123.268 3.86167 123.138 4.185C123.011 4.505 122.948 4.875 122.948 5.295C122.948 5.945 123.098 6.46667 123.398 6.86C123.698 7.25 124.139 7.445 124.723 7.445ZM132.627 8.15C132.084 8.15 131.624 8.02833 131.248 7.785C130.871 7.54167 130.584 7.20667 130.388 6.78C130.194 6.35 130.094 5.85667 130.088 5.3C130.094 4.73333 130.198 4.23667 130.398 3.81C130.598 3.38 130.886 3.04667 131.263 2.81C131.639 2.57 132.096 2.45 132.633 2.45C133.179 2.45 133.654 2.58333 134.058 2.85C134.464 3.11667 134.743 3.48167 134.893 3.945L134.173 4.175C134.046 3.85167 133.844 3.60167 133.568 3.425C133.294 3.245 132.981 3.155 132.627 3.155C132.231 3.155 131.903 3.24667 131.643 3.43C131.383 3.61 131.189 3.86167 131.063 4.185C130.936 4.50833 130.871 4.88 130.868 5.3C130.874 5.94667 131.024 6.46667 131.318 6.86C131.611 7.25 132.048 7.445 132.627 7.445C132.994 7.445 133.306 7.36167 133.563 7.195C133.823 7.025 134.019 6.77833 134.153 6.455L134.893 6.675C134.693 7.155 134.399 7.52167 134.013 7.775C133.626 8.025 133.164 8.15 132.627 8.15ZM135.925 8V2.6H136.585V3.9L136.455 3.73C136.515 3.57 136.593 3.42333 136.69 3.29C136.786 3.15333 136.891 3.04167 137.005 2.955C137.145 2.83167 137.308 2.73833 137.495 2.675C137.681 2.60833 137.87 2.57 138.06 2.56C138.25 2.54667 138.423 2.56 138.58 2.6V3.29C138.383 3.24 138.168 3.22833 137.935 3.255C137.701 3.28167 137.486 3.375 137.29 3.535C137.11 3.675 136.975 3.84333 136.885 4.04C136.795 4.23333 136.735 4.44 136.705 4.66C136.675 4.87667 136.66 5.09167 136.66 5.305V8H135.925ZM141.715 8.15C141.189 8.15 140.732 8.03333 140.345 7.8C139.962 7.56667 139.664 7.23833 139.45 6.815C139.237 6.39167 139.13 5.895 139.13 5.325C139.13 4.735 139.235 4.225 139.445 3.795C139.655 3.365 139.95 3.03333 140.33 2.8C140.714 2.56667 141.165 2.45 141.685 2.45C142.219 2.45 142.674 2.57333 143.05 2.82C143.427 3.06333 143.712 3.41333 143.905 3.87C144.099 4.32667 144.187 4.87167 144.17 5.505H143.42V5.245C143.407 4.545 143.255 4.01667 142.965 3.66C142.679 3.30333 142.259 3.125 141.705 3.125C141.125 3.125 140.68 3.31333 140.37 3.69C140.064 4.06667 139.91 4.60333 139.91 5.3C139.91 5.98 140.064 6.50833 140.37 6.885C140.68 7.25833 141.119 7.445 141.685 7.445C142.072 7.445 142.409 7.35667 142.695 7.18C142.985 7 143.214 6.74167 143.38 6.405L144.065 6.67C143.852 7.14 143.537 7.505 143.12 7.765C142.707 8.02167 142.239 8.15 141.715 8.15ZM139.65 5.505V4.89H143.775V5.505H139.65ZM146.727 8.15C146.321 8.15 145.979 8.07667 145.702 7.93C145.429 7.78333 145.224 7.58833 145.087 7.345C144.951 7.10167 144.882 6.83667 144.882 6.55C144.882 6.25667 144.941 6.00667 145.057 5.8C145.177 5.59 145.339 5.41833 145.542 5.285C145.749 5.15167 145.987 5.05 146.257 4.98C146.531 4.91333 146.832 4.855 147.162 4.805C147.496 4.75167 147.821 4.70667 148.137 4.67C148.457 4.63 148.737 4.59167 148.977 4.555L148.717 4.715C148.727 4.18167 148.624 3.78667 148.407 3.53C148.191 3.27333 147.814 3.145 147.277 3.145C146.907 3.145 146.594 3.22833 146.337 3.395C146.084 3.56167 145.906 3.825 145.802 4.185L145.087 3.975C145.211 3.49167 145.459 3.11667 145.832 2.85C146.206 2.58333 146.691 2.45 147.287 2.45C147.781 2.45 148.199 2.54333 148.542 2.73C148.889 2.91333 149.134 3.18 149.277 3.53C149.344 3.68667 149.387 3.86167 149.407 4.055C149.427 4.24833 149.437 4.445 149.437 4.645V8H148.782V6.645L148.972 6.725C148.789 7.18833 148.504 7.54167 148.117 7.785C147.731 8.02833 147.267 8.15 146.727 8.15ZM146.812 7.515C147.156 7.515 147.456 7.45333 147.712 7.33C147.969 7.20667 148.176 7.03833 148.332 6.825C148.489 6.60833 148.591 6.365 148.637 6.095C148.677 5.92167 148.699 5.73167 148.702 5.525C148.706 5.315 148.707 5.15833 148.707 5.055L148.987 5.2C148.737 5.23333 148.466 5.26667 148.172 5.3C147.882 5.33333 147.596 5.37167 147.312 5.415C147.032 5.45833 146.779 5.51 146.552 5.57C146.399 5.61333 146.251 5.675 146.107 5.755C145.964 5.83167 145.846 5.935 145.752 6.065C145.662 6.195 145.617 6.35667 145.617 6.55C145.617 6.70667 145.656 6.85833 145.732 7.005C145.812 7.15167 145.939 7.27333 146.112 7.37C146.289 7.46667 146.522 7.515 146.812 7.515ZM153.679 8C153.376 8.06333 153.076 8.08833 152.779 8.075C152.486 8.06167 152.222 7.99833 151.989 7.885C151.759 7.77167 151.584 7.595 151.464 7.355C151.367 7.155 151.314 6.95333 151.304 6.75C151.297 6.54333 151.294 6.30833 151.294 6.045V1.1H152.024V6.015C152.024 6.24167 152.026 6.43167 152.029 6.585C152.036 6.735 152.071 6.86833 152.134 6.985C152.254 7.20833 152.444 7.34167 152.704 7.385C152.967 7.42833 153.292 7.41833 153.679 7.355V8ZM150.139 3.23V2.6H153.679V3.23H150.139ZM156.833 8.15C156.306 8.15 155.849 8.03333 155.463 7.8C155.079 7.56667 154.781 7.23833 154.568 6.815C154.354 6.39167 154.248 5.895 154.248 5.325C154.248 4.735 154.353 4.225 154.563 3.795C154.773 3.365 155.068 3.03333 155.448 2.8C155.831 2.56667 156.283 2.45 156.803 2.45C157.336 2.45 157.791 2.57333 158.168 2.82C158.544 3.06333 158.829 3.41333 159.023 3.87C159.216 4.32667 159.304 4.87167 159.288 5.505H158.538V5.245C158.524 4.545 158.373 4.01667 158.083 3.66C157.796 3.30333 157.376 3.125 156.823 3.125C156.243 3.125 155.798 3.31333 155.488 3.69C155.181 4.06667 155.028 4.60333 155.028 5.3C155.028 5.98 155.181 6.50833 155.488 6.885C155.798 7.25833 156.236 7.445 156.803 7.445C157.189 7.445 157.526 7.35667 157.813 7.18C158.103 7 158.331 6.74167 158.498 6.405L159.183 6.67C158.969 7.14 158.654 7.505 158.238 7.765C157.824 8.02167 157.356 8.15 156.833 8.15ZM154.768 5.505V4.89H158.893V5.505H154.768ZM163.944 8.15C163.538 8.15 163.196 8.07667 162.919 7.93C162.646 7.78333 162.441 7.58833 162.304 7.345C162.168 7.10167 162.099 6.83667 162.099 6.55C162.099 6.25667 162.158 6.00667 162.274 5.8C162.394 5.59 162.556 5.41833 162.759 5.285C162.966 5.15167 163.204 5.05 163.474 4.98C163.748 4.91333 164.049 4.855 164.379 4.805C164.713 4.75167 165.038 4.70667 165.354 4.67C165.674 4.63 165.954 4.59167 166.194 4.555L165.934 4.715C165.944 4.18167 165.841 3.78667 165.624 3.53C165.408 3.27333 165.031 3.145 164.494 3.145C164.124 3.145 163.811 3.22833 163.554 3.395C163.301 3.56167 163.123 3.825 163.019 4.185L162.304 3.975C162.428 3.49167 162.676 3.11667 163.049 2.85C163.423 2.58333 163.908 2.45 164.504 2.45C164.998 2.45 165.416 2.54333 165.759 2.73C166.106 2.91333 166.351 3.18 166.494 3.53C166.561 3.68667 166.604 3.86167 166.624 4.055C166.644 4.24833 166.654 4.445 166.654 4.645V8H165.999V6.645L166.189 6.725C166.006 7.18833 165.721 7.54167 165.334 7.785C164.948 8.02833 164.484 8.15 163.944 8.15ZM164.029 7.515C164.373 7.515 164.673 7.45333 164.929 7.33C165.186 7.20667 165.393 7.03833 165.549 6.825C165.706 6.60833 165.808 6.365 165.854 6.095C165.894 5.92167 165.916 5.73167 165.919 5.525C165.923 5.315 165.924 5.15833 165.924 5.055L166.204 5.2C165.954 5.23333 165.683 5.26667 165.389 5.3C165.099 5.33333 164.813 5.37167 164.529 5.415C164.249 5.45833 163.996 5.51 163.769 5.57C163.616 5.61333 163.468 5.675 163.324 5.755C163.181 5.83167 163.063 5.935 162.969 6.065C162.879 6.195 162.834 6.35667 162.834 6.55C162.834 6.70667 162.873 6.85833 162.949 7.005C163.029 7.15167 163.156 7.27333 163.329 7.37C163.506 7.46667 163.739 7.515 164.029 7.515ZM171.213 8V1.62L169.858 2.435V1.61L171.213 0.8H171.958V8H171.213ZM173.754 5.165V4.535H176.754V5.165H173.754ZM180.969 8.15C180.252 8.15 179.647 7.99167 179.154 7.675C178.66 7.355 178.287 6.91333 178.034 6.35C177.78 5.78667 177.654 5.13667 177.654 4.4C177.654 3.66333 177.78 3.01333 178.034 2.45C178.287 1.88667 178.66 1.44667 179.154 1.13C179.647 0.81 180.252 0.65 180.969 0.65C181.805 0.65 182.489 0.865 183.019 1.295C183.549 1.72167 183.912 2.295 184.109 3.015L183.359 3.21C183.205 2.64 182.93 2.18833 182.534 1.855C182.137 1.52167 181.615 1.355 180.969 1.355C180.405 1.355 179.937 1.48333 179.564 1.74C179.19 1.99667 178.909 2.355 178.719 2.815C178.532 3.27167 178.435 3.8 178.429 4.4C178.425 5 178.517 5.52833 178.704 5.985C178.894 6.44167 179.177 6.8 179.554 7.06C179.934 7.31667 180.405 7.445 180.969 7.445C181.615 7.445 182.137 7.27833 182.534 6.945C182.93 6.60833 183.205 6.15667 183.359 5.59L184.109 5.785C183.912 6.505 183.549 7.08 183.019 7.51C182.489 7.93667 181.805 8.15 180.969 8.15ZM185.312 8V0.65H186.047V8H185.312ZM187.646 1.575V0.75H188.381V1.575H187.646ZM187.646 8V2.6H188.381V8H187.646ZM192.12 8.15C191.576 8.15 191.116 8.02833 190.74 7.785C190.363 7.54167 190.076 7.20667 189.88 6.78C189.686 6.35 189.586 5.85667 189.58 5.3C189.586 4.73333 189.69 4.23667 189.89 3.81C190.09 3.38 190.378 3.04667 190.755 2.81C191.131 2.57 191.588 2.45 192.125 2.45C192.671 2.45 193.146 2.58333 193.55 2.85C193.956 3.11667 194.235 3.48167 194.385 3.945L193.665 4.175C193.538 3.85167 193.336 3.60167 193.06 3.425C192.786 3.245 192.473 3.155 192.12 3.155C191.723 3.155 191.395 3.24667 191.135 3.43C190.875 3.61 190.681 3.86167 190.555 4.185C190.428 4.50833 190.363 4.88 190.36 5.3C190.366 5.94667 190.516 6.46667 190.81 6.86C191.103 7.25 191.54 7.445 192.12 7.445C192.486 7.445 192.798 7.36167 193.055 7.195C193.315 7.025 193.511 6.77833 193.645 6.455L194.385 6.675C194.185 7.155 193.891 7.52167 193.505 7.775C193.118 8.025 192.656 8.15 192.12 8.15ZM195.412 8L195.417 0.8H196.157V5.2L198.567 2.6H199.547L197.017 5.3L199.877 8H198.807L196.157 5.4V8H195.412ZM205.295 8.15C204.578 8.15 203.973 7.99167 203.48 7.675C202.986 7.355 202.613 6.91333 202.36 6.35C202.106 5.78667 201.98 5.13667 201.98 4.4C201.98 3.66333 202.106 3.01333 202.36 2.45C202.613 1.88667 202.986 1.44667 203.48 1.13C203.973 0.81 204.578 0.65 205.295 0.65C206.131 0.65 206.815 0.865 207.345 1.295C207.875 1.72167 208.238 2.295 208.435 3.015L207.685 3.21C207.531 2.64 207.256 2.18833 206.86 1.855C206.463 1.52167 205.941 1.355 205.295 1.355C204.731 1.355 204.263 1.48333 203.89 1.74C203.516 1.99667 203.235 2.355 203.045 2.815C202.858 3.27167 202.761 3.8 202.755 4.4C202.751 5 202.843 5.52833 203.03 5.985C203.22 6.44167 203.503 6.8 203.88 7.06C204.26 7.31667 204.731 7.445 205.295 7.445C205.941 7.445 206.463 7.27833 206.86 6.945C207.256 6.60833 207.531 6.15667 207.685 5.59L208.435 5.785C208.238 6.505 207.875 7.08 207.345 7.51C206.815 7.93667 206.131 8.15 205.295 8.15ZM213.438 8V5.245C213.438 4.945 213.41 4.67 213.353 4.42C213.296 4.16667 213.205 3.94667 213.078 3.76C212.955 3.57 212.793 3.42333 212.593 3.32C212.396 3.21667 212.156 3.165 211.873 3.165C211.613 3.165 211.383 3.21 211.183 3.3C210.986 3.39 210.82 3.52 210.683 3.69C210.55 3.85667 210.448 4.06 210.378 4.3C210.308 4.54 210.273 4.81333 210.273 5.12L209.753 5.005C209.753 4.45167 209.85 3.98667 210.043 3.61C210.236 3.23333 210.503 2.94833 210.843 2.755C211.183 2.56167 211.573 2.465 212.013 2.465C212.336 2.465 212.618 2.515 212.858 2.615C213.101 2.715 213.306 2.85 213.473 3.02C213.643 3.19 213.78 3.385 213.883 3.605C213.986 3.82167 214.061 4.05333 214.108 4.3C214.155 4.54333 214.178 4.78667 214.178 5.03V8H213.438ZM209.533 8V0.8H210.198V4.865H210.273V8H209.533ZM217.76 8.15C217.234 8.15 216.777 8.03333 216.39 7.8C216.007 7.56667 215.709 7.23833 215.495 6.815C215.282 6.39167 215.175 5.895 215.175 5.325C215.175 4.735 215.28 4.225 215.49 3.795C215.7 3.365 215.995 3.03333 216.375 2.8C216.759 2.56667 217.21 2.45 217.73 2.45C218.264 2.45 218.719 2.57333 219.095 2.82C219.472 3.06333 219.757 3.41333 219.95 3.87C220.144 4.32667 220.232 4.87167 220.215 5.505H219.465V5.245C219.452 4.545 219.3 4.01667 219.01 3.66C218.724 3.30333 218.304 3.125 217.75 3.125C217.17 3.125 216.725 3.31333 216.415 3.69C216.109 4.06667 215.955 4.60333 215.955 5.3C215.955 5.98 216.109 6.50833 216.415 6.885C216.725 7.25833 217.164 7.445 217.73 7.445C218.117 7.445 218.454 7.35667 218.74 7.18C219.03 7 219.259 6.74167 219.425 6.405L220.11 6.67C219.897 7.14 219.582 7.505 219.165 7.765C218.752 8.02167 218.284 8.15 217.76 8.15ZM215.695 5.505V4.89H219.82V5.505H215.695ZM223.565 8.15C223.022 8.15 222.562 8.02833 222.185 7.785C221.808 7.54167 221.522 7.20667 221.325 6.78C221.132 6.35 221.032 5.85667 221.025 5.3C221.032 4.73333 221.135 4.23667 221.335 3.81C221.535 3.38 221.823 3.04667 222.2 2.81C222.577 2.57 223.033 2.45 223.57 2.45C224.117 2.45 224.592 2.58333 224.995 2.85C225.402 3.11667 225.68 3.48167 225.83 3.945L225.11 4.175C224.983 3.85167 224.782 3.60167 224.505 3.425C224.232 3.245 223.918 3.155 223.565 3.155C223.168 3.155 222.84 3.24667 222.58 3.43C222.32 3.61 222.127 3.86167 222 4.185C221.873 4.50833 221.808 4.88 221.805 5.3C221.812 5.94667 221.962 6.46667 222.255 6.86C222.548 7.25 222.985 7.445 223.565 7.445C223.932 7.445 224.243 7.36167 224.5 7.195C224.76 7.025 224.957 6.77833 225.09 6.455L225.83 6.675C225.63 7.155 225.337 7.52167 224.95 7.775C224.563 8.025 224.102 8.15 223.565 8.15ZM226.857 8L226.862 0.8H227.602V5.2L230.012 2.6H230.992L228.462 5.3L231.322 8H230.252L227.602 5.4V8H226.857ZM233.98 8.15C233.444 8.15 232.985 8.02833 232.605 7.785C232.225 7.54167 231.934 7.205 231.73 6.775C231.527 6.345 231.425 5.85167 231.425 5.295C231.425 4.72833 231.529 4.23167 231.735 3.805C231.942 3.37833 232.235 3.04667 232.615 2.81C232.999 2.57 233.454 2.45 233.98 2.45C234.52 2.45 234.98 2.57167 235.36 2.815C235.744 3.055 236.035 3.39 236.235 3.82C236.439 4.24667 236.54 4.73833 236.54 5.295C236.54 5.86167 236.439 6.36 236.235 6.79C236.032 7.21667 235.739 7.55 235.355 7.79C234.972 8.03 234.514 8.15 233.98 8.15ZM233.98 7.445C234.58 7.445 235.027 7.24667 235.32 6.85C235.614 6.45 235.76 5.93167 235.76 5.295C235.76 4.64167 235.612 4.12167 235.315 3.735C235.022 3.34833 234.577 3.155 233.98 3.155C233.577 3.155 233.244 3.24667 232.98 3.43C232.72 3.61 232.525 3.86167 232.395 4.185C232.269 4.505 232.205 4.875 232.205 5.295C232.205 5.945 232.355 6.46667 232.655 6.86C232.955 7.25 233.397 7.445 233.98 7.445ZM239.708 8.135C239.385 8.135 239.102 8.085 238.858 7.985C238.618 7.885 238.413 7.75 238.243 7.58C238.077 7.41 237.942 7.21667 237.838 7C237.735 6.78 237.66 6.54833 237.613 6.305C237.567 6.05833 237.543 5.81333 237.543 5.57V2.6H238.283V5.355C238.283 5.65167 238.312 5.92667 238.368 6.18C238.425 6.43333 238.515 6.655 238.638 6.845C238.765 7.03167 238.927 7.17667 239.123 7.28C239.323 7.38333 239.565 7.435 239.848 7.435C240.108 7.435 240.337 7.39 240.533 7.3C240.733 7.21 240.9 7.08167 241.033 6.915C241.17 6.745 241.273 6.54 241.343 6.3C241.413 6.05667 241.448 5.78333 241.448 5.48L241.968 5.595C241.968 6.14833 241.872 6.61333 241.678 6.99C241.485 7.36667 241.218 7.65167 240.878 7.845C240.538 8.03833 240.148 8.135 239.708 8.135ZM241.523 8V6.67H241.448V2.6H242.183V8H241.523ZM246.521 8C246.218 8.06333 245.918 8.08833 245.621 8.075C245.328 8.06167 245.064 7.99833 244.831 7.885C244.601 7.77167 244.426 7.595 244.306 7.355C244.209 7.155 244.156 6.95333 244.146 6.75C244.139 6.54333 244.136 6.30833 244.136 6.045V1.1H244.866V6.015C244.866 6.24167 244.868 6.43167 244.871 6.585C244.878 6.735 244.913 6.86833 244.976 6.985C245.096 7.20833 245.286 7.34167 245.546 7.385C245.809 7.42833 246.134 7.41833 246.521 7.355V8ZM242.981 3.23V2.6H246.521V3.23H242.981ZM251.132 8.15C250.725 8.15 250.383 8.07667 250.107 7.93C249.833 7.78333 249.628 7.58833 249.492 7.345C249.355 7.10167 249.287 6.83667 249.287 6.55C249.287 6.25667 249.345 6.00667 249.462 5.8C249.582 5.59 249.743 5.41833 249.947 5.285C250.153 5.15167 250.392 5.05 250.662 4.98C250.935 4.91333 251.237 4.855 251.567 4.805C251.9 4.75167 252.225 4.70667 252.542 4.67C252.862 4.63 253.142 4.59167 253.382 4.555L253.122 4.715C253.132 4.18167 253.028 3.78667 252.812 3.53C252.595 3.27333 252.218 3.145 251.682 3.145C251.312 3.145 250.998 3.22833 250.742 3.395C250.488 3.56167 250.31 3.825 250.207 4.185L249.492 3.975C249.615 3.49167 249.863 3.11667 250.237 2.85C250.61 2.58333 251.095 2.45 251.692 2.45C252.185 2.45 252.603 2.54333 252.947 2.73C253.293 2.91333 253.538 3.18 253.682 3.53C253.748 3.68667 253.792 3.86167 253.812 4.055C253.832 4.24833 253.842 4.445 253.842 4.645V8H253.187V6.645L253.377 6.725C253.193 7.18833 252.908 7.54167 252.522 7.785C252.135 8.02833 251.672 8.15 251.132 8.15ZM251.217 7.515C251.56 7.515 251.86 7.45333 252.117 7.33C252.373 7.20667 252.58 7.03833 252.737 6.825C252.893 6.60833 252.995 6.365 253.042 6.095C253.082 5.92167 253.103 5.73167 253.107 5.525C253.11 5.315 253.112 5.15833 253.112 5.055L253.392 5.2C253.142 5.23333 252.87 5.26667 252.577 5.3C252.287 5.33333 252 5.37167 251.717 5.415C251.437 5.45833 251.183 5.51 250.957 5.57C250.803 5.61333 250.655 5.675 250.512 5.755C250.368 5.83167 250.25 5.935 250.157 6.065C250.067 6.195 250.022 6.35667 250.022 6.55C250.022 6.70667 250.06 6.85833 250.137 7.005C250.217 7.15167 250.343 7.27333 250.517 7.37C250.693 7.46667 250.927 7.515 251.217 7.515ZM257.383 8.15C256.84 8.15 256.38 8.02833 256.003 7.785C255.627 7.54167 255.34 7.20667 255.143 6.78C254.95 6.35 254.85 5.85667 254.843 5.3C254.85 4.73333 254.953 4.23667 255.153 3.81C255.353 3.38 255.642 3.04667 256.018 2.81C256.395 2.57 256.852 2.45 257.388 2.45C257.935 2.45 258.41 2.58333 258.813 2.85C259.22 3.11667 259.498 3.48167 259.648 3.945L258.928 4.175C258.802 3.85167 258.6 3.60167 258.323 3.425C258.05 3.245 257.737 3.155 257.383 3.155C256.987 3.155 256.658 3.24667 256.398 3.43C256.138 3.61 255.945 3.86167 255.818 4.185C255.692 4.50833 255.627 4.88 255.623 5.3C255.63 5.94667 255.78 6.46667 256.073 6.86C256.367 7.25 256.803 7.445 257.383 7.445C257.75 7.445 258.062 7.36167 258.318 7.195C258.578 7.025 258.775 6.77833 258.908 6.455L259.648 6.675C259.448 7.155 259.155 7.52167 258.768 7.775C258.382 8.025 257.92 8.15 257.383 8.15ZM262.774 8.15C262.231 8.15 261.771 8.02833 261.394 7.785C261.017 7.54167 260.731 7.20667 260.534 6.78C260.341 6.35 260.241 5.85667 260.234 5.3C260.241 4.73333 260.344 4.23667 260.544 3.81C260.744 3.38 261.032 3.04667 261.409 2.81C261.786 2.57 262.242 2.45 262.779 2.45C263.326 2.45 263.801 2.58333 264.204 2.85C264.611 3.11667 264.889 3.48167 265.039 3.945L264.319 4.175C264.192 3.85167 263.991 3.60167 263.714 3.425C263.441 3.245 263.127 3.155 262.774 3.155C262.377 3.155 262.049 3.24667 261.789 3.43C261.529 3.61 261.336 3.86167 261.209 4.185C261.082 4.50833 261.017 4.88 261.014 5.3C261.021 5.94667 261.171 6.46667 261.464 6.86C261.757 7.25 262.194 7.445 262.774 7.445C263.141 7.445 263.452 7.36167 263.709 7.195C263.969 7.025 264.166 6.77833 264.299 6.455L265.039 6.675C264.839 7.155 264.546 7.52167 264.159 7.775C263.772 8.025 263.311 8.15 262.774 8.15ZM268.18 8.15C267.643 8.15 267.185 8.02833 266.805 7.785C266.425 7.54167 266.133 7.205 265.93 6.775C265.726 6.345 265.625 5.85167 265.625 5.295C265.625 4.72833 265.728 4.23167 265.935 3.805C266.141 3.37833 266.435 3.04667 266.815 2.81C267.198 2.57 267.653 2.45 268.18 2.45C268.72 2.45 269.18 2.57167 269.56 2.815C269.943 3.055 270.235 3.39 270.435 3.82C270.638 4.24667 270.74 4.73833 270.74 5.295C270.74 5.86167 270.638 6.36 270.435 6.79C270.231 7.21667 269.938 7.55 269.555 7.79C269.171 8.03 268.713 8.15 268.18 8.15ZM268.18 7.445C268.78 7.445 269.226 7.24667 269.52 6.85C269.813 6.45 269.96 5.93167 269.96 5.295C269.96 4.64167 269.811 4.12167 269.515 3.735C269.221 3.34833 268.776 3.155 268.18 3.155C267.776 3.155 267.443 3.24667 267.18 3.43C266.92 3.61 266.725 3.86167 266.595 4.185C266.468 4.505 266.405 4.875 266.405 5.295C266.405 5.945 266.555 6.46667 266.855 6.86C267.155 7.25 267.596 7.445 268.18 7.445ZM273.908 8.135C273.584 8.135 273.301 8.085 273.058 7.985C272.818 7.885 272.613 7.75 272.443 7.58C272.276 7.41 272.141 7.21667 272.038 7C271.934 6.78 271.859 6.54833 271.813 6.305C271.766 6.05833 271.743 5.81333 271.743 5.57V2.6H272.483V5.355C272.483 5.65167 272.511 5.92667 272.568 6.18C272.624 6.43333 272.714 6.655 272.838 6.845C272.964 7.03167 273.126 7.17667 273.323 7.28C273.523 7.38333 273.764 7.435 274.048 7.435C274.308 7.435 274.536 7.39 274.733 7.3C274.933 7.21 275.099 7.08167 275.233 6.915C275.369 6.745 275.473 6.54 275.543 6.3C275.613 6.05667 275.648 5.78333 275.648 5.48L276.168 5.595C276.168 6.14833 276.071 6.61333 275.878 6.99C275.684 7.36667 275.418 7.65167 275.078 7.845C274.738 8.03833 274.348 8.135 273.908 8.135ZM275.723 8V6.67H275.648V2.6H276.383V8H275.723ZM281.68 8V5.245C281.68 4.945 281.652 4.67 281.595 4.42C281.538 4.16667 281.447 3.94667 281.32 3.76C281.197 3.57 281.035 3.42333 280.835 3.32C280.638 3.21667 280.398 3.165 280.115 3.165C279.855 3.165 279.625 3.21 279.425 3.3C279.228 3.39 279.062 3.52 278.925 3.69C278.792 3.85667 278.69 4.06 278.62 4.3C278.55 4.54 278.515 4.81333 278.515 5.12L277.995 5.005C277.995 4.45167 278.092 3.98667 278.285 3.61C278.478 3.23333 278.745 2.94833 279.085 2.755C279.425 2.56167 279.815 2.465 280.255 2.465C280.578 2.465 280.86 2.515 281.1 2.615C281.343 2.715 281.548 2.85 281.715 3.02C281.885 3.19 282.022 3.385 282.125 3.605C282.228 3.82167 282.303 4.05333 282.35 4.3C282.397 4.54333 282.42 4.78667 282.42 5.03V8H281.68ZM277.775 8V2.6H278.44V3.93H278.515V8H277.775ZM286.658 8C286.354 8.06333 286.054 8.08833 285.758 8.075C285.464 8.06167 285.201 7.99833 284.968 7.885C284.738 7.77167 284.563 7.595 284.443 7.355C284.346 7.155 284.293 6.95333 284.283 6.75C284.276 6.54333 284.273 6.30833 284.273 6.045V1.1H285.003V6.015C285.003 6.24167 285.004 6.43167 285.008 6.585C285.014 6.735 285.049 6.86833 285.113 6.985C285.233 7.20833 285.423 7.34167 285.683 7.385C285.946 7.42833 286.271 7.41833 286.658 7.355V8ZM283.118 3.23V2.6H286.658V3.23H283.118ZM291.788 8.135C291.465 8.135 291.182 8.085 290.938 7.985C290.698 7.885 290.493 7.75 290.323 7.58C290.157 7.41 290.022 7.21667 289.918 7C289.815 6.78 289.74 6.54833 289.693 6.305C289.647 6.05833 289.623 5.81333 289.623 5.57V2.6H290.363V5.355C290.363 5.65167 290.392 5.92667 290.448 6.18C290.505 6.43333 290.595 6.655 290.718 6.845C290.845 7.03167 291.007 7.17667 291.203 7.28C291.403 7.38333 291.645 7.435 291.928 7.435C292.188 7.435 292.417 7.39 292.613 7.3C292.813 7.21 292.98 7.08167 293.113 6.915C293.25 6.745 293.353 6.54 293.423 6.3C293.493 6.05667 293.528 5.78333 293.528 5.48L294.048 5.595C294.048 6.14833 293.952 6.61333 293.758 6.99C293.565 7.36667 293.298 7.65167 292.958 7.845C292.618 8.03833 292.228 8.135 291.788 8.135ZM293.603 8V6.67H293.528V2.6H294.263V8H293.603ZM299.561 8V5.245C299.561 4.945 299.533 4.67 299.476 4.42C299.419 4.16667 299.328 3.94667 299.201 3.76C299.078 3.57 298.916 3.42333 298.716 3.32C298.519 3.21667 298.279 3.165 297.996 3.165C297.736 3.165 297.506 3.21 297.306 3.3C297.109 3.39 296.943 3.52 296.806 3.69C296.673 3.85667 296.571 4.06 296.501 4.3C296.431 4.54 296.396 4.81333 296.396 5.12L295.876 5.005C295.876 4.45167 295.973 3.98667 296.166 3.61C296.359 3.23333 296.626 2.94833 296.966 2.755C297.306 2.56167 297.696 2.465 298.136 2.465C298.459 2.465 298.741 2.515 298.981 2.615C299.224 2.715 299.429 2.85 299.596 3.02C299.766 3.19 299.903 3.385 300.006 3.605C300.109 3.82167 300.184 4.05333 300.231 4.3C300.278 4.54333 300.301 4.78667 300.301 5.03V8H299.561ZM295.656 8V2.6H296.321V3.93H296.396V8H295.656ZM303.664 8.15C303.161 8.15 302.731 8.025 302.374 7.775C302.017 7.52167 301.744 7.18 301.554 6.75C301.364 6.32 301.269 5.835 301.269 5.295C301.269 4.75833 301.362 4.275 301.549 3.845C301.739 3.415 302.011 3.075 302.364 2.825C302.717 2.575 303.141 2.45 303.634 2.45C304.141 2.45 304.567 2.57333 304.914 2.82C305.261 3.06667 305.522 3.405 305.699 3.835C305.879 4.26167 305.969 4.74833 305.969 5.295C305.969 5.83167 305.881 6.31667 305.704 6.75C305.527 7.18 305.267 7.52167 304.924 7.775C304.581 8.025 304.161 8.15 303.664 8.15ZM303.739 7.465C304.122 7.465 304.439 7.37167 304.689 7.185C304.939 6.99833 305.126 6.74167 305.249 6.415C305.372 6.085 305.434 5.71167 305.434 5.295C305.434 4.87167 305.372 4.49833 305.249 4.175C305.126 3.84833 304.939 3.59333 304.689 3.41C304.442 3.22667 304.131 3.135 303.754 3.135C303.367 3.135 303.047 3.23 302.794 3.42C302.541 3.61 302.352 3.86833 302.229 4.195C302.109 4.52167 302.049 4.88833 302.049 5.295C302.049 5.705 302.111 6.075 302.234 6.405C302.361 6.73167 302.549 6.99 302.799 7.18C303.049 7.37 303.362 7.465 303.739 7.465ZM305.434 8V3.935H305.354V0.8H306.094V8H305.434ZM309.782 8.15C309.255 8.15 308.799 8.03333 308.412 7.8C308.029 7.56667 307.73 7.23833 307.517 6.815C307.304 6.39167 307.197 5.895 307.197 5.325C307.197 4.735 307.302 4.225 307.512 3.795C307.722 3.365 308.017 3.03333 308.397 2.8C308.78 2.56667 309.232 2.45 309.752 2.45C310.285 2.45 310.74 2.57333 311.117 2.82C311.494 3.06333 311.779 3.41333 311.972 3.87C312.165 4.32667 312.254 4.87167 312.237 5.505H311.487V5.245C311.474 4.545 311.322 4.01667 311.032 3.66C310.745 3.30333 310.325 3.125 309.772 3.125C309.192 3.125 308.747 3.31333 308.437 3.69C308.13 4.06667 307.977 4.60333 307.977 5.3C307.977 5.98 308.13 6.50833 308.437 6.885C308.747 7.25833 309.185 7.445 309.752 7.445C310.139 7.445 310.475 7.35667 310.762 7.18C311.052 7 311.28 6.74167 311.447 6.405L312.132 6.67C311.919 7.14 311.604 7.505 311.187 7.765C310.774 8.02167 310.305 8.15 309.782 8.15ZM307.717 5.505V4.89H311.842V5.505H307.717ZM313.346 8V2.6H314.006V3.9L313.876 3.73C313.936 3.57 314.015 3.42333 314.111 3.29C314.208 3.15333 314.313 3.04167 314.426 2.955C314.566 2.83167 314.73 2.73833 314.916 2.675C315.103 2.60833 315.291 2.57 315.481 2.56C315.671 2.54667 315.845 2.56 316.001 2.6V3.29C315.805 3.24 315.59 3.22833 315.356 3.255C315.123 3.28167 314.908 3.375 314.711 3.535C314.531 3.675 314.396 3.84333 314.306 4.04C314.216 4.23333 314.156 4.44 314.126 4.66C314.096 4.87667 314.081 5.09167 314.081 5.305V8H313.346ZM2.955 22.15C2.41833 22.15 1.96 22.0283 1.58 21.785C1.2 21.5417 0.908333 21.205 0.705 20.775C0.501667 20.345 0.4 19.8517 0.4 19.295C0.4 18.7283 0.503333 18.2317 0.71 17.805C0.916667 17.3783 1.21 17.0467 1.59 16.81C1.97333 16.57 2.42833 16.45 2.955 16.45C3.495 16.45 3.955 16.5717 4.335 16.815C4.71833 17.055 5.01 17.39 5.21 17.82C5.41333 18.2467 5.515 18.7383 5.515 19.295C5.515 19.8617 5.41333 20.36 5.21 20.79C5.00667 21.2167 4.71333 21.55 4.33 21.79C3.94667 22.03 3.48833 22.15 2.955 22.15ZM2.955 21.445C3.555 21.445 4.00167 21.2467 4.295 20.85C4.58833 20.45 4.735 19.9317 4.735 19.295C4.735 18.6417 4.58667 18.1217 4.29 17.735C3.99667 17.3483 3.55167 17.155 2.955 17.155C2.55167 17.155 2.21833 17.2467 1.955 17.43C1.695 17.61 1.5 17.8617 1.37 18.185C1.24333 18.505 1.18 18.875 1.18 19.295C1.18 19.945 1.33 20.4667 1.63 20.86C1.93 21.25 2.37167 21.445 2.955 21.445ZM8.68297 22.135C8.35964 22.135 8.0763 22.085 7.83297 21.985C7.59297 21.885 7.38797 21.75 7.21797 21.58C7.0513 21.41 6.9163 21.2167 6.81297 21C6.70964 20.78 6.63464 20.5483 6.58797 20.305C6.5413 20.0583 6.51797 19.8133 6.51797 19.57V16.6H7.25797V19.355C7.25797 19.6517 7.2863 19.9267 7.34297 20.18C7.39964 20.4333 7.48964 20.655 7.61297 20.845C7.73964 21.0317 7.9013 21.1767 8.09797 21.28C8.29797 21.3833 8.53964 21.435 8.82297 21.435C9.08297 21.435 9.3113 21.39 9.50797 21.3C9.70797 21.21 9.87464 21.0817 10.008 20.915C10.1446 20.745 10.248 20.54 10.318 20.3C10.388 20.0567 10.423 19.7833 10.423 19.48L10.943 19.595C10.943 20.1483 10.8463 20.6133 10.653 20.99C10.4596 21.3667 10.193 21.6517 9.85297 21.845C9.51297 22.0383 9.12297 22.135 8.68297 22.135ZM10.498 22V20.67H10.423V16.6H11.158V22H10.498ZM12.5555 22V16.6H13.2155V17.9L13.0855 17.73C13.1455 17.57 13.2238 17.4233 13.3205 17.29C13.4171 17.1533 13.5221 17.0417 13.6355 16.955C13.7755 16.8317 13.9388 16.7383 14.1255 16.675C14.3121 16.6083 14.5005 16.57 14.6905 16.56C14.8805 16.5467 15.0538 16.56 15.2105 16.6V17.29C15.0138 17.24 14.7988 17.2283 14.5655 17.255C14.3321 17.2817 14.1171 17.375 13.9205 17.535C13.7405 17.675 13.6055 17.8433 13.5155 18.04C13.4255 18.2333 13.3655 18.44 13.3355 18.66C13.3055 18.8767 13.2905 19.0917 13.2905 19.305V22H12.5555ZM82.4208 22.15C82.0141 22.15 81.6724 22.0767 81.3958 21.93C81.1224 21.7833 80.9174 21.5883 80.7808 21.345C80.6441 21.1017 80.5758 20.8367 80.5758 20.55C80.5758 20.2567 80.6341 20.0067 80.7508 19.8C80.8708 19.59 81.0324 19.4183 81.2358 19.285C81.4424 19.1517 81.6808 19.05 81.9508 18.98C82.2241 18.9133 82.5258 18.855 82.8558 18.805C83.1891 18.7517 83.5141 18.7067 83.8308 18.67C84.1508 18.63 84.4308 18.5917 84.6708 18.555L84.4108 18.715C84.4208 18.1817 84.3174 17.7867 84.1008 17.53C83.8841 17.2733 83.5074 17.145 82.9708 17.145C82.6008 17.145 82.2874 17.2283 82.0308 17.395C81.7774 17.5617 81.5991 17.825 81.4958 18.185L80.7808 17.975C80.9041 17.4917 81.1524 17.1167 81.5258 16.85C81.8991 16.5833 82.3841 16.45 82.9808 16.45C83.4741 16.45 83.8924 16.5433 84.2358 16.73C84.5824 16.9133 84.8274 17.18 84.9708 17.53C85.0374 17.6867 85.0808 17.8617 85.1008 18.055C85.1208 18.2483 85.1308 18.445 85.1308 18.645V22H84.4758V20.645L84.6658 20.725C84.4824 21.1883 84.1974 21.5417 83.8108 21.785C83.4241 22.0283 82.9608 22.15 82.4208 22.15ZM82.5058 21.515C82.8491 21.515 83.1491 21.4533 83.4058 21.33C83.6624 21.2067 83.8691 21.0383 84.0258 20.825C84.1824 20.6083 84.2841 20.365 84.3308 20.095C84.3708 19.9217 84.3924 19.7317 84.3958 19.525C84.3991 19.315 84.4008 19.1583 84.4008 19.055L84.6808 19.2C84.4308 19.2333 84.1591 19.2667 83.8658 19.3C83.5758 19.3333 83.2891 19.3717 83.0058 19.415C82.7258 19.4583 82.4724 19.51 82.2458 19.57C82.0924 19.6133 81.9441 19.675 81.8008 19.755C81.6574 19.8317 81.5391 19.935 81.4458 20.065C81.3558 20.195 81.3108 20.3567 81.3108 20.55C81.3108 20.7067 81.3491 20.8583 81.4258 21.005C81.5058 21.1517 81.6324 21.2733 81.8058 21.37C81.9824 21.4667 82.2158 21.515 82.5058 21.515ZM90.3324 22V19.245C90.3324 18.945 90.3041 18.67 90.2474 18.42C90.1908 18.1667 90.0991 17.9467 89.9724 17.76C89.8491 17.57 89.6874 17.4233 89.4874 17.32C89.2908 17.2167 89.0508 17.165 88.7674 17.165C88.5074 17.165 88.2774 17.21 88.0774 17.3C87.8808 17.39 87.7141 17.52 87.5774 17.69C87.4441 17.8567 87.3424 18.06 87.2724 18.3C87.2024 18.54 87.1674 18.8133 87.1674 19.12L86.6474 19.005C86.6474 18.4517 86.7441 17.9867 86.9374 17.61C87.1308 17.2333 87.3974 16.9483 87.7374 16.755C88.0774 16.5617 88.4674 16.465 88.9074 16.465C89.2308 16.465 89.5124 16.515 89.7524 16.615C89.9958 16.715 90.2008 16.85 90.3674 17.02C90.5374 17.19 90.6741 17.385 90.7774 17.605C90.8808 17.8217 90.9558 18.0533 91.0024 18.3C91.0491 18.5433 91.0724 18.7867 91.0724 19.03V22H90.3324ZM86.4274 22V16.6H87.0924V17.93H87.1674V22H86.4274ZM94.4356 22.15C93.9323 22.15 93.5023 22.025 93.1456 21.775C92.789 21.5217 92.5156 21.18 92.3256 20.75C92.1356 20.32 92.0406 19.835 92.0406 19.295C92.0406 18.7583 92.134 18.275 92.3206 17.845C92.5106 17.415 92.7823 17.075 93.1356 16.825C93.489 16.575 93.9123 16.45 94.4056 16.45C94.9123 16.45 95.339 16.5733 95.6856 16.82C96.0323 17.0667 96.294 17.405 96.4706 17.835C96.6506 18.2617 96.7406 18.7483 96.7406 19.295C96.7406 19.8317 96.6523 20.3167 96.4756 20.75C96.299 21.18 96.039 21.5217 95.6956 21.775C95.3523 22.025 94.9323 22.15 94.4356 22.15ZM94.5106 21.465C94.894 21.465 95.2106 21.3717 95.4606 21.185C95.7106 20.9983 95.8973 20.7417 96.0206 20.415C96.144 20.085 96.2056 19.7117 96.2056 19.295C96.2056 18.8717 96.144 18.4983 96.0206 18.175C95.8973 17.8483 95.7106 17.5933 95.4606 17.41C95.214 17.2267 94.9023 17.135 94.5256 17.135C94.139 17.135 93.819 17.23 93.5656 17.42C93.3123 17.61 93.124 17.8683 93.0006 18.195C92.8806 18.5217 92.8206 18.8883 92.8206 19.295C92.8206 19.705 92.8823 20.075 93.0056 20.405C93.1323 20.7317 93.3206 20.99 93.5706 21.18C93.8206 21.37 94.134 21.465 94.5106 21.465ZM96.2056 22V17.935H96.1256V14.8H96.8656V22H96.2056Z" fill="#959595"/>
<path d="M20.0159 22V15.645H17.5609V14.8H23.3609V15.645H20.9059V22H20.0159ZM25.6963 22.15C25.1663 22.15 24.7029 22.0333 24.3063 21.8C23.9129 21.5633 23.6063 21.235 23.3863 20.815C23.1663 20.3917 23.0563 19.8983 23.0563 19.335C23.0563 18.745 23.1646 18.235 23.3813 17.805C23.5979 17.3717 23.8996 17.0383 24.2863 16.805C24.6763 16.5683 25.1329 16.45 25.6563 16.45C26.1996 16.45 26.6613 16.575 27.0413 16.825C27.4246 17.075 27.7113 17.4317 27.9013 17.895C28.0946 18.3583 28.1779 18.91 28.1513 19.55H27.2513V19.23C27.2413 18.5667 27.1063 18.0717 26.8463 17.745C26.5863 17.415 26.1996 17.25 25.6863 17.25C25.1363 17.25 24.7179 17.4267 24.4313 17.78C24.1446 18.1333 24.0013 18.64 24.0013 19.3C24.0013 19.9367 24.1446 20.43 24.4313 20.78C24.7179 21.13 25.1263 21.305 25.6563 21.305C26.0129 21.305 26.3229 21.2233 26.5863 21.06C26.8496 20.8967 27.0563 20.6617 27.2063 20.355L28.0613 20.65C27.8513 21.1267 27.5346 21.4967 27.1113 21.76C26.6913 22.02 26.2196 22.15 25.6963 22.15ZM23.7013 19.55V18.835H27.6913V19.55H23.7013ZM29.2645 22V16.6H30.0595V17.905L29.9295 17.735C29.9928 17.5683 30.0745 17.415 30.1745 17.275C30.2778 17.135 30.3928 17.02 30.5195 16.93C30.6595 16.8167 30.8178 16.73 30.9945 16.67C31.1711 16.61 31.3511 16.575 31.5345 16.565C31.7178 16.5517 31.8895 16.5633 32.0495 16.6V17.435C31.8628 17.385 31.6578 17.3717 31.4345 17.395C31.2111 17.4183 31.0045 17.5 30.8145 17.64C30.6411 17.7633 30.5061 17.9133 30.4095 18.09C30.3161 18.2667 30.2511 18.4583 30.2145 18.665C30.1778 18.8683 30.1595 19.0767 30.1595 19.29V22H29.2645ZM39.4499 22L39.4549 18.545C39.4549 18.1417 39.3466 17.8267 39.1299 17.6C38.9166 17.37 38.6383 17.255 38.2949 17.255C38.0949 17.255 37.9049 17.3017 37.7249 17.395C37.5449 17.485 37.3983 17.6283 37.2849 17.825C37.1716 18.0183 37.1149 18.2667 37.1149 18.57L36.6449 18.38C36.6383 17.9967 36.7166 17.6617 36.8799 17.375C37.0466 17.085 37.2733 16.86 37.5599 16.7C37.8466 16.54 38.1699 16.46 38.5299 16.46C39.0933 16.46 39.5366 16.6317 39.8599 16.975C40.1833 17.315 40.3449 17.7733 40.3449 18.35L40.3399 22H39.4499ZM32.9899 22V16.6H33.7849V18.045H33.8849V22H32.9899ZM36.2249 22L36.2299 18.58C36.2299 18.1667 36.1233 17.8433 35.9099 17.61C35.6966 17.3733 35.4133 17.255 35.0599 17.255C34.7099 17.255 34.4266 17.375 34.2099 17.615C33.9933 17.855 33.8849 18.1733 33.8849 18.57L33.4149 18.29C33.4149 17.94 33.4983 17.6267 33.6649 17.35C33.8316 17.0733 34.0583 16.8567 34.3449 16.7C34.6316 16.54 34.9566 16.46 35.3199 16.46C35.6833 16.46 35.9999 16.5367 36.2699 16.69C36.5399 16.8433 36.7483 17.0633 36.8949 17.35C37.0416 17.6333 37.1149 17.9717 37.1149 18.365L37.1099 22H36.2249ZM43.6873 22.145C43.0439 22.145 42.5156 22.005 42.1023 21.725C41.6923 21.4417 41.4406 21.0467 41.3473 20.54L42.2573 20.395C42.3306 20.6883 42.4989 20.9217 42.7623 21.095C43.0256 21.265 43.3523 21.35 43.7423 21.35C44.1123 21.35 44.4023 21.2733 44.6123 21.12C44.8223 20.9667 44.9273 20.7583 44.9273 20.495C44.9273 20.3417 44.8923 20.2183 44.8223 20.125C44.7523 20.0283 44.6073 19.9383 44.3873 19.855C44.1706 19.7717 43.8423 19.6717 43.4023 19.555C42.9256 19.4283 42.5506 19.2967 42.2773 19.16C42.0039 19.0233 41.8089 18.865 41.6923 18.685C41.5756 18.505 41.5173 18.2867 41.5173 18.03C41.5173 17.7133 41.6039 17.4367 41.7773 17.2C41.9506 16.96 42.1923 16.775 42.5023 16.645C42.8156 16.515 43.1789 16.45 43.5923 16.45C44.0023 16.45 44.3689 16.515 44.6923 16.645C45.0156 16.775 45.2756 16.96 45.4723 17.2C45.6723 17.4367 45.7906 17.7133 45.8273 18.03L44.9173 18.195C44.8739 17.905 44.7339 17.6767 44.4973 17.51C44.2639 17.3433 43.9623 17.255 43.5923 17.245C43.2423 17.2317 42.9573 17.2933 42.7373 17.43C42.5206 17.5667 42.4123 17.7517 42.4123 17.985C42.4123 18.115 42.4523 18.2267 42.5323 18.32C42.6156 18.4133 42.7673 18.5017 42.9873 18.585C43.2106 18.6683 43.5339 18.7633 43.9573 18.87C44.4339 18.99 44.8089 19.1217 45.0823 19.265C45.3589 19.405 45.5556 19.5717 45.6723 19.765C45.7889 19.955 45.8473 20.19 45.8473 20.47C45.8473 20.99 45.6556 21.4 45.2723 21.7C44.8889 21.9967 44.3606 22.145 43.6873 22.145ZM51.252 22.15C50.7153 22.15 50.252 22.0283 49.862 21.785C49.4753 21.5417 49.177 21.205 48.967 20.775C48.757 20.345 48.652 19.8517 48.652 19.295C48.652 18.7283 48.7586 18.2317 48.972 17.805C49.1853 17.3783 49.487 17.0467 49.877 16.81C50.267 16.57 50.7253 16.45 51.252 16.45C51.792 16.45 52.257 16.5717 52.647 16.815C53.037 17.055 53.3353 17.39 53.542 17.82C53.752 18.2467 53.857 18.7383 53.857 19.295C53.857 19.8583 53.752 20.355 53.542 20.785C53.332 21.2117 53.032 21.5467 52.642 21.79C52.252 22.03 51.7886 22.15 51.252 22.15ZM51.252 21.305C51.812 21.305 52.2286 21.1183 52.502 20.745C52.7753 20.3717 52.912 19.8883 52.912 19.295C52.912 18.685 52.7736 18.2 52.497 17.84C52.2203 17.4767 51.8053 17.295 51.252 17.295C50.8753 17.295 50.5653 17.38 50.322 17.55C50.0786 17.72 49.897 17.955 49.777 18.255C49.657 18.555 49.597 18.9017 49.597 19.295C49.597 19.9017 49.737 20.3883 50.017 20.755C50.297 21.1217 50.7086 21.305 51.252 21.305ZM55.4728 22V16.305C55.4728 16.165 55.4795 16.0233 55.4928 15.88C55.5061 15.7333 55.5361 15.5917 55.5828 15.455C55.6295 15.315 55.7061 15.1867 55.8128 15.07C55.9361 14.9333 56.0711 14.8367 56.2178 14.78C56.3645 14.72 56.5128 14.6833 56.6628 14.67C56.8161 14.6567 56.9611 14.65 57.0978 14.65H57.7828V15.39H57.1478C56.8845 15.39 56.6878 15.455 56.5578 15.585C56.4278 15.7117 56.3628 15.905 56.3628 16.165V22H55.4728ZM54.5578 17.335V16.6H57.7828V17.335H54.5578ZM63.4228 22.15C62.8661 22.15 62.3745 22.035 61.9478 21.805C61.5211 21.575 61.1861 21.2533 60.9428 20.84C60.7028 20.4233 60.5828 19.935 60.5828 19.375V14.805L61.4828 14.8V19.3C61.4828 19.64 61.5395 19.9367 61.6528 20.19C61.7695 20.44 61.9228 20.6483 62.1128 20.815C62.3028 20.9817 62.5111 21.1067 62.7378 21.19C62.9678 21.27 63.1961 21.31 63.4228 21.31C63.6528 21.31 63.8828 21.2683 64.1128 21.185C64.3428 21.1017 64.5511 20.9783 64.7378 20.815C64.9278 20.6483 65.0795 20.4383 65.1928 20.185C65.3061 19.9317 65.3628 19.6367 65.3628 19.3V14.8H66.2628V19.375C66.2628 19.9317 66.1411 20.4183 65.8978 20.835C65.6578 21.2517 65.3245 21.575 64.8978 21.805C64.4711 22.035 63.9795 22.15 63.4228 22.15ZM69.7029 22.145C69.0596 22.145 68.5312 22.005 68.1179 21.725C67.7079 21.4417 67.4562 21.0467 67.3629 20.54L68.2729 20.395C68.3462 20.6883 68.5146 20.9217 68.7779 21.095C69.0412 21.265 69.3679 21.35 69.7579 21.35C70.1279 21.35 70.4179 21.2733 70.6279 21.12C70.8379 20.9667 70.9429 20.7583 70.9429 20.495C70.9429 20.3417 70.9079 20.2183 70.8379 20.125C70.7679 20.0283 70.6229 19.9383 70.4029 19.855C70.1862 19.7717 69.8579 19.6717 69.4179 19.555C68.9412 19.4283 68.5662 19.2967 68.2929 19.16C68.0196 19.0233 67.8246 18.865 67.7079 18.685C67.5912 18.505 67.5329 18.2867 67.5329 18.03C67.5329 17.7133 67.6196 17.4367 67.7929 17.2C67.9662 16.96 68.2079 16.775 68.5179 16.645C68.8312 16.515 69.1946 16.45 69.6079 16.45C70.0179 16.45 70.3846 16.515 70.7079 16.645C71.0312 16.775 71.2912 16.96 71.4879 17.2C71.6879 17.4367 71.8062 17.7133 71.8429 18.03L70.9329 18.195C70.8896 17.905 70.7496 17.6767 70.5129 17.51C70.2796 17.3433 69.9779 17.255 69.6079 17.245C69.2579 17.2317 68.9729 17.2933 68.7529 17.43C68.5362 17.5667 68.4279 17.7517 68.4279 17.985C68.4279 18.115 68.4679 18.2267 68.5479 18.32C68.6312 18.4133 68.7829 18.5017 69.0029 18.585C69.2262 18.6683 69.5496 18.7633 69.9729 18.87C70.4496 18.99 70.8246 19.1217 71.0979 19.265C71.3746 19.405 71.5712 19.5717 71.6879 19.765C71.8046 19.955 71.8629 20.19 71.8629 20.47C71.8629 20.99 71.6712 21.4 71.2879 21.7C70.9046 21.9967 70.3762 22.145 69.7029 22.145ZM75.3056 22.15C74.7756 22.15 74.3123 22.0333 73.9156 21.8C73.5223 21.5633 73.2156 21.235 72.9956 20.815C72.7756 20.3917 72.6656 19.8983 72.6656 19.335C72.6656 18.745 72.774 18.235 72.9906 17.805C73.2073 17.3717 73.509 17.0383 73.8956 16.805C74.2856 16.5683 74.7423 16.45 75.2656 16.45C75.809 16.45 76.2706 16.575 76.6506 16.825C77.034 17.075 77.3206 17.4317 77.5106 17.895C77.704 18.3583 77.7873 18.91 77.7606 19.55H76.8606V19.23C76.8506 18.5667 76.7156 18.0717 76.4556 17.745C76.1956 17.415 75.809 17.25 75.2956 17.25C74.7456 17.25 74.3273 17.4267 74.0406 17.78C73.754 18.1333 73.6106 18.64 73.6106 19.3C73.6106 19.9367 73.754 20.43 74.0406 20.78C74.3273 21.13 74.7356 21.305 75.2656 21.305C75.6223 21.305 75.9323 21.2233 76.1956 21.06C76.459 20.8967 76.6656 20.6617 76.8156 20.355L77.6706 20.65C77.4606 21.1267 77.144 21.4967 76.7206 21.76C76.3006 22.02 75.829 22.15 75.3056 22.15ZM73.3106 19.55V18.835H77.3006V19.55H73.3106ZM100.27 22V14.8H103.115C103.185 14.8 103.269 14.8033 103.365 14.81C103.462 14.8133 103.555 14.8233 103.645 14.84C104.035 14.9 104.362 15.0333 104.625 15.24C104.892 15.4467 105.092 15.7083 105.225 16.025C105.359 16.3383 105.425 16.6867 105.425 17.07C105.425 17.45 105.357 17.7983 105.22 18.115C105.087 18.4283 104.887 18.69 104.62 18.9C104.357 19.1067 104.032 19.24 103.645 19.3C103.555 19.3133 103.462 19.3233 103.365 19.33C103.269 19.3367 103.185 19.34 103.115 19.34H101.16V22H100.27ZM101.16 18.495H103.085C103.149 18.495 103.22 18.4917 103.3 18.485C103.384 18.4783 103.462 18.4667 103.535 18.45C103.765 18.3967 103.952 18.3 104.095 18.16C104.242 18.0167 104.349 17.85 104.415 17.66C104.482 17.4667 104.515 17.27 104.515 17.07C104.515 16.87 104.482 16.675 104.415 16.485C104.349 16.2917 104.242 16.1233 104.095 15.98C103.952 15.8367 103.765 15.74 103.535 15.69C103.462 15.67 103.384 15.6583 103.3 15.655C103.22 15.6483 103.149 15.645 103.085 15.645H101.16V18.495ZM106.423 22V16.6H107.218V17.905L107.088 17.735C107.151 17.5683 107.233 17.415 107.333 17.275C107.436 17.135 107.551 17.02 107.678 16.93C107.818 16.8167 107.976 16.73 108.153 16.67C108.329 16.61 108.509 16.575 108.693 16.565C108.876 16.5517 109.048 16.5633 109.208 16.6V17.435C109.021 17.385 108.816 17.3717 108.593 17.395C108.369 17.4183 108.163 17.5 107.973 17.64C107.799 17.7633 107.664 17.9133 107.568 18.09C107.474 18.2667 107.409 18.4583 107.373 18.665C107.336 18.8683 107.318 19.0767 107.318 19.29V22H106.423ZM110.253 15.645V14.725H111.143V15.645H110.253ZM110.253 22V16.6H111.143V22H110.253ZM114.103 22L112.143 16.6H113.043L114.558 20.865L116.068 16.6H116.973L115.013 22H114.103ZM119.11 22.15C118.707 22.15 118.368 22.0767 118.095 21.93C117.825 21.78 117.62 21.5833 117.48 21.34C117.343 21.0967 117.275 20.83 117.275 20.54C117.275 20.2567 117.328 20.0117 117.435 19.805C117.545 19.595 117.698 19.4217 117.895 19.285C118.092 19.145 118.327 19.035 118.6 18.955C118.857 18.885 119.143 18.825 119.46 18.775C119.78 18.7217 120.103 18.6733 120.43 18.63C120.757 18.5867 121.062 18.545 121.345 18.505L121.025 18.69C121.035 18.21 120.938 17.855 120.735 17.625C120.535 17.395 120.188 17.28 119.695 17.28C119.368 17.28 119.082 17.355 118.835 17.505C118.592 17.6517 118.42 17.8917 118.32 18.225L117.475 17.97C117.605 17.4967 117.857 17.125 118.23 16.855C118.603 16.585 119.095 16.45 119.705 16.45C120.195 16.45 120.615 16.5383 120.965 16.715C121.318 16.8883 121.572 17.1517 121.725 17.505C121.802 17.6717 121.85 17.8533 121.87 18.05C121.89 18.2433 121.9 18.4467 121.9 18.66V22H121.11V20.705L121.295 20.825C121.092 21.2617 120.807 21.5917 120.44 21.815C120.077 22.0383 119.633 22.15 119.11 22.15ZM119.245 21.405C119.565 21.405 119.842 21.3483 120.075 21.235C120.312 21.1183 120.502 20.9667 120.645 20.78C120.788 20.59 120.882 20.3833 120.925 20.16C120.975 19.9933 121.002 19.8083 121.005 19.605C121.012 19.3983 121.015 19.24 121.015 19.13L121.325 19.265C121.035 19.305 120.75 19.3433 120.47 19.38C120.19 19.4167 119.925 19.4567 119.675 19.5C119.425 19.54 119.2 19.5883 119 19.645C118.853 19.6917 118.715 19.7517 118.585 19.825C118.458 19.8983 118.355 19.9933 118.275 20.11C118.198 20.2233 118.16 20.365 118.16 20.535C118.16 20.6817 118.197 20.8217 118.27 20.955C118.347 21.0883 118.463 21.1967 118.62 21.28C118.78 21.3633 118.988 21.405 119.245 21.405ZM125.475 22.15C124.928 22.15 124.463 22.0283 124.08 21.785C123.7 21.5383 123.41 21.2 123.21 20.77C123.01 20.34 122.907 19.85 122.9 19.3C122.907 18.7367 123.012 18.2417 123.215 17.815C123.422 17.385 123.717 17.05 124.1 16.81C124.483 16.57 124.945 16.45 125.485 16.45C126.055 16.45 126.545 16.59 126.955 16.87C127.368 17.15 127.645 17.5333 127.785 18.02L126.905 18.285C126.792 17.9717 126.607 17.7283 126.35 17.555C126.097 17.3817 125.805 17.295 125.475 17.295C125.105 17.295 124.8 17.3817 124.56 17.555C124.32 17.725 124.142 17.9617 124.025 18.265C123.908 18.565 123.848 18.91 123.845 19.3C123.852 19.9 123.99 20.385 124.26 20.755C124.533 21.1217 124.938 21.305 125.475 21.305C125.828 21.305 126.122 21.225 126.355 21.065C126.588 20.9017 126.765 20.6667 126.885 20.36L127.785 20.595C127.598 21.0983 127.307 21.4833 126.91 21.75C126.513 22.0167 126.035 22.15 125.475 22.15ZM129.36 24.4L130.405 21.56L130.42 22.4L128.06 16.6H128.995L130.845 21.265H130.525L132.26 16.6H133.165L130.225 24.4H129.36ZM135.993 22V14.8H138.838C138.908 14.8 138.991 14.8033 139.088 14.81C139.185 14.8133 139.278 14.8233 139.368 14.84C139.758 14.9 140.085 15.0333 140.348 15.24C140.615 15.4467 140.815 15.7083 140.948 16.025C141.081 16.3383 141.148 16.6867 141.148 17.07C141.148 17.45 141.08 17.7983 140.943 18.115C140.81 18.4283 140.61 18.69 140.343 18.9C140.08 19.1067 139.755 19.24 139.368 19.3C139.278 19.3133 139.185 19.3233 139.088 19.33C138.991 19.3367 138.908 19.34 138.838 19.34H136.883V22H135.993ZM136.883 18.495H138.808C138.871 18.495 138.943 18.4917 139.023 18.485C139.106 18.4783 139.185 18.4667 139.258 18.45C139.488 18.3967 139.675 18.3 139.818 18.16C139.965 18.0167 140.071 17.85 140.138 17.66C140.205 17.4667 140.238 17.27 140.238 17.07C140.238 16.87 140.205 16.675 140.138 16.485C140.071 16.2917 139.965 16.1233 139.818 15.98C139.675 15.8367 139.488 15.74 139.258 15.69C139.185 15.67 139.106 15.6583 139.023 15.655C138.943 15.6483 138.871 15.645 138.808 15.645H136.883V18.495ZM144.396 22.15C143.86 22.15 143.396 22.0283 143.006 21.785C142.62 21.5417 142.321 21.205 142.111 20.775C141.901 20.345 141.796 19.8517 141.796 19.295C141.796 18.7283 141.903 18.2317 142.116 17.805C142.33 17.3783 142.631 17.0467 143.021 16.81C143.411 16.57 143.87 16.45 144.396 16.45C144.936 16.45 145.401 16.5717 145.791 16.815C146.181 17.055 146.48 17.39 146.686 17.82C146.896 18.2467 147.001 18.7383 147.001 19.295C147.001 19.8583 146.896 20.355 146.686 20.785C146.476 21.2117 146.176 21.5467 145.786 21.79C145.396 22.03 144.933 22.15 144.396 22.15ZM144.396 21.305C144.956 21.305 145.373 21.1183 145.646 20.745C145.92 20.3717 146.056 19.8883 146.056 19.295C146.056 18.685 145.918 18.2 145.641 17.84C145.365 17.4767 144.95 17.295 144.396 17.295C144.02 17.295 143.71 17.38 143.466 17.55C143.223 17.72 143.041 17.955 142.921 18.255C142.801 18.555 142.741 18.9017 142.741 19.295C142.741 19.9017 142.881 20.3883 143.161 20.755C143.441 21.1217 143.853 21.305 144.396 21.305ZM148.202 22V14.65H149.092V22H148.202ZM150.693 15.645V14.725H151.583V15.645H150.693ZM150.693 22V16.6H151.583V22H150.693ZM155.358 22.15C154.811 22.15 154.346 22.0283 153.963 21.785C153.583 21.5383 153.293 21.2 153.093 20.77C152.893 20.34 152.789 19.85 152.783 19.3C152.789 18.7367 152.894 18.2417 153.098 17.815C153.304 17.385 153.599 17.05 153.983 16.81C154.366 16.57 154.828 16.45 155.368 16.45C155.938 16.45 156.428 16.59 156.838 16.87C157.251 17.15 157.528 17.5333 157.668 18.02L156.788 18.285C156.674 17.9717 156.489 17.7283 156.233 17.555C155.979 17.3817 155.688 17.295 155.358 17.295C154.988 17.295 154.683 17.3817 154.443 17.555C154.203 17.725 154.024 17.9617 153.908 18.265C153.791 18.565 153.731 18.91 153.728 19.3C153.734 19.9 153.873 20.385 154.143 20.755C154.416 21.1217 154.821 21.305 155.358 21.305C155.711 21.305 156.004 21.225 156.238 21.065C156.471 20.9017 156.648 20.6667 156.768 20.36L157.668 20.595C157.481 21.0983 157.189 21.4833 156.793 21.75C156.396 22.0167 155.918 22.15 155.358 22.15ZM159.243 24.4L160.288 21.56L160.303 22.4L157.943 16.6H158.878L160.728 21.265H160.408L162.143 16.6H163.048L160.108 24.4H159.243Z" fill="#E71583"/>
<path d="M17.4609 22.625H78.1706V22.875H17.4609V22.625ZM99.5703 22.625H163.173V22.875H99.5703V22.625Z" fill="#E71583"/>
</svg>
