<svg width="107" height="21" viewBox="0 0 107 21" fill="none" xmlns="http://www.w3.org/2000/svg">
<g clip-path="url(#clip0_311_82)">
<path fill-rule="evenodd" clip-rule="evenodd" d="M42.1854 16.4791C38.2738 19.3672 32.5977 20.9024 27.7156 20.9024C21.1989 20.9384 14.9029 18.5434 10.0579 14.1851C9.68732 13.8557 10.0167 13.4028 10.4579 13.6557C15.1521 16.363 20.4095 17.9466 25.818 18.2823C31.2266 18.6181 36.6394 17.6969 41.6325 15.5909C42.2971 15.3086 42.85 16.0262 42.2207 16.5026L42.1854 16.4791Z" fill="#F49800"/>
<path fill-rule="evenodd" clip-rule="evenodd" d="M43.8324 14.6202C43.3265 13.979 40.5208 14.3202 39.2621 14.4672C38.8797 14.5143 38.8209 14.179 39.1621 13.9378C41.4031 12.3674 45.0735 12.8203 45.497 13.3496C45.9205 13.879 45.3852 17.5612 43.2854 19.3199C42.9677 19.5905 42.656 19.4434 42.803 19.0905C43.2736 17.9141 44.3324 15.2672 43.8324 14.626V14.6202Z" fill="#F49800"/>
<path fill-rule="evenodd" clip-rule="evenodd" d="M39.3503 2.82713V1.2978C39.3487 1.24638 39.3576 1.19516 39.3765 1.14733C39.3955 1.09949 39.424 1.05604 39.4604 1.01966C39.4968 0.983282 39.5402 0.954747 39.5881 0.935815C39.6359 0.916884 39.6871 0.907956 39.7385 0.90959H46.5852C46.6374 0.907172 46.6895 0.915466 46.7383 0.933966C46.7872 0.952467 46.8317 0.980791 46.8692 1.01717C46.9066 1.05354 46.9363 1.09721 46.9562 1.14548C46.9762 1.19374 46.986 1.24558 46.9852 1.2978V2.60361C46.8981 2.9642 46.7199 3.29638 46.4675 3.56827L42.9383 8.63266C44.2918 8.56197 45.6397 8.85225 46.844 9.47378C46.9502 9.53226 47.0395 9.6171 47.1034 9.72012C47.1672 9.82314 47.2035 9.94088 47.2087 10.062V11.6913C47.2105 11.7523 47.197 11.8128 47.1693 11.8673C47.1417 11.9217 47.1008 11.9683 47.0505 12.0029C47.0001 12.0374 46.9419 12.0588 46.8812 12.065C46.8204 12.0712 46.7591 12.062 46.7028 12.0383C45.5838 11.4597 44.3423 11.1577 43.0824 11.1577C41.8226 11.1577 40.5811 11.4597 39.4621 12.0383C39.2268 12.1619 38.9739 11.9089 38.9739 11.6795V10.1326C38.9521 9.76355 39.0424 9.39658 39.2327 9.0797L43.3501 3.1977H39.768C39.7166 3.20012 39.6652 3.19197 39.6171 3.17377C39.5689 3.15557 39.5251 3.12767 39.4881 3.09184C39.4512 3.05601 39.422 3.01301 39.4023 2.96545C39.3827 2.9179 39.373 2.86682 39.3739 2.81537L39.3503 2.82713Z" fill="#333E47"/>
<path fill-rule="evenodd" clip-rule="evenodd" d="M14.3571 12.3735H12.2749C12.1806 12.3686 12.091 12.3304 12.0221 12.2658C11.9532 12.2012 11.9094 12.1144 11.8984 12.0206V1.32119C11.8992 1.2697 11.9102 1.21888 11.9308 1.17168C11.9514 1.12448 11.9811 1.08184 12.0184 1.04626C12.0556 1.01068 12.0995 0.982863 12.1476 0.964424C12.1957 0.945984 12.2469 0.937296 12.2984 0.938862H14.2395C14.3355 0.9415 14.4271 0.979629 14.4967 1.0459C14.5662 1.11217 14.6087 1.20187 14.6159 1.29766V2.69169H14.6571C14.8284 2.10392 15.1911 1.59022 15.6877 1.23215C16.1843 0.874092 16.7863 0.692201 17.3981 0.715343C18.7039 0.715343 19.5215 1.34471 20.1038 2.69169C20.2991 2.18413 20.6251 1.73727 21.0489 1.39646C21.4727 1.05564 21.9791 0.833028 22.5167 0.75119C23.0543 0.669353 23.604 0.731215 24.11 0.930497C24.616 1.12978 25.0602 1.45938 25.3976 1.88586C26.0564 2.7858 25.9211 4.09161 25.9211 5.23861V11.9853C25.9204 12.037 25.9094 12.0881 25.8889 12.1356C25.8684 12.1832 25.8387 12.2262 25.8016 12.2622C25.7644 12.2983 25.7205 12.3266 25.6724 12.3457C25.6243 12.3648 25.5729 12.3743 25.5212 12.3735H23.4389C23.3395 12.3691 23.2454 12.3272 23.1756 12.2563C23.1058 12.1853 23.0654 12.0906 23.0625 11.9911V6.315C23.0931 5.64785 23.0735 4.97933 23.0037 4.31513C22.9842 4.17407 22.937 4.03825 22.8649 3.91544C22.7929 3.79264 22.6973 3.68527 22.5836 3.59948C22.4699 3.51369 22.3405 3.45117 22.2026 3.4155C22.0647 3.37984 21.9212 3.37173 21.7802 3.39165C21.5091 3.39865 21.2462 3.48558 21.0243 3.6415C20.8025 3.79742 20.6316 4.0154 20.5332 4.26808C20.3609 4.93587 20.2954 5.62672 20.3391 6.315V11.9853C20.3383 12.037 20.3274 12.0881 20.3069 12.1356C20.2864 12.1832 20.2567 12.2262 20.2195 12.2622C20.1824 12.2983 20.1385 12.3266 20.0904 12.3457C20.0423 12.3648 19.9909 12.3743 19.9391 12.3735H17.8569C17.7575 12.3691 17.6634 12.3272 17.5936 12.2563C17.5237 12.1853 17.4833 12.0906 17.4805 11.9911V6.315C17.4805 5.1386 17.6746 3.374 16.1923 3.374C14.71 3.374 14.7571 5.08567 14.7571 6.315V11.9853C14.7563 12.0375 14.7452 12.0891 14.7243 12.137C14.7034 12.1849 14.6732 12.2282 14.6355 12.2643C14.5977 12.3005 14.5531 12.3287 14.5043 12.3475C14.4555 12.3662 14.4035 12.375 14.3512 12.3735H14.3571Z" fill="#333E47"/>
<path fill-rule="evenodd" clip-rule="evenodd" d="M52.9019 2.89755C51.3608 2.89755 51.2667 4.99154 51.2667 6.29735C51.2667 7.60315 51.2667 10.4147 52.8784 10.4147C54.49 10.4147 54.5724 8.16194 54.5724 6.79143C54.6052 5.83632 54.5002 4.88146 54.2606 3.9563C54.1974 3.64874 54.0249 3.37448 53.7752 3.18418C53.5254 2.99389 53.2152 2.90044 52.9019 2.92108V2.89755ZM52.9019 0.715332C55.9958 0.715332 57.6722 3.36812 57.6722 6.74438C57.6722 10.0089 55.8252 12.597 52.9019 12.597C49.8668 12.597 48.1963 9.94419 48.1963 6.63263C48.1963 3.32106 49.8727 0.715332 52.9019 0.715332Z" fill="#333E47"/>
<path fill-rule="evenodd" clip-rule="evenodd" d="M61.6608 12.3737H59.5844C59.485 12.3693 59.3909 12.3274 59.3211 12.2565C59.2513 12.1856 59.2109 12.0908 59.208 11.9914V1.28612C59.2197 1.18893 59.2671 1.09956 59.341 1.03541C59.415 0.971259 59.5101 0.936928 59.608 0.939087H61.5373C61.6233 0.941746 61.7062 0.972513 61.7731 1.02668C61.84 1.08086 61.8873 1.15544 61.9078 1.23906V2.87425H61.949C62.5372 1.40963 63.3489 0.715568 64.79 0.715568C65.27 0.692409 65.7475 0.796652 66.1742 1.01773C66.6008 1.2388 66.9614 1.56883 67.2193 1.97431C67.7663 2.8272 67.7663 4.26829 67.7663 5.30352V12.0384C67.752 12.1335 67.7034 12.22 67.6298 12.2818C67.5561 12.3435 67.4624 12.3762 67.3663 12.3737H65.2782C65.1869 12.3704 65.0996 12.3349 65.0318 12.2736C64.964 12.2123 64.9201 12.129 64.9077 12.0384V6.227C64.9077 5.0506 65.0429 3.34482 63.6019 3.34482C63.3397 3.3575 63.0868 3.44517 62.873 3.5974C62.6593 3.74964 62.4937 3.96003 62.396 4.20359C62.1389 4.84566 62.0264 5.53652 62.0666 6.227V11.9855C62.0636 12.0905 62.0193 12.1902 61.9433 12.2628C61.8674 12.3355 61.7659 12.3753 61.6608 12.3737Z" fill="#333E47"/>
<path fill-rule="evenodd" clip-rule="evenodd" d="M35.9909 12.3441C35.9238 12.4023 35.8405 12.4386 35.7522 12.448C35.6639 12.4575 35.5748 12.4397 35.4969 12.3971C35.0221 12.0089 34.6232 11.5363 34.3205 11.003C33.9092 11.5102 33.3833 11.9124 32.786 12.1762C32.1887 12.4401 31.5373 12.5581 30.8854 12.5206C29.1208 12.5206 27.762 11.4383 27.762 9.27372C27.736 8.54603 27.9357 7.82811 28.3338 7.21839C28.7318 6.60867 29.3088 6.13699 29.9854 5.86803C31.1148 5.36806 32.697 5.27984 33.9028 5.14456V4.87399C33.9691 4.35619 33.8811 3.83034 33.6499 3.36231C33.5122 3.18368 33.3332 3.0411 33.1283 2.94685C32.9234 2.85259 32.6987 2.80947 32.4735 2.82116C32.0902 2.79027 31.7087 2.90059 31.4011 3.13134C31.0934 3.3621 30.8807 3.69737 30.803 4.07403C30.7899 4.1679 30.7476 4.25529 30.6822 4.32388C30.6168 4.39247 30.5315 4.4388 30.4383 4.45636L28.4208 4.23872C28.3707 4.23171 28.3225 4.21451 28.2793 4.18818C28.2361 4.16184 28.1987 4.12692 28.1695 4.08559C28.1403 4.04425 28.1199 3.99737 28.1095 3.94784C28.0991 3.8983 28.0989 3.84716 28.1091 3.79757C28.5679 1.38595 30.7266 0.633066 32.6853 0.609538H32.8382C33.9519 0.580247 35.0399 0.947075 35.9086 1.64476C36.9203 2.59176 36.8262 3.8564 36.8262 5.23278V8.47964C36.836 9.19979 37.1151 9.89017 37.6085 10.4148C37.6451 10.4509 37.6742 10.494 37.6941 10.5414C37.7139 10.5889 37.7242 10.6398 37.7242 10.6913C37.7242 10.7427 37.7139 10.7937 37.6941 10.8411C37.6742 10.8886 37.6451 10.9316 37.6085 10.9677C37.185 11.3265 36.4321 11.9794 36.0086 12.35L35.9909 12.3441ZM33.8852 7.26208C33.9667 8.02114 33.8321 8.78777 33.497 9.4737C33.3641 9.74651 33.1601 9.97843 32.9065 10.1451C32.6529 10.3117 32.359 10.407 32.0559 10.4207C31.2559 10.4207 30.7854 9.83251 30.7854 8.90904C30.7854 7.14443 32.3794 6.81504 33.8852 6.81504V7.26208Z" fill="#333E47"/>
<path fill-rule="evenodd" clip-rule="evenodd" d="M8.65791 12.3441C8.59171 12.4018 8.50941 12.4378 8.42212 12.4473C8.33482 12.4567 8.24673 12.4392 8.1697 12.3971C7.69493 12.0089 7.29608 11.5363 6.9933 11.003C6.58149 11.5111 6.05458 11.9137 5.4562 12.1776C4.85782 12.4415 4.20519 12.5591 3.55233 12.5206C1.78773 12.5206 0.43487 11.4383 0.43487 9.27372C0.408864 8.54603 0.60858 7.82811 1.00664 7.21839C1.40469 6.60867 1.9816 6.13698 2.65827 5.86803C3.78761 5.36806 5.36987 5.27984 6.57568 5.14456V4.87399C6.64195 4.35619 6.55396 3.83034 6.32275 3.36231C6.18507 3.18367 6.00609 3.0411 5.80119 2.94685C5.59629 2.85259 5.37159 2.80947 5.14635 2.82116C4.76254 2.79134 4.38097 2.90196 4.07261 3.13242C3.76425 3.36288 3.55009 3.69749 3.46998 4.07403C3.45985 4.16809 3.41935 4.25629 3.35461 4.32528C3.28987 4.39427 3.20441 4.44028 3.11118 4.45635L1.08777 4.23872C1.03765 4.23171 0.989481 4.21451 0.94626 4.18817C0.903039 4.16184 0.865676 4.12692 0.836466 4.08559C0.807256 4.04425 0.786826 3.99737 0.776431 3.94784C0.766035 3.8983 0.765898 3.84716 0.776027 3.79757C1.23482 1.38595 3.39351 0.633066 5.3581 0.609538H5.51103C6.62478 0.580247 7.7128 0.947075 8.58144 1.64476C9.59314 2.59176 9.49315 3.85639 9.49315 5.23278V8.47964C9.50227 9.20105 9.78382 9.89234 10.2813 10.4148C10.318 10.4509 10.3471 10.494 10.3669 10.5414C10.3868 10.5889 10.397 10.6398 10.397 10.6913C10.397 10.7427 10.3868 10.7937 10.3669 10.8411C10.3471 10.8886 10.318 10.9316 10.2813 10.9677C9.85783 11.3265 9.10493 11.9794 8.68143 12.35L8.65791 12.3441ZM6.55803 7.26208C6.63603 8.02102 6.50163 8.7867 6.16982 9.4737C6.03691 9.7465 5.83292 9.97843 5.57932 10.1451C5.32571 10.3117 5.03188 10.407 4.72873 10.4207C3.92878 10.4207 3.45822 9.83251 3.45822 8.90903C3.45822 7.14443 5.05223 6.81504 6.55803 6.81504V7.26208Z" fill="#333E47"/>
<path fill-rule="evenodd" clip-rule="evenodd" d="M96.2579 16.2084V15.426C96.2579 15.2025 96.3638 15.0437 96.5991 15.0614C97.0907 15.1475 97.5926 15.1575 98.0872 15.0908C98.3639 15.0257 98.6203 14.8935 98.8337 14.7057C99.0471 14.518 99.2109 14.2805 99.3107 14.0144C99.6518 13.2321 99.8989 12.6027 100.022 12.1909L95.7109 1.45042C95.6344 1.26808 95.6168 0.926912 95.9815 0.926912H97.4755C97.5837 0.925232 97.6892 0.960435 97.7748 1.02672C97.8603 1.093 97.9207 1.18641 97.9461 1.29159L101.093 10.0205L104.093 1.29159C104.117 1.18588 104.177 1.09184 104.263 1.02539C104.349 0.958931 104.455 0.924138 104.563 0.926912H105.993C106.351 0.926912 106.334 1.26808 106.263 1.45042L101.963 12.5262C101.405 14.0026 100.664 16.3495 98.9931 16.7554C98.1622 16.9606 97.2895 16.9198 96.4814 16.6378C96.4107 16.5915 96.3534 16.5275 96.3152 16.4521C96.277 16.3768 96.2593 16.2927 96.2638 16.2084H96.2579Z" fill="#333E47"/>
<path fill-rule="evenodd" clip-rule="evenodd" d="M94.2346 11.7205C94.2346 11.7682 94.2252 11.8153 94.2068 11.8592C94.1884 11.9031 94.1614 11.943 94.1275 11.9763C94.0935 12.0097 94.0533 12.0361 94.0091 12.0537C93.9649 12.0714 93.9176 12.0801 93.87 12.0793H92.7994C92.6981 12.0804 92.6 12.0445 92.5231 11.9785C92.4463 11.9125 92.3961 11.8208 92.3818 11.7205L92.2759 10.9912C91.749 11.4314 91.1527 11.7812 90.5113 12.0264C89.8863 12.3044 89.2048 12.4321 88.5215 12.3994C87.8382 12.3667 87.172 12.1745 86.5763 11.8382C86.1386 11.5398 85.7841 11.1348 85.5464 10.6614C85.3086 10.1879 85.1955 9.66175 85.2176 9.13246C85.1925 8.28279 85.4935 7.45574 86.0587 6.82084C86.4839 6.3959 86.9938 6.06525 87.5552 5.8504C88.1167 5.63555 88.717 5.54131 89.3173 5.57384C90.2851 5.5634 91.2496 5.69015 92.1818 5.95029V4.48568C92.1818 2.99753 91.5525 2.3564 89.8996 2.3564C88.6852 2.35445 87.4788 2.55319 86.3292 2.9446C86.2827 2.94734 86.2361 2.93999 86.1927 2.92306C86.1493 2.90613 86.11 2.88 86.0776 2.84648C86.0452 2.81296 86.0204 2.77285 86.005 2.72887C85.9895 2.68489 85.9838 2.63809 85.9881 2.59167V1.77407C85.9956 1.67217 86.0332 1.5748 86.096 1.4942C86.1588 1.4136 86.2441 1.35339 86.341 1.32116C87.5441 0.854492 88.8211 0.607461 90.1114 0.591797C91.9936 0.591797 94.2288 1.0153 94.2288 3.91513V11.7205H94.2346ZM92.1818 9.5795V7.37375C91.4098 7.19652 90.6211 7.10187 89.829 7.0914C89.1277 7.04163 88.4342 7.26504 87.8939 7.71489C87.5887 8.05953 87.4267 8.50768 87.4409 8.96776C87.4215 9.24967 87.4739 9.5319 87.5932 9.78805C87.7126 10.0442 87.8949 10.2659 88.1233 10.4324C88.4648 10.6016 88.8378 10.6978 89.2186 10.7151C89.5993 10.7323 89.9795 10.6701 90.3349 10.5324C91.0164 10.3538 91.6507 10.0286 92.1936 9.5795H92.1818Z" fill="#333E47"/>
<path fill-rule="evenodd" clip-rule="evenodd" d="M78.4773 2.38579C80.8301 2.38579 81.4948 4.25038 81.4948 6.38555C81.4948 7.82664 81.2419 9.10892 80.4949 9.84417C80.2126 10.1056 79.8774 10.3034 79.5121 10.4241C79.1468 10.5449 78.7598 10.5858 78.3773 10.5441C77.3778 10.4731 76.4209 10.1112 75.6246 9.50302V3.3975C76.4457 2.76906 77.4438 2.41509 78.4773 2.38579ZM75.2599 16.5908H73.8306C73.7829 16.5916 73.7356 16.5829 73.6914 16.5652C73.6472 16.5475 73.607 16.5212 73.573 16.4878C73.5391 16.4544 73.5121 16.4146 73.4937 16.3707C73.4753 16.3268 73.4659 16.2796 73.4659 16.232V1.31526C73.4651 1.26715 73.474 1.21937 73.492 1.17476C73.5101 1.13016 73.5369 1.08965 73.5709 1.05563C73.6049 1.0216 73.6455 0.994761 73.6901 0.976716C73.7347 0.95867 73.7824 0.949785 73.8306 0.95058H74.9246C75.0268 0.949756 75.1257 0.98641 75.2027 1.05362C75.2796 1.12082 75.3293 1.21391 75.3422 1.31526L75.454 2.09169C76.4416 1.17965 77.7222 0.649884 79.0655 0.597656C82.5947 0.597656 83.7711 3.50338 83.7711 6.52673C83.7711 9.75595 82.0065 12.3558 79.0008 12.3558C77.7639 12.3592 76.5696 11.9045 75.6481 11.0794V16.232C75.6481 16.2796 75.6386 16.3268 75.6202 16.3707C75.6018 16.4146 75.5749 16.4544 75.5409 16.4878C75.507 16.5212 75.4667 16.5475 75.4225 16.5652C75.3783 16.5829 75.331 16.5916 75.2834 16.5908H75.2599Z" fill="#333E47"/>
</g>
<defs>
<clipPath id="clip0_311_82">
<rect width="105.876" height="20.3106" fill="white" transform="translate(0.422852 0.591797)"/>
</clipPath>
</defs>
</svg>
