<svg width="119" height="17" viewBox="0 0 119 17" fill="none" xmlns="http://www.w3.org/2000/svg">
<path d="M91.5314 16.0951H87.6792L90.1017 1.67188H93.9538L91.5314 16.0951Z" fill="#0066B3"/>
<path d="M84.423 1.67095L80.7297 11.5821L80.2928 9.46107L78.9823 2.94359C78.9823 2.94359 78.8235 1.63239 77.1555 1.63239H71.0794L71 1.90234C71 1.90234 72.8665 2.28799 75.0507 3.56063L78.4263 16.0942H82.4373L88.5928 1.67095H84.423Z" fill="#0066B3"/>
<path d="M114.803 16.0951H118.338L115.24 1.67188H112.143C110.713 1.67188 110.356 2.75169 110.356 2.75169L104.637 16.0951H108.648L109.442 13.9355H114.367L114.803 16.0951ZM110.554 10.966L112.58 5.56692L113.731 10.966H110.554Z" fill="#0066B3"/>
<path d="M104.915 5.14217L105.471 2.05698C105.471 2.05698 103.763 1.43994 101.976 1.43994C100.07 1.43994 95.5028 2.2498 95.5028 6.22199C95.5028 9.96279 100.864 10.0014 100.864 11.9682C100.864 13.935 96.0588 13.5879 94.4703 12.3538L93.9143 15.5933C93.9143 15.5933 95.622 16.4031 98.2827 16.4031C100.904 16.4031 104.915 15.0919 104.915 11.4668C104.915 7.72603 99.5138 7.37894 99.5138 5.72065C99.5138 4.02379 103.247 4.25518 104.915 5.14217Z" fill="#0066B3"/>
<path d="M80.2928 9.42249L78.9823 2.94359C78.9823 2.94359 78.8235 1.63239 77.1555 1.63239H71.0794L71 1.90234C71 1.90234 73.9388 2.48081 76.7187 4.71757C79.4191 6.80008 80.2928 9.42249 80.2928 9.42249Z" fill="#FAA634"/>
<path d="M64.9283 10.9972C64.6775 10.998 64.4293 11.0475 64.1979 11.143C63.9664 11.2384 63.7564 11.3779 63.5796 11.5535C63.4029 11.7291 63.2629 11.9373 63.1677 12.1663C63.0726 12.3952 63.0241 12.6404 63.025 12.8879V12.8916C63.0222 13.3912 63.2207 13.8715 63.5768 14.2268C63.933 14.582 64.4176 14.7832 64.924 14.786H64.9275C65.977 14.786 66.8309 13.9373 66.8309 12.8916C66.8323 12.6442 66.7843 12.399 66.6896 12.1699C66.595 11.9408 66.4555 11.7323 66.2792 11.5564C66.1029 11.3805 65.8931 11.2406 65.662 11.1446C65.4309 11.0487 65.1828 10.9986 64.9321 10.9972H64.9283ZM58.6676 9.53388C58.6676 8.10071 57.438 6.94048 55.9212 6.94048C54.4044 6.94048 53.1745 8.10256 53.1745 9.53388C53.1745 10.9652 54.406 12.1257 55.9228 12.1257C57.4396 12.1257 58.6676 10.9655 58.6676 9.53388ZM58.6784 4.49334H61.7076V14.5731H58.6784V13.9286C57.7949 14.5303 56.7465 14.8522 55.673 14.8513C52.7241 14.8513 50.3315 12.4711 50.3315 9.53388C50.3315 6.59667 52.723 4.21671 55.673 4.21671C56.7467 4.21506 57.7952 4.537 58.6784 5.13944V4.49334ZM34.4211 5.8067V4.49493H31.3173V14.5731H34.427V9.86817C34.427 8.28002 36.1545 7.4279 37.3539 7.4279H37.3895V4.49493C36.1593 4.49493 35.0294 5.01964 34.4211 5.8067ZM26.6898 9.53388C26.6898 8.10071 25.4601 6.94048 23.9431 6.94048C22.426 6.94048 21.1966 8.10256 21.1966 9.53388C21.1966 10.9652 22.4279 12.1257 23.9449 12.1257C25.462 12.1257 26.6898 10.9655 26.6898 9.53388ZM26.7005 4.49334H29.7327V14.5731H26.7005V13.9286C25.817 14.5302 24.7686 14.852 23.6951 14.8513C20.7462 14.8513 18.3536 12.4711 18.3536 9.53388C18.3536 6.59667 20.7449 4.21671 23.6951 4.21671C24.7688 4.21511 25.8173 4.53705 26.7005 5.13944V4.49334ZM44.945 4.22385C43.7352 4.22385 42.5894 4.59702 41.8219 5.62898V4.49493H38.8042V14.5731H41.8603V9.27708C41.8603 7.74527 42.8918 6.99338 44.1357 6.99338C45.467 6.99338 46.2345 7.78679 46.2345 9.25592V14.5731H49.2613V8.16419C49.2613 5.81913 47.3875 4.22359 44.9453 4.22359L44.945 4.22385ZM13.9381 14.5731H17.1114V0.00343824H13.9381V14.5731ZM0 14.5757H3.36062V0H0.00187654L0 14.5757ZM11.7538 0C11.7538 3.15513 10.5188 6.0918 8.31656 8.27341L12.9602 14.5757H8.8109L3.76568 7.72596L5.06854 6.75403C6.12891 5.96727 6.98809 4.94678 7.57747 3.77407C8.16684 2.60135 8.47007 1.30892 8.46293 0H11.7538Z" fill="#0A0B09"/>
</svg>
