<svg width="71" height="19" viewBox="0 0 71 19" fill="none" xmlns="http://www.w3.org/2000/svg">
<path d="M19.98 15V4.92H23.872C23.97 4.92 24.0797 4.92467 24.201 4.934C24.327 4.93867 24.453 4.95267 24.579 4.976C25.1063 5.05533 25.552 5.23967 25.916 5.529C26.2847 5.81367 26.5623 6.173 26.749 6.607C26.9403 7.041 27.036 7.52167 27.036 8.049C27.036 8.80967 26.8353 9.47 26.434 10.03C26.0327 10.59 25.4587 10.9423 24.712 11.087L24.355 11.171H21.009V15H19.98ZM26.084 15L24.096 10.898L25.083 10.52L27.267 15H26.084ZM21.009 10.191H23.844C23.928 10.191 24.026 10.1863 24.138 10.177C24.25 10.1677 24.3597 10.1513 24.467 10.128C24.8123 10.0533 25.0947 9.911 25.314 9.701C25.538 9.491 25.7037 9.24133 25.811 8.952C25.923 8.66267 25.979 8.36167 25.979 8.049C25.979 7.73633 25.923 7.43533 25.811 7.146C25.7037 6.852 25.538 6.6 25.314 6.39C25.0947 6.18 24.8123 6.03767 24.467 5.963C24.3597 5.93967 24.25 5.92567 24.138 5.921C24.026 5.91167 23.928 5.907 23.844 5.907H21.009V10.191ZM32.011 15.21C31.2737 15.21 30.6344 15.0467 30.093 14.72C29.5564 14.3933 29.1387 13.9337 28.84 13.341C28.5414 12.7483 28.392 12.053 28.392 11.255C28.392 10.429 28.539 9.715 28.833 9.113C29.127 8.511 29.54 8.04667 30.072 7.72C30.6087 7.39333 31.241 7.23 31.969 7.23C32.7157 7.23 33.3527 7.40267 33.88 7.748C34.4074 8.08867 34.8064 8.57867 35.077 9.218C35.3477 9.85733 35.4714 10.6203 35.448 11.507H34.398V11.143C34.3794 10.163 34.167 9.42333 33.761 8.924C33.3597 8.42467 32.7717 8.175 31.997 8.175C31.185 8.175 30.562 8.43867 30.128 8.966C29.6987 9.49333 29.484 10.2447 29.484 11.22C29.484 12.172 29.6987 12.9117 30.128 13.439C30.562 13.9617 31.1757 14.223 31.969 14.223C32.5104 14.223 32.9817 14.0993 33.383 13.852C33.789 13.6 34.1087 13.2383 34.342 12.767L35.301 13.138C35.0024 13.796 34.5614 14.307 33.978 14.671C33.3994 15.0303 32.7437 15.21 32.011 15.21ZM29.12 11.507V10.646H34.895V11.507H29.12ZM45.8124 15L45.8194 10.037C45.8194 9.45367 45.6561 8.99633 45.3294 8.665C45.0074 8.329 44.5967 8.161 44.0974 8.161C43.8127 8.161 43.5351 8.22633 43.2644 8.357C42.9937 8.48767 42.7697 8.69767 42.5924 8.987C42.4197 9.27633 42.3334 9.65433 42.3334 10.121L41.7244 9.946C41.7104 9.40467 41.8154 8.931 42.0394 8.525C42.2681 8.119 42.5807 7.804 42.9774 7.58C43.3787 7.35133 43.8314 7.237 44.3354 7.237C45.0961 7.237 45.7051 7.47267 46.1624 7.944C46.6197 8.41067 46.8484 9.043 46.8484 9.841L46.8414 15H45.8124ZM36.7894 15V7.44H37.7134V9.302H37.8254V15H36.7894ZM41.3114 15L41.3184 10.107C41.3184 9.505 41.1574 9.03133 40.8354 8.686C40.5181 8.336 40.0981 8.161 39.5754 8.161C39.0527 8.161 38.6304 8.34067 38.3084 8.7C37.9864 9.05467 37.8254 9.52833 37.8254 10.121L37.2094 9.785C37.2094 9.29967 37.3237 8.86567 37.5524 8.483C37.7811 8.09567 38.0937 7.79233 38.4904 7.573C38.8871 7.349 39.3374 7.237 39.8414 7.237C40.3221 7.237 40.7491 7.33967 41.1224 7.545C41.5004 7.75033 41.7967 8.049 42.0114 8.441C42.2261 8.833 42.3334 9.309 42.3334 9.869L42.3264 15H41.3114ZM51.7796 15.21C51.0282 15.21 50.3866 15.0397 49.8546 14.699C49.3226 14.3583 48.9142 13.887 48.6296 13.285C48.3449 12.683 48.2026 11.9923 48.2026 11.213C48.2026 10.4197 48.3472 9.72433 48.6366 9.127C48.9259 8.52967 49.3366 8.06533 49.8686 7.734C50.4052 7.398 51.0422 7.23 51.7796 7.23C52.5356 7.23 53.1796 7.40033 53.7116 7.741C54.2482 8.077 54.6566 8.546 54.9366 9.148C55.2212 9.74533 55.3636 10.4337 55.3636 11.213C55.3636 12.0063 55.2212 12.704 54.9366 13.306C54.6519 13.9033 54.2412 14.37 53.7046 14.706C53.1679 15.042 52.5262 15.21 51.7796 15.21ZM51.7796 14.223C52.6196 14.223 53.2449 13.9453 53.6556 13.39C54.0662 12.83 54.2716 12.1043 54.2716 11.213C54.2716 10.2983 54.0639 9.57033 53.6486 9.029C53.2379 8.48767 52.6149 8.217 51.7796 8.217C51.2149 8.217 50.7482 8.34533 50.3796 8.602C50.0156 8.854 49.7426 9.20633 49.5606 9.659C49.3832 10.107 49.2946 10.625 49.2946 11.213C49.2946 12.123 49.5046 12.8533 49.9246 13.404C50.3446 13.95 50.9629 14.223 51.7796 14.223ZM58.6783 15L55.9343 7.44H56.9773L59.2103 13.656L61.4293 7.44H62.4863L59.7423 15H58.6783ZM66.6692 15.21C65.9319 15.21 65.2926 15.0467 64.7512 14.72C64.2146 14.3933 63.7969 13.9337 63.4982 13.341C63.1996 12.7483 63.0502 12.053 63.0502 11.255C63.0502 10.429 63.1972 9.715 63.4912 9.113C63.7852 8.511 64.1982 8.04667 64.7302 7.72C65.2669 7.39333 65.8992 7.23 66.6272 7.23C67.3739 7.23 68.0109 7.40267 68.5382 7.748C69.0656 8.08867 69.4646 8.57867 69.7352 9.218C70.0059 9.85733 70.1296 10.6203 70.1062 11.507H69.0562V11.143C69.0376 10.163 68.8252 9.42333 68.4192 8.924C68.0179 8.42467 67.4299 8.175 66.6552 8.175C65.8432 8.175 65.2202 8.43867 64.7862 8.966C64.3569 9.49333 64.1422 10.2447 64.1422 11.22C64.1422 12.172 64.3569 12.9117 64.7862 13.439C65.2202 13.9617 65.8339 14.223 66.6272 14.223C67.1686 14.223 67.6399 14.0993 68.0412 13.852C68.4472 13.6 68.7669 13.2383 69.0002 12.767L69.9592 13.138C69.6606 13.796 69.2196 14.307 68.6362 14.671C68.0576 15.0303 67.4019 15.21 66.6692 15.21ZM63.7782 11.507V10.646H69.5532V11.507H63.7782Z" fill="#EB001B"/>
<path d="M0.888889 14.2222C0.888889 15.2 1.68889 16 2.66667 16H9.77778C10.7556 16 11.5556 15.2 11.5556 14.2222V3.55556H0.888889V14.2222ZM2.66667 5.33333H9.77778V14.2222H2.66667V5.33333ZM9.33333 0.888889L8.44444 0H4L3.11111 0.888889H0V2.66667H12.4444V0.888889H9.33333Z" fill="#EB001B"/>
</svg>
