<svg width="24" height="18" viewBox="0 0 24 18" fill="none" xmlns="http://www.w3.org/2000/svg">
<path d="M21.7237 2.79297H0.804582C0.359548 2.79297 0 3.08715 0 3.45128V6.74281H22.5283V3.45128C22.5283 3.08715 22.1687 2.79297 21.7237 2.79297ZM0 16.6174C0 16.9815 0.359548 17.2757 0.804582 17.2757H21.7237C22.1687 17.2757 22.5283 16.9815 22.5283 16.6174V8.55316H0V16.6174ZM14.5579 12.8322C14.5579 12.7416 14.6484 12.6676 14.7591 12.6676H18.9077C19.0183 12.6676 19.1088 12.7416 19.1088 12.8322V14.3133C19.1088 14.4039 19.0183 14.4779 18.9077 14.4779H14.7591C14.6484 14.4779 14.5579 14.4039 14.5579 14.3133V12.8322Z" fill="#B3B3B3"/>
<path d="M23.9983 4.43568C23.9983 5.17088 23.9935 5.90607 24.0003 6.64126C24.0036 6.98315 23.8782 7.25981 23.6118 7.48888C22.6442 8.32231 21.6815 9.16149 20.7139 9.99491C20.2606 10.3855 19.7366 10.3867 19.2846 9.99798C18.3065 9.1565 17.3321 8.3108 16.356 7.46701C16.1085 7.25252 15.9885 6.98545 15.9885 6.66774C15.9889 5.1655 15.9872 3.66289 15.9893 2.16065C15.9901 1.6223 16.3277 1.22555 16.8865 1.14228C17.89 0.992632 18.8944 0.847205 19.9028 0.731708C20.1753 0.700243 20.4628 0.775067 20.7418 0.812288C21.5145 0.914739 22.2872 1.01834 23.0586 1.13115C23.666 1.22017 23.9971 1.60005 23.9983 2.19173C23.9999 2.93959 23.9983 3.68745 23.9983 4.43568ZM18.6595 4.30139C18.3724 4.55732 18.0991 4.80136 17.8132 5.05615C18.4751 5.64515 19.1265 6.22455 19.7904 6.81509C20.834 5.8865 21.8675 4.96751 22.9098 4.04046C22.6195 3.78222 22.3462 3.53895 22.0628 3.28723C21.3002 3.96449 20.5502 4.63099 19.7908 5.30594C19.4136 4.97096 19.0456 4.64442 18.6595 4.30139Z" fill="#E72E80"/>
<path d="M18.6595 4.30169C19.0461 4.64473 19.4136 4.97127 19.79 5.30587C20.5494 4.6313 21.2998 3.96479 22.062 3.28716C22.3454 3.53925 22.6188 3.78214 22.9091 4.04038C21.8671 4.96743 20.8336 5.88642 19.7896 6.81501C19.1261 6.22486 18.4743 5.64507 17.8124 5.05607C18.0987 4.80128 18.3724 4.55763 18.6595 4.30169Z" fill="white"/>
</svg>
