<svg width="33" height="33" viewBox="0 0 33 33" fill="none" xmlns="http://www.w3.org/2000/svg">
<rect width="33" height="33" rx="3" fill="#59B9AF" fill-opacity="0.13"/>
<path d="M8.89983 17.8001H9.79985V23.4C9.79985 24.2824 10.6072 25 11.5999 25H22.4001C23.3928 25 24.2002 24.2824 24.2002 23.4V17.8001H25.1002C25.2782 17.8 25.4521 17.7531 25.6001 17.6652C25.7481 17.5773 25.8634 17.4524 25.9315 17.3062C25.9996 17.16 26.0174 16.9992 25.9827 16.8441C25.948 16.6889 25.8623 16.5464 25.7365 16.4345L17.6363 9.23456C17.5528 9.1602 17.4536 9.10121 17.3444 9.06096C17.2352 9.02072 17.1182 9 17 9C16.8818 9 16.7648 9.02072 16.6556 9.06096C16.5464 9.10121 16.4472 9.1602 16.3637 9.23456L8.26351 16.4345C8.13768 16.5464 8.052 16.6889 8.01728 16.8441C7.98257 16.9992 8.0004 17.16 8.0685 17.3062C8.1366 17.4524 8.25193 17.5773 8.3999 17.6652C8.54788 17.7531 8.72185 17.8 8.89983 17.8001ZM15.2 23.4V19.4001H18.8V23.4H15.2ZM17 10.9313L22.4001 15.7313V19.4001L22.401 23.4H20.6001V19.4001C20.6001 18.5177 19.7928 17.8001 18.8 17.8001H15.2C14.2072 17.8001 13.3999 18.5177 13.3999 19.4001V23.4H11.5999V15.7313L17 10.9313Z" fill="#27544F"/>
</svg>
