<svg width="90" height="90" viewBox="0 0 90 90" fill="none" xmlns="http://www.w3.org/2000/svg">
<g filter="url(#filter0_d_2_444)">
<circle cx="44" cy="44" r="35" fill="white"/>
</g>
<path d="M55.753 35.122C55.565 38.2551 56.1399 40.6638 57.363 43.0674C60.1007 48.4468 59.4152 53.6303 55.2265 58.1359C51.0267 62.6518 45.5002 64.0115 39.4955 62.2639C30.9508 59.7778 26.5492 51.2435 30.4118 43.5262C31.7205 40.91 32.3024 38.3337 32.2457 35.4945C32.178 32.0869 32.7252 28.767 35.5223 26.2371C38.9441 23.1402 43.166 22.3308 47.5745 23.5294C51.9747 24.7254 54.6433 27.754 55.489 32.0109C55.7253 33.1966 55.6991 34.4287 55.753 35.122ZM44.0035 37.4135C37.388 37.4225 31.6321 42.5957 31.6266 48.5396C31.621 55.3715 36.9803 60.5305 44.0698 60.5176C50.6604 60.506 56.5269 55.1124 56.4094 49.001C56.2892 42.7439 50.8055 37.3684 44.0035 37.4135ZM52.4266 37.1145C52.3036 35.3321 52.3229 33.8758 52.0839 32.4581C51.274 27.6741 45.438 24.8233 40.7158 26.848C37.0328 28.4281 35.3814 31.2621 35.5527 35.711C35.6053 37.0655 35.7269 37.1325 37.1102 36.5771C40.6273 35.1671 44.2357 34.5537 47.9932 35.6092C49.3199 35.9829 50.601 36.4894 52.4266 37.1145Z" fill="black"/>
<path d="M44.7471 34H43.2529C35.3812 34 29 40.3306 29 48.1398V49.6221C29 57.4313 35.3812 63.7619 43.2529 63.7619H44.7471C52.6188 63.7619 59 57.4313 59 49.6221V48.1398C59 40.3306 52.6188 34 44.7471 34Z" fill="black"/>
<path d="M43.9981 41.6135C42.2414 41.6156 40.5573 42.3428 39.3152 43.6355C38.0731 44.9282 37.3744 46.6809 37.3723 48.5091V58.9674C37.4019 58.9901 37.433 59.0095 37.4641 59.0305C38.051 59.4256 38.6697 59.7668 39.3134 60.0503C39.5187 60.141 39.724 60.2251 39.9355 60.3012H39.9557V60.2624L39.9402 57.0881L39.9091 57.0719V57.0282L39.9417 57.0444L39.9293 53.9527C40.7615 54.6278 41.7367 55.0862 42.7735 55.2899C43.8104 55.4936 44.879 55.4366 45.8904 55.1236C46.9019 54.8107 47.8269 54.2509 48.5884 53.4908C49.35 52.7307 49.9261 51.7924 50.2689 50.7537C50.6116 49.7151 50.711 48.6064 50.5589 47.5197C50.4068 46.433 50.0074 45.3999 49.3942 44.5063C48.7809 43.6126 47.9714 42.8843 47.0331 42.382C46.0948 41.8797 45.0548 41.6179 43.9996 41.6183L43.9981 41.6135ZM43.9981 52.7662C43.189 52.7662 42.3982 52.5166 41.7255 52.0488C41.0528 51.581 40.5285 50.9161 40.2189 50.1382C39.9093 49.3603 39.8283 48.5044 39.9861 47.6786C40.1439 46.8528 40.5335 46.0942 41.1056 45.4988C41.6777 44.9035 42.4065 44.498 43.2 44.3337C43.9935 44.1695 44.816 44.2538 45.5634 44.576C46.3109 44.8982 46.9497 45.4439 47.3992 46.1439C47.8487 46.844 48.0886 47.6671 48.0886 48.5091C48.0874 49.6378 47.656 50.7198 46.8891 51.5179C46.1223 52.316 45.0826 52.7649 43.9981 52.7662Z" fill="#E63081"/>
<path d="M51.9249 58.089H56.1965V60.9934H43.9951C43.6939 60.9934 43.3944 60.9824 43.0979 60.9621C42.9607 60.9511 42.8251 60.9402 42.6879 60.9245H42.6564C41.7139 60.8247 40.7866 60.6147 39.8938 60.2989V60.2614L39.8812 57.1803V57.1381C41.9649 58.1651 44.3609 58.3804 46.5968 57.7415C48.8326 57.1026 50.7459 55.6558 51.9593 53.6866C53.1727 51.7174 53.5981 49.3687 53.1516 47.1037C52.705 44.8388 51.419 42.822 49.5472 41.4512C47.6753 40.0803 45.3535 39.455 43.0397 39.6985C40.7259 39.942 38.5881 41.0366 37.0479 42.7665C35.5078 44.4964 34.677 46.7359 34.7196 49.0434C34.7621 51.3508 35.6749 53.5587 37.2779 55.2316V59.0008C35.2683 57.6819 33.6962 55.8037 32.7587 53.6019C31.8946 51.5784 31.6018 49.3598 31.9119 47.1839C32.2219 45.008 33.1231 42.9568 34.5187 41.25C35.9144 39.5433 37.752 38.2455 39.8345 37.4955C41.9171 36.7456 44.1661 36.5719 46.3406 36.993C48.5151 37.4141 50.5331 38.4141 52.1783 39.8859C53.8235 41.3577 55.034 43.2459 55.6799 45.3479C56.3259 47.45 56.383 49.6868 55.8451 51.8186C55.3072 53.9504 54.1947 55.8968 52.6266 57.4493C52.398 57.673 52.1646 57.8857 51.9249 58.089Z" fill="white"/>
<defs>
<filter id="filter0_d_2_444" x="0" y="0" width="90" height="90" filterUnits="userSpaceOnUse" color-interpolation-filters="sRGB">
<feFlood flood-opacity="0" result="BackgroundImageFix"/>
<feColorMatrix in="SourceAlpha" type="matrix" values="0 0 0 0 0 0 0 0 0 0 0 0 0 0 0 0 0 0 127 0" result="hardAlpha"/>
<feMorphology radius="1" operator="dilate" in="SourceAlpha" result="effect1_dropShadow_2_444"/>
<feOffset dx="1" dy="1"/>
<feGaussianBlur stdDeviation="4.5"/>
<feComposite in2="hardAlpha" operator="out"/>
<feColorMatrix type="matrix" values="0 0 0 0 0 0 0 0 0 0 0 0 0 0 0 0 0 0 0.25 0"/>
<feBlend mode="normal" in2="BackgroundImageFix" result="effect1_dropShadow_2_444"/>
<feBlend mode="normal" in="SourceGraphic" in2="effect1_dropShadow_2_444" result="shape"/>
</filter>
</defs>
</svg>
