<svg width="133" height="23" viewBox="0 0 133 23" fill="none" xmlns="http://www.w3.org/2000/svg">
<path d="M29.8131 7.39478V15.9272H28.4982V8.7234H27.0005V7.39478H29.8131Z" fill="#010101"/>
<path d="M31.5005 11.9456H34.8756V13.0832H31.5005V11.9456Z" fill="#010101"/>
<path d="M37.6763 15.5301C37.1636 15.2753 36.7364 14.8875 36.4436 14.4113C36.1533 13.9181 36.0007 13.3618 36.0007 12.7959C36.0007 12.2301 36.1533 11.6737 36.4436 11.1806C36.7371 10.7094 37.1618 10.3254 37.6704 10.0713C38.2226 9.79761 38.8376 9.66002 39.4596 9.67099C40.0355 9.65871 40.6053 9.78453 41.1172 10.0369C41.581 10.2697 41.9559 10.6366 42.1884 11.0853L41.0394 11.7257C40.8731 11.4594 40.6356 11.2403 40.3512 11.091C39.9823 10.9098 39.5637 10.8423 39.153 10.8976C38.7423 10.9528 38.3595 11.1283 38.0573 11.3998C37.6903 11.7467 37.5068 12.2098 37.5068 12.7893C37.5068 13.3687 37.6883 13.8319 38.0513 14.1788C38.3542 14.4491 38.7369 14.6238 39.1473 14.6791C39.5577 14.7343 39.976 14.6674 40.3453 14.4875C40.6296 14.3382 40.8672 14.1191 41.0334 13.8528L42.1884 14.5009C41.9479 14.9493 41.57 15.317 41.1052 15.5549C40.5985 15.8101 40.0323 15.938 39.4596 15.9266C38.84 15.9374 38.2273 15.8012 37.6763 15.5301Z" fill="#010101"/>
<path d="M43.3132 6.82599H45.0008V15.9273H43.3132V6.82599Z" fill="#010101"/>
<path d="M46.9307 8.34129C46.8541 8.26006 46.7931 8.16225 46.7514 8.05382C46.7097 7.94539 46.6882 7.82861 46.6882 7.7106C46.6882 7.59258 46.7097 7.4758 46.7514 7.36737C46.7931 7.25894 46.8541 7.16113 46.9307 7.0799C47.0935 6.91038 47.3094 6.81933 47.5318 6.82645C47.7523 6.81888 47.9672 6.90527 48.1329 7.06811C48.2109 7.14303 48.2731 7.23632 48.3151 7.34129C48.357 7.44625 48.3777 7.56029 48.3755 7.67523C48.3783 7.79665 48.3586 7.91742 48.3178 8.02999C48.277 8.14255 48.2158 8.24451 48.1382 8.3295C48.0587 8.41761 47.9638 8.4866 47.8595 8.53221C47.7553 8.57783 47.6437 8.59911 47.5318 8.59474C47.3094 8.60186 47.0935 8.51081 46.9307 8.34129ZM46.8674 9.63018H48.1857V15.9273H46.8674V9.63018Z" fill="#010101"/>
<path d="M51.1763 15.5301C50.6636 15.2752 50.2364 14.8874 49.9436 14.4112C49.6533 13.9181 49.5007 13.3617 49.5007 12.7959C49.5007 12.23 49.6533 11.6737 49.9436 11.1805C50.2371 10.7093 50.6618 10.3253 51.1704 10.0712C51.7226 9.79755 52.3376 9.65996 52.9596 9.67092C53.5355 9.65865 54.1053 9.78447 54.6172 10.0369C55.081 10.2697 55.4559 10.6366 55.6884 11.0852L54.5424 11.7333C54.3761 11.467 54.1386 11.2479 53.8542 11.0985C53.4853 10.9174 53.0667 10.8498 52.656 10.9051C52.2453 10.9604 51.8625 11.1358 51.5603 11.4073C51.1933 11.7542 51.0098 12.2174 51.0098 12.7968C51.0098 13.3763 51.19 13.8394 51.5503 14.1863C51.8532 14.4567 52.2359 14.6314 52.6463 14.6866C53.0567 14.7419 53.475 14.675 53.8443 14.4951C54.1286 14.3457 54.3662 14.1267 54.5324 13.8604L55.6814 14.5008C55.4427 14.9483 55.0674 15.3158 54.6052 15.5549C54.0985 15.8101 53.5323 15.938 52.9596 15.9265C52.34 15.9373 51.7273 15.8011 51.1763 15.5301Z" fill="#010101"/>
<path d="M59.2434 13.1171L58.2069 14.197V15.9273H56.8137V6.82599H58.2069V12.3236L61.0954 9.37231H62.7673L60.2818 12.1232L63.0013 15.9273H61.3072L59.2434 13.1171Z" fill="#010101"/>
<path d="M68.4893 15.531C68.0119 15.2718 67.6177 14.8847 67.3515 14.4139C67.0725 13.9193 66.9302 13.3605 66.9389 12.7938C66.9297 12.2289 67.0721 11.6718 67.3515 11.1796C67.6191 10.7112 68.0131 10.3264 68.4893 10.0683C68.994 9.79783 69.5604 9.66086 70.1339 9.67059C70.6292 9.66196 71.1197 9.7681 71.5664 9.98057C71.9799 10.1811 72.3262 10.4959 72.5636 10.8871L71.9358 11.3082C71.7425 11.0155 71.4734 10.7798 71.1567 10.6259C70.837 10.4726 70.486 10.3946 70.131 10.3978C69.7089 10.3913 69.2924 10.4941 68.9225 10.6961C68.567 10.8928 68.2763 11.1873 68.0855 11.5441C67.8877 11.9332 67.7848 12.3629 67.7848 12.7987C67.7848 13.2344 67.8877 13.6641 68.0855 14.0532C68.2776 14.4075 68.5681 14.6998 68.9225 14.8954C69.2924 15.0974 69.7089 15.2002 70.131 15.1937C70.4854 15.197 70.836 15.1211 71.1567 14.9715C71.4747 14.8194 71.7443 14.5833 71.9358 14.2891L72.5607 14.7102C72.3224 15.1026 71.9742 15.4176 71.5585 15.6168C71.1132 15.828 70.6246 15.9341 70.131 15.9267C69.5586 15.9366 68.9933 15.8003 68.4893 15.531Z" fill="#E71583"/>
<path d="M78.6356 10.129C79.0877 10.5995 79.3138 11.2846 79.3138 12.1845V15.9273H78.4884V12.2704C78.4884 11.5996 78.3295 11.0883 78.0117 10.7365C77.6939 10.3847 77.2418 10.2088 76.6553 10.2088C75.9965 10.2088 75.4753 10.4154 75.0916 10.8285C74.7079 11.2417 74.5155 11.813 74.5142 12.5424V15.9273H73.6887V6.82599H74.5142V10.6097C74.74 10.2323 75.0625 9.93026 75.4443 9.73841C75.8681 9.52761 76.3322 9.42263 76.8006 9.43162C77.5705 9.42617 78.1822 9.65864 78.6356 10.129Z" fill="#E71583"/>
<path d="M87.1784 13.05H81.8602C81.8733 13.3444 81.9474 13.6333 82.0782 13.8995C82.209 14.1657 82.3939 14.4037 82.6217 14.5994C83.081 14.9931 83.6611 15.1899 84.3622 15.1899C84.7354 15.194 85.1056 15.1244 85.45 14.9853C85.7793 14.8496 86.0727 14.6438 86.3082 14.3831L86.7917 14.921C86.5074 15.2501 86.1444 15.507 85.734 15.6694C85.2912 15.8446 84.8164 15.9321 84.338 15.9266C83.7336 15.9382 83.1364 15.7993 82.6035 15.5232C82.1108 15.2645 81.7026 14.8777 81.425 14.4065C81.1386 13.9144 80.9926 13.3574 81.002 12.7927C80.9918 12.2304 81.1305 11.6749 81.4049 11.179C81.661 10.7167 82.0445 10.3322 82.5129 10.0681C82.9962 9.79999 83.5452 9.66266 84.1023 9.67053C84.6575 9.66217 85.2047 9.79957 85.6857 10.0681C86.1509 10.331 86.5317 10.7135 86.7856 11.1732C87.0603 11.671 87.199 12.2285 87.1885 12.7927L87.1784 13.05ZM82.5673 10.951C82.1476 11.3403 81.8958 11.8687 81.8622 12.4302H86.3706C86.3371 11.8687 86.0852 11.3403 85.6656 10.951C85.2387 10.5856 84.6884 10.3839 84.1184 10.3839C83.5484 10.3839 82.9982 10.5856 82.5713 10.951H82.5673Z" fill="#E71583"/>
<path d="M89.8646 15.5291C89.3875 15.2703 88.9935 14.8832 88.7277 14.4124C88.4482 13.9182 88.3056 13.3594 88.3144 12.7928C88.3051 12.228 88.4478 11.6709 88.7277 11.1791C88.9948 10.7107 89.3886 10.3259 89.8646 10.0682C90.369 9.79778 90.935 9.66086 91.5082 9.67059C92.0031 9.66197 92.4932 9.76807 92.9396 9.98047C93.3545 10.1805 93.7018 10.4961 93.9391 10.8887L93.3147 11.3097C93.1222 11.0169 92.8535 10.7812 92.5371 10.6275C92.2176 10.4743 91.8669 10.3963 91.5121 10.3995C91.0903 10.393 90.6741 10.4958 90.3045 10.6977C89.949 10.8941 89.6584 11.1886 89.468 11.5455C89.2704 11.9345 89.1675 12.364 89.1675 12.7996C89.1675 13.2352 89.2704 13.6648 89.468 14.0538C89.6598 14.4082 89.9501 14.7004 90.3045 14.8957C90.6741 15.0976 91.0903 15.2003 91.5121 15.1939C91.8662 15.1972 92.2166 15.1213 92.5371 14.9717C92.8548 14.8199 93.1239 14.5838 93.3147 14.2896L93.9391 14.7105C93.7013 15.103 93.3533 15.418 92.9377 15.6168C92.493 15.828 92.005 15.934 91.5121 15.9267C90.9376 15.9371 90.3702 15.8001 89.8646 15.5291Z" fill="#E71583"/>
<path d="M97.2834 12.6876L95.8724 14.0866V15.9273H95.0645V6.82599H95.8724V12.9985L99.4454 9.47457H100.447L97.8865 12.1129L100.69 15.9273H99.6996L97.2834 12.6876Z" fill="#E71583"/>
<path d="M102.767 15.5219C102.303 15.2596 101.919 14.8734 101.656 14.4053C101.391 13.9099 101.252 13.3553 101.252 12.7919C101.252 12.2284 101.391 11.6738 101.656 11.1784C101.918 10.7112 102.302 10.3266 102.767 10.0677C103.255 9.80658 103.799 9.6701 104.351 9.6701C104.903 9.6701 105.447 9.80658 105.935 10.0677C106.4 10.3265 106.782 10.712 107.04 11.1803C107.302 11.6769 107.439 12.231 107.439 12.7938C107.439 13.3566 107.302 13.9107 107.04 14.4073C106.782 14.8756 106.399 15.2621 105.936 15.5239C105.449 15.7886 104.905 15.9272 104.352 15.9272C103.799 15.9272 103.255 15.7886 102.768 15.5239L102.767 15.5219ZM105.513 14.8905C105.856 14.692 106.135 14.3977 106.317 14.0429C106.507 13.6538 106.606 13.2258 106.606 12.7919C106.606 12.3579 106.507 11.9299 106.317 11.5408C106.135 11.186 105.856 10.8917 105.513 10.6932C105.157 10.4975 104.757 10.3951 104.351 10.3951C103.945 10.3951 103.546 10.4975 103.189 10.6932C102.846 10.8926 102.565 11.1865 102.38 11.5408C102.186 11.9287 102.085 12.3572 102.085 12.7919C102.085 13.2265 102.186 13.655 102.38 14.0429C102.565 14.3972 102.846 14.6911 103.189 14.8905C103.546 15.0862 103.945 15.1886 104.351 15.1886C104.757 15.1886 105.157 15.0862 105.513 14.8905Z" fill="#E71583"/>
<path d="M114.752 9.67017V15.8679H113.953V14.7364C113.739 15.1082 113.426 15.4124 113.049 15.6145C112.643 15.828 112.191 15.9354 111.734 15.9268C110.927 15.9268 110.291 15.7009 109.826 15.2491C109.36 14.7973 109.127 14.1353 109.127 13.2631V9.67017H109.961V13.1825C109.961 13.8373 110.121 14.3324 110.442 14.6676C110.763 15.0029 111.22 15.1718 111.812 15.1744C112.464 15.1744 112.977 14.976 113.35 14.5792C113.723 14.1824 113.911 13.6304 113.914 12.9232V9.67017H114.752Z" fill="#E71583"/>
<path d="M120.377 15.5037C120.197 15.6477 119.986 15.755 119.757 15.8186C119.508 15.8914 119.248 15.9281 118.986 15.9273C118.367 15.9273 117.891 15.7747 117.557 15.4693C117.223 15.164 117.055 14.7327 117.055 14.1755V10.5344H115.877V9.84928H117.055V8.53253H117.945V9.84928H119.951V10.5363H117.945V14.1316C117.945 14.4904 118.044 14.7632 118.24 14.9503C118.436 15.1373 118.718 15.2308 119.086 15.2308C119.267 15.2312 119.447 15.2041 119.619 15.1506C119.782 15.1014 119.933 15.0236 120.064 14.9216L120.377 15.5037Z" fill="#E71583"/>
<path d="M12.0728 0H10.9272C4.89228 0 0 4.89228 0 10.9272V12.0728C0 18.1077 4.89228 23 10.9272 23H12.0728C18.1077 23 23 18.1077 23 12.0728V10.9272C23 4.89228 18.1077 0 12.0728 0Z" fill="#131313"/>
<path d="M11.5304 7.39478C10.4123 7.39608 9.34034 7.83877 8.5497 8.62574C7.75905 9.41271 7.3143 10.4797 7.31299 11.5926V17.9594C7.3318 17.9732 7.3516 17.985 7.3714 17.9978C7.74497 18.2383 8.13883 18.446 8.54852 18.6186C8.67921 18.6738 8.80989 18.7251 8.94453 18.7714H8.9574V18.7477L8.9475 16.8153L8.9277 16.8055V16.7789L8.94849 16.7887L8.94057 14.9066C9.47031 15.3176 10.091 15.5966 10.751 15.7206C11.411 15.8446 12.0912 15.8099 12.735 15.6194C13.3788 15.4289 13.9676 15.0881 14.4523 14.6254C14.9371 14.1627 15.3038 13.5914 15.522 12.9591C15.7401 12.3269 15.8034 11.6519 15.7066 10.9903C15.6097 10.3288 15.3555 9.69983 14.9652 9.15581C14.5748 8.61179 14.0596 8.16843 13.4623 7.86264C12.8651 7.55684 12.2031 7.39745 11.5314 7.39773L11.5304 7.39478ZM11.5304 14.1843C11.0155 14.1843 10.5121 14.0323 10.0839 13.7475C9.6557 13.4627 9.32197 13.058 9.1249 12.5844C8.92783 12.1109 8.87627 11.5898 8.97673 11.087C9.0772 10.5843 9.32518 10.1225 9.68932 9.76007C10.0535 9.39762 10.5174 9.15079 11.0225 9.05079C11.5275 8.95079 12.0511 9.00212 12.5268 9.19828C13.0026 9.39443 13.4093 9.72661 13.6954 10.1528C13.9815 10.579 14.1342 11.0801 14.1342 11.5926C14.1334 12.2797 13.8588 12.9385 13.3707 13.4243C12.8826 13.9102 12.2207 14.1835 11.5304 14.1843Z" fill="#E63081"/>
<path d="M16.298 17.1201H18.8845V18.8928H11.4964C11.3141 18.8928 11.1327 18.8861 10.9532 18.8737C10.8701 18.8671 10.788 18.8604 10.7049 18.8508H10.6858C10.1151 18.7899 9.55366 18.6617 9.01306 18.469V18.4461L9.00542 16.5655V16.5398C10.2671 17.1666 11.718 17.298 13.0718 16.908C14.4256 16.5181 15.5841 15.6351 16.3188 14.4331C17.0536 13.2312 17.3111 11.7977 17.0408 10.4152C16.7704 9.03281 15.9917 7.80185 14.8583 6.96516C13.7248 6.12847 12.319 5.74679 10.918 5.89541C9.51692 6.04402 8.22245 6.71213 7.28985 7.76797C6.35726 8.82381 5.85424 10.1907 5.88001 11.5991C5.90578 13.0075 6.45848 14.3551 7.42908 15.3761V17.6767C6.21228 16.8717 5.26034 15.7253 4.69269 14.3814C4.16944 13.1464 3.99219 11.7922 4.17993 10.4642C4.36767 9.13609 4.91331 7.88411 5.7584 6.84241C6.60348 5.80071 7.71615 5.00855 8.97716 4.55083C10.2382 4.09311 11.6 3.98707 12.9167 4.24409C14.2333 4.5011 15.4552 5.11148 16.4515 6.00981C17.4477 6.90814 18.1806 8.06056 18.5717 9.34357C18.9628 10.6266 18.9974 11.9918 18.6717 13.293C18.346 14.5941 17.6724 15.7821 16.7229 16.7297C16.5845 16.8662 16.4432 16.9961 16.298 17.1201Z" fill="#FDECF3"/>
<path d="M126.835 16.4973L128.845 13.2028L126.816 9.98281H127.942L129.478 12.4211L130.911 9.98281H132.019L129.999 13.2494L132.047 16.4973H130.921L129.376 14.0404L127.942 16.4973H126.835Z" fill="black"/>
</svg>
