<svg width="173" height="34" viewBox="0 0 173 34" fill="none" xmlns="http://www.w3.org/2000/svg">
<path d="M43.7932 11.137V22.6625H41.6327V12.9317H39.1716V11.137H43.7932Z" fill="white"/>
<path d="M46.2859 17.2286H50.8562V18.9437H46.2859V17.2286Z" fill="white"/>
<path d="M54.8954 22.2003C54.1834 21.8334 53.5901 21.2751 53.1836 20.5895C52.7804 19.8794 52.5686 19.0785 52.5686 18.2638C52.5686 17.4491 52.7804 16.6481 53.1836 15.9381C53.5912 15.2597 54.1809 14.7068 54.8871 14.341C55.654 13.947 56.508 13.7489 57.3717 13.7647C58.1713 13.7471 58.9627 13.9282 59.6735 14.2916C60.3175 14.6268 60.8381 15.155 61.1609 15.8009L59.5654 16.7229C59.3345 16.3396 59.0047 16.0242 58.6098 15.8091C58.0975 15.5483 57.5163 15.4511 56.9459 15.5307C56.3756 15.6103 55.8441 15.8628 55.4244 16.2537C54.9148 16.7531 54.66 17.42 54.66 18.2542C54.66 19.0884 54.912 19.7552 55.4161 20.2547C55.8367 20.644 56.3681 20.8955 56.938 20.975C57.5079 21.0545 58.0888 20.9583 58.6015 20.6992C58.9964 20.4842 59.3262 20.1688 59.5571 19.7854L61.1609 20.7185C60.8269 21.364 60.3023 21.8934 59.6568 22.236C58.9532 22.6034 58.1669 22.7875 57.3717 22.7711C56.5113 22.7866 55.6605 22.5905 54.8954 22.2003Z" fill="white"/>
<path d="M62.8743 10.4458H64.9517V22.6574H62.8743V10.4458Z" fill="white"/>
<path d="M67.7761 12.0681C67.6554 11.9546 67.5593 11.818 67.4936 11.6666C67.4279 11.5151 67.394 11.352 67.394 11.1872C67.394 11.0223 67.4279 10.8592 67.4936 10.7078C67.5593 10.5564 67.6554 10.4197 67.7761 10.3063C68.0326 10.0695 68.3729 9.94236 68.7234 9.9523C69.0709 9.94174 69.4096 10.0624 69.6707 10.2898C69.7936 10.3945 69.8916 10.5248 69.9577 10.6714C70.0238 10.818 70.0563 10.9772 70.0529 11.1378C70.0573 11.3074 70.0264 11.476 69.962 11.6333C69.8977 11.7905 69.8014 11.9329 69.679 12.0516C69.5537 12.1747 69.4042 12.271 69.2399 12.3347C69.0755 12.3984 68.8998 12.4281 68.7234 12.4221C68.3729 12.432 68.0326 12.3048 67.7761 12.0681ZM67.6764 13.8682H69.7538V22.6633H67.6764V13.8682Z" fill="white"/>
<path d="M74.0751 22.2003C73.3631 21.8334 72.7698 21.2751 72.3633 20.5895C71.9601 19.8794 71.7483 19.0785 71.7483 18.2638C71.7483 17.4491 71.9601 16.6481 72.3633 15.9381C72.7709 15.2597 73.3606 14.7068 74.0668 14.341C74.8336 13.947 75.6877 13.7489 76.5514 13.7647C77.351 13.7471 78.1424 13.9282 78.8531 14.2916C79.4972 14.6268 80.0178 15.155 80.3406 15.8009L78.7493 16.7339C78.5184 16.3506 78.1885 16.0351 77.7937 15.8201C77.2814 15.5593 76.7001 15.462 76.1298 15.5416C75.5594 15.6212 75.0279 15.8738 74.6083 16.2647C74.0986 16.7641 73.8438 17.4309 73.8438 18.2652C73.8438 19.0994 74.094 19.7662 74.5944 20.2657C75.015 20.6549 75.5464 20.9064 76.1163 20.986C76.6862 21.0655 77.2671 20.9692 77.7798 20.7102C78.1747 20.4952 78.5045 20.1798 78.7354 19.7964L80.3309 20.7185C79.9995 21.3626 79.4784 21.8919 78.8365 22.236C78.1329 22.6034 77.3466 22.7875 76.5514 22.7711C75.691 22.7866 74.8402 22.5905 74.0751 22.2003Z" fill="white"/>
<path d="M85.6745 18.8919L84.1289 20.3408V22.6624H82.0515V10.4508H84.1289V17.8271L88.4361 13.8673H90.929L87.2229 17.5582L91.2781 22.6624H88.7519L85.6745 18.8919Z" fill="white"/>
<path d="M98.6814 22.184C98.0086 21.8192 97.4528 21.2743 97.0776 20.6116C96.6844 19.9155 96.4837 19.1288 96.496 18.3312C96.483 17.5361 96.6837 16.7519 97.0776 16.059C97.4547 15.3998 98.0102 14.8581 98.6814 14.4948C99.3929 14.1141 100.191 13.9213 101 13.935C101.698 13.9229 102.389 14.0723 103.019 14.3713C103.602 14.6535 104.09 15.0967 104.425 15.6474L103.54 16.2401C103.267 15.8281 102.888 15.4964 102.442 15.2797C101.991 15.0639 101.496 14.954 100.996 14.9586C100.401 14.9495 99.8135 15.0942 99.2921 15.3784C98.7909 15.6554 98.3812 16.0699 98.1122 16.5722C97.8335 17.1199 97.6883 17.7247 97.6883 18.338C97.6883 18.9514 97.8335 19.5562 98.1122 20.1039C98.3831 20.6026 98.7926 21.014 99.2921 21.2894C99.8135 21.5736 100.401 21.7183 100.996 21.7092C101.495 21.7139 101.989 21.607 102.442 21.3964C102.89 21.1824 103.27 20.85 103.54 20.4359L104.421 21.0287C104.085 21.5809 103.594 22.0243 103.008 22.3047C102.38 22.602 101.691 22.7514 100.996 22.741C100.189 22.7549 99.3919 22.5631 98.6814 22.184Z" fill="white"/>
<path d="M113.674 14.8826C114.32 15.5138 114.643 16.4331 114.643 17.6405V22.6624H113.463V17.7558C113.463 16.8557 113.236 16.1697 112.782 15.6977C112.327 15.2257 111.681 14.9897 110.843 14.9897C109.901 14.9897 109.156 15.2668 108.607 15.8211C108.059 16.3755 107.784 17.142 107.782 18.1208V22.6624H106.602V10.4508H107.782V15.5275C108.105 15.0212 108.566 14.6159 109.112 14.3585C109.717 14.0757 110.381 13.9348 111.05 13.9469C112.151 13.9396 113.025 14.2515 113.674 14.8826Z" fill="white"/>
<path d="M125.498 18.6932H118.185C118.203 19.1078 118.305 19.5146 118.485 19.8894C118.665 20.2642 118.919 20.5993 119.232 20.8748C119.864 21.4292 120.662 21.7063 121.626 21.7063C122.139 21.7121 122.648 21.6141 123.121 21.4182C123.574 21.2272 123.977 20.9373 124.301 20.5702L124.966 21.3276C124.575 21.791 124.076 22.1528 123.512 22.3814C122.903 22.6281 122.25 22.7513 121.592 22.7436C120.761 22.76 119.94 22.5643 119.207 22.1756C118.53 21.8114 117.969 21.2667 117.587 20.6032C117.193 19.9103 116.992 19.1261 117.005 18.331C116.991 17.5392 117.182 16.757 117.559 16.0588C117.911 15.4079 118.439 14.8665 119.083 14.4946C119.747 14.1171 120.502 13.9238 121.268 13.9348C122.032 13.9231 122.784 14.1165 123.445 14.4946C124.085 14.8648 124.609 15.4034 124.958 16.0506C125.335 16.7516 125.526 17.5365 125.512 18.331L125.498 18.6932ZM119.158 15.7378C118.581 16.2859 118.234 17.0299 118.188 17.8206H124.387C124.341 17.0299 123.995 16.2859 123.418 15.7378C122.831 15.2233 122.074 14.9392 121.29 14.9392C120.507 14.9392 119.75 15.2233 119.163 15.7378H119.158Z" fill="white"/>
<path d="M129.231 22.184C128.558 21.8196 128.002 21.2746 127.627 20.6116C127.233 19.9158 127.031 19.129 127.044 18.3312C127.031 17.5359 127.232 16.7515 127.627 16.059C128.004 15.3995 128.559 14.8577 129.231 14.4948C129.942 14.1141 130.741 13.9213 131.549 13.935C132.247 13.9229 132.939 14.0723 133.568 14.3713C134.154 14.653 134.643 15.0974 134.978 15.6501L134.097 16.2429C133.826 15.8306 133.447 15.4987 133 15.2824C132.55 15.0667 132.055 14.9568 131.555 14.9613C130.96 14.9522 130.372 15.0969 129.851 15.3812C129.35 15.6577 128.94 16.0724 128.671 16.5749C128.392 17.1226 128.247 17.7274 128.247 18.3408C128.247 18.9541 128.392 19.5589 128.671 20.1066C128.942 20.6057 129.351 21.0172 129.851 21.2921C130.372 21.5764 130.96 21.7211 131.555 21.712C132.054 21.7167 132.548 21.6098 133 21.3991C133.449 21.1854 133.828 20.853 134.097 20.4387L134.978 21.0314C134.643 21.584 134.152 22.0275 133.566 22.3075C132.938 22.6048 132.25 22.7541 131.555 22.7438C130.744 22.7584 129.944 22.5656 129.231 22.184Z" fill="white"/>
<path d="M140.39 18.3156L138.33 20.1926V22.6624H137.15V10.4508H138.33V18.7327L143.548 14.0045H145.011L141.271 17.5445L145.365 22.6624H143.919L140.39 18.3156Z" fill="white"/>
<path d="M148.087 22.1758C147.419 21.8064 146.867 21.2625 146.49 20.6034C146.108 19.9058 145.908 19.1248 145.908 18.3312C145.908 17.5377 146.108 16.7567 146.49 16.0591C146.865 15.4011 147.418 14.8596 148.087 14.4949C148.788 14.1273 149.57 13.9351 150.364 13.9351C151.157 13.9351 151.939 14.1273 152.64 14.4949C153.308 14.8594 153.858 15.4023 154.229 16.0618C154.605 16.7611 154.802 17.5415 154.802 18.334C154.802 19.1265 154.605 19.9069 154.229 20.6062C153.857 21.2656 153.307 21.8099 152.642 22.1786C151.942 22.5515 151.16 22.7467 150.365 22.7467C149.57 22.7467 148.788 22.5515 148.088 22.1786L148.087 22.1758ZM152.034 21.2867C152.527 21.0071 152.928 20.5926 153.189 20.093C153.462 19.5451 153.604 18.9423 153.604 18.3312C153.604 17.7202 153.462 17.1174 153.189 16.5695C152.928 16.0699 152.527 15.6554 152.034 15.3758C151.521 15.1003 150.947 14.956 150.364 14.956C149.78 14.956 149.206 15.1003 148.693 15.3758C148.199 15.6566 147.796 16.0705 147.53 16.5695C147.251 17.1158 147.106 17.7192 147.106 18.3312C147.106 18.9433 147.251 19.5468 147.53 20.093C147.796 20.592 148.199 21.0059 148.693 21.2867C149.206 21.5622 149.78 21.7065 150.364 21.7065C150.947 21.7065 151.521 21.5622 152.034 21.2867Z" fill="white"/>
<path d="M165.089 14.0039V22.6618H163.958V21.0811C163.656 21.6005 163.212 22.0255 162.678 22.3078C162.105 22.606 161.465 22.7561 160.817 22.7441C159.676 22.7441 158.776 22.4285 158.116 21.7973C157.457 21.1662 157.127 20.2414 157.127 19.023V14.0039H158.307V18.9105C158.307 19.8252 158.535 20.5167 158.989 20.9851C159.443 21.4534 160.089 21.6894 160.928 21.6931C161.851 21.6931 162.577 21.4159 163.105 20.8616C163.633 20.3073 163.899 19.5362 163.904 18.5483V14.0039H165.089Z" fill="white"/>
<path d="M173 22.1353C172.761 22.3424 172.481 22.4967 172.177 22.5881C171.847 22.6929 171.502 22.7457 171.155 22.7445C170.335 22.7445 169.704 22.525 169.26 22.0859C168.817 21.6468 168.596 21.0266 168.596 20.2254V14.9895H167.033V14.0043H168.596V12.1108H169.776V14.0043H172.435V14.9922H169.776V20.1622C169.776 20.6781 169.906 21.0706 170.166 21.3395C170.427 21.6084 170.801 21.7429 171.288 21.7429C171.528 21.7435 171.767 21.7045 171.994 21.6276C172.211 21.5568 172.411 21.445 172.584 21.2983L173 22.1353Z" fill="white"/>
<path d="M18.396 0.467407H16.7451C8.04839 0.467407 0.998291 7.45203 0.998291 16.068V17.7035C0.998291 26.3195 8.04839 33.3041 16.7451 33.3041H18.396C27.0927 33.3041 34.1428 26.3195 34.1428 17.7035V16.068C34.1428 7.45203 27.0927 0.467407 18.396 0.467407Z" fill="#131313"/>
<path d="M13.9343 24.1028V24.1398L13.962 24.1535V24.1165L13.9343 24.1028ZM13.9565 26.8813L13.9745 26.8909L13.9565 26.8813Z" fill="#E63081"/>
<path d="M17.5703 11.0414C16.0061 11.0432 14.5065 11.6596 13.4005 12.7554C12.2944 13.8511 11.6722 15.3368 11.6704 16.8865V25.7515C11.6967 25.7707 11.7244 25.7872 11.7521 25.805C12.2747 26.1398 12.8257 26.4291 13.3988 26.6694C13.5816 26.7463 13.7644 26.8176 13.9528 26.8821H13.9708V26.8492L13.957 24.1585L13.9293 24.1448V24.1077L13.9583 24.1215L13.9473 21.5008C14.6883 22.073 15.5566 22.4616 16.4799 22.6343C17.4032 22.8069 18.3547 22.7586 19.2553 22.4933C20.156 22.2281 20.9796 21.7535 21.6577 21.1093C22.3359 20.465 22.8489 19.6695 23.1541 18.7892C23.4593 17.9088 23.5478 16.9689 23.4123 16.0478C23.2769 15.1267 22.9213 14.2509 22.3752 13.4934C21.8291 12.7359 21.1084 12.1186 20.2728 11.6928C19.4373 11.267 18.5112 11.0451 17.5717 11.0455L17.5703 11.0414ZM17.5703 20.495C16.8499 20.495 16.1457 20.2834 15.5467 19.8869C14.9477 19.4904 14.4808 18.9268 14.2051 18.2674C13.9294 17.608 13.8573 16.8825 13.9979 16.1825C14.1384 15.4825 14.4853 14.8395 14.9947 14.3348C15.5041 13.8301 16.1531 13.4864 16.8597 13.3472C17.5662 13.208 18.2986 13.2794 18.9642 13.5526C19.6297 13.8257 20.1986 14.2882 20.5988 14.8816C20.9991 15.4751 21.2127 16.1727 21.2127 16.8865C21.2116 17.8432 20.8275 18.7604 20.1446 19.4369C19.4618 20.1134 18.536 20.494 17.5703 20.495Z" fill="#E63081"/>
<path d="M24.5363 24.9554H28.2882V27.5033H17.5715C17.3069 27.5033 17.0438 27.4937 16.7834 27.4759C16.6629 27.4663 16.5438 27.4567 16.4233 27.443H16.3956C15.5678 27.3554 14.7534 27.1712 13.9692 26.8941V26.8612L13.9581 24.1582V24.1212C15.7883 25.0222 17.8928 25.211 19.8565 24.6505C21.8203 24.09 23.5008 22.8208 24.5665 21.0932C25.6323 19.3656 26.0059 17.3051 25.6137 15.3181C25.2215 13.331 24.092 11.5617 22.4479 10.3591C20.8038 9.1565 18.7646 8.60789 16.7323 8.8215C14.7001 9.0351 12.8224 9.99542 11.4696 11.513C10.1169 13.0306 9.38721 14.9954 9.42459 17.0197C9.46198 19.044 10.2637 20.981 11.6716 22.4486V25.7553C9.90656 24.5982 8.52573 22.9505 7.70233 21.0189C6.94334 19.2437 6.68623 17.2973 6.95856 15.3884C7.23088 13.4795 8.02236 11.68 9.24819 10.1827C10.474 8.68539 12.088 7.54678 13.9171 6.88887C15.7463 6.23096 17.7216 6.07855 19.6315 6.44797C21.5414 6.8174 23.3139 7.69472 24.7589 8.98594C26.2039 10.2772 27.2671 11.9336 27.8344 13.7777C28.4018 15.6218 28.4519 17.5842 27.9795 19.4544C27.5071 21.3246 26.5299 23.0322 25.1526 24.3942C24.9518 24.5904 24.7469 24.777 24.5363 24.9554Z" fill="#FDECF3"/>
</svg>
