<svg width="204" height="23" viewBox="0 0 204 23" fill="none" xmlns="http://www.w3.org/2000/svg">
<path d="M139.21 7.18091L141.14 11.3958L143.07 7.18091H145.145L142.105 13.0588V16.4231H140.175V13.0588L137.128 7.18091H139.21ZM145.164 13.0588V12.9255C145.164 12.422 145.236 11.9586 145.38 11.5354C145.524 11.108 145.733 10.7377 146.009 10.4246C146.284 10.1114 146.622 9.86808 147.024 9.69458C147.426 9.51685 147.887 9.42798 148.408 9.42798C148.928 9.42798 149.392 9.51685 149.798 9.69458C150.204 9.86808 150.545 10.1114 150.82 10.4246C151.099 10.7377 151.311 11.108 151.455 11.5354C151.599 11.9586 151.671 12.422 151.671 12.9255V13.0588C151.671 13.5582 151.599 14.0216 151.455 14.449C151.311 14.8722 151.099 15.2424 150.82 15.5598C150.545 15.873 150.206 16.1163 149.804 16.2898C149.402 16.4633 148.941 16.55 148.421 16.55C147.9 16.55 147.437 16.4633 147.031 16.2898C146.628 16.1163 146.288 15.873 146.009 15.5598C145.733 15.2424 145.524 14.8722 145.38 14.449C145.236 14.0216 145.164 13.5582 145.164 13.0588ZM146.992 12.9255V13.0588C146.992 13.3466 147.018 13.6153 147.069 13.865C147.119 14.1147 147.2 14.3347 147.31 14.5251C147.424 14.7113 147.572 14.8573 147.754 14.9631C147.936 15.0689 148.158 15.1218 148.421 15.1218C148.675 15.1218 148.892 15.0689 149.074 14.9631C149.256 14.8573 149.402 14.7113 149.512 14.5251C149.622 14.3347 149.703 14.1147 149.754 13.865C149.809 13.6153 149.836 13.3466 149.836 13.0588V12.9255C149.836 12.6462 149.809 12.3839 149.754 12.1384C149.703 11.8888 149.62 11.6687 149.506 11.4783C149.396 11.2836 149.25 11.1313 149.068 11.0212C148.886 10.9112 148.666 10.8562 148.408 10.8562C148.15 10.8562 147.93 10.9112 147.748 11.0212C147.57 11.1313 147.424 11.2836 147.31 11.4783C147.2 11.6687 147.119 11.8888 147.069 12.1384C147.018 12.3839 146.992 12.6462 146.992 12.9255ZM156.857 14.7791V9.55493H158.685V16.4231H156.965L156.857 14.7791ZM157.06 13.3699L157.599 13.3572C157.599 13.8142 157.546 14.2395 157.441 14.6331C157.335 15.0224 157.176 15.3609 156.965 15.6487C156.753 15.9322 156.486 16.1544 156.165 16.3152C155.843 16.4718 155.464 16.55 155.029 16.55C154.694 16.55 154.385 16.5035 154.102 16.4104C153.823 16.3131 153.581 16.1628 153.378 15.9597C153.179 15.7524 153.023 15.4879 152.908 15.1663C152.798 14.8404 152.743 14.449 152.743 13.9919V9.55493H154.572V14.0046C154.572 14.2078 154.595 14.3792 154.641 14.5188C154.692 14.6584 154.762 14.7727 154.851 14.8616C154.94 14.9504 155.043 15.0139 155.162 15.052C155.285 15.0901 155.42 15.1091 155.568 15.1091C155.945 15.1091 156.241 15.033 156.457 14.8806C156.677 14.7283 156.831 14.5209 156.92 14.2585C157.013 13.9919 157.06 13.6957 157.06 13.3699ZM161.909 11.053V16.4231H160.081V9.55493H161.802L161.909 11.053ZM163.979 9.5105L163.947 11.2053C163.858 11.1926 163.75 11.182 163.623 11.1736C163.501 11.1609 163.388 11.1545 163.287 11.1545C163.029 11.1545 162.804 11.1884 162.614 11.2561C162.428 11.3196 162.271 11.4148 162.144 11.5417C162.022 11.6687 161.928 11.8232 161.865 12.0051C161.806 12.1871 161.772 12.3944 161.763 12.6272L161.395 12.5129C161.395 12.0686 161.44 11.6602 161.529 11.2878C161.617 10.9112 161.747 10.5833 161.916 10.304C162.089 10.0247 162.301 9.80884 162.551 9.65649C162.8 9.50415 163.086 9.42798 163.407 9.42798C163.509 9.42798 163.613 9.43644 163.719 9.45337C163.824 9.46606 163.911 9.48511 163.979 9.5105ZM171.812 12.3669H169.438L169.425 11.0593H171.418C171.769 11.0593 172.057 11.0149 172.281 10.926C172.506 10.8329 172.673 10.6996 172.783 10.5261C172.897 10.3484 172.954 10.1326 172.954 9.87866C172.954 9.5909 172.899 9.35815 172.789 9.18042C172.684 9.00269 172.516 8.87362 172.288 8.79321C172.064 8.71281 171.774 8.67261 171.418 8.67261H170.098V16.4231H168.194V7.18091H171.418C171.956 7.18091 172.436 7.23169 172.859 7.33325C173.287 7.43481 173.648 7.58927 173.945 7.79663C174.241 8.00399 174.467 8.26636 174.624 8.58374C174.78 8.89689 174.859 9.26929 174.859 9.70093C174.859 10.0818 174.772 10.433 174.598 10.7546C174.429 11.0763 174.16 11.3386 173.792 11.5417C173.428 11.7449 172.952 11.857 172.364 11.8782L171.812 12.3669ZM171.729 16.4231H168.917L169.66 14.9377H171.729C172.064 14.9377 172.337 14.8848 172.548 14.7791C172.76 14.669 172.916 14.5209 173.018 14.3347C173.119 14.1485 173.17 13.9348 173.17 13.6936C173.17 13.4228 173.124 13.1879 173.031 12.989C172.942 12.7901 172.798 12.6378 172.599 12.532C172.4 12.422 172.138 12.3669 171.812 12.3669H169.977L169.99 11.0593H172.275L172.713 11.5735C173.276 11.565 173.729 11.6645 174.072 11.8718C174.419 12.075 174.67 12.3394 174.827 12.6653C174.988 12.9911 175.068 13.3403 175.068 13.7126C175.068 14.3051 174.939 14.8044 174.681 15.2107C174.423 15.6127 174.044 15.9153 173.545 16.1184C173.05 16.3215 172.444 16.4231 171.729 16.4231ZM178.21 11.053V16.4231H176.382V9.55493H178.102L178.21 11.053ZM180.28 9.5105L180.248 11.2053C180.159 11.1926 180.051 11.182 179.924 11.1736C179.801 11.1609 179.689 11.1545 179.588 11.1545C179.33 11.1545 179.105 11.1884 178.915 11.2561C178.729 11.3196 178.572 11.4148 178.445 11.5417C178.322 11.6687 178.229 11.8232 178.166 12.0051C178.107 12.1871 178.073 12.3944 178.064 12.6272L177.696 12.5129C177.696 12.0686 177.74 11.6602 177.829 11.2878C177.918 10.9112 178.047 10.5833 178.217 10.304C178.39 10.0247 178.602 9.80884 178.851 9.65649C179.101 9.50415 179.387 9.42798 179.708 9.42798C179.81 9.42798 179.913 9.43644 180.019 9.45337C180.125 9.46606 180.212 9.48511 180.28 9.5105ZM184.634 14.8743V11.8147C184.634 11.5946 184.598 11.4063 184.526 11.2498C184.454 11.0889 184.342 10.9641 184.19 10.8752C184.042 10.7864 183.849 10.7419 183.612 10.7419C183.409 10.7419 183.233 10.7779 183.085 10.8499C182.937 10.9176 182.823 11.017 182.742 11.1482C182.662 11.2751 182.622 11.4254 182.622 11.5989H180.794C180.794 11.3069 180.861 11.0297 180.997 10.7673C181.132 10.505 181.329 10.2743 181.587 10.0754C181.845 9.87231 182.152 9.71362 182.508 9.59937C182.867 9.48511 183.269 9.42798 183.714 9.42798C184.247 9.42798 184.721 9.51685 185.135 9.69458C185.55 9.87231 185.876 10.1389 186.113 10.4944C186.354 10.8499 186.475 11.2942 186.475 11.8274V14.7664C186.475 15.143 186.498 15.4519 186.545 15.6931C186.591 15.9301 186.659 16.1375 186.748 16.3152V16.4231H184.901C184.812 16.2369 184.744 16.0042 184.698 15.7249C184.655 15.4413 184.634 15.1578 184.634 14.8743ZM184.875 12.24L184.888 13.2747H183.866C183.625 13.2747 183.415 13.3022 183.238 13.3572C183.06 13.4122 182.914 13.4905 182.8 13.592C182.685 13.6894 182.601 13.8036 182.546 13.9348C182.495 14.066 182.469 14.2099 182.469 14.3665C182.469 14.523 182.505 14.6648 182.577 14.7917C182.649 14.9145 182.753 15.0118 182.888 15.0837C183.024 15.1514 183.183 15.1853 183.365 15.1853C183.64 15.1853 183.879 15.1303 184.082 15.0203C184.285 14.9102 184.441 14.7748 184.552 14.614C184.666 14.4532 184.725 14.3009 184.729 14.157L185.212 14.9314C185.144 15.1049 185.051 15.2847 184.932 15.4709C184.818 15.6571 184.672 15.8328 184.494 15.9978C184.317 16.1586 184.103 16.2919 183.853 16.3977C183.604 16.4993 183.307 16.55 182.965 16.55C182.529 16.55 182.133 16.4633 181.778 16.2898C181.426 16.1121 181.147 15.8687 180.94 15.5598C180.737 15.2467 180.635 14.8912 180.635 14.4934C180.635 14.1337 180.703 13.8142 180.838 13.5349C180.974 13.2556 181.172 13.0208 181.435 12.8303C181.701 12.6357 182.034 12.4897 182.431 12.3923C182.829 12.2908 183.29 12.24 183.815 12.24H184.875ZM189.674 11.0212V16.4231H187.846V9.55493H189.56L189.674 11.0212ZM189.407 12.7478H188.912C188.912 12.24 188.978 11.783 189.109 11.3767C189.24 10.9662 189.424 10.6171 189.661 10.3293C189.898 10.0374 190.18 9.81519 190.506 9.66284C190.836 9.50627 191.204 9.42798 191.61 9.42798C191.932 9.42798 192.226 9.47453 192.492 9.56763C192.759 9.66073 192.988 9.80884 193.178 10.012C193.373 10.2151 193.521 10.4838 193.622 10.8181C193.728 11.1524 193.781 11.5608 193.781 12.0432V16.4231H191.94V12.0369C191.94 11.7322 191.898 11.4952 191.813 11.3259C191.729 11.1567 191.604 11.0382 191.439 10.9705C191.278 10.8985 191.079 10.8625 190.842 10.8625C190.597 10.8625 190.383 10.9112 190.201 11.0085C190.023 11.1059 189.875 11.2413 189.757 11.4148C189.642 11.5841 189.556 11.783 189.496 12.0115C189.437 12.24 189.407 12.4854 189.407 12.7478ZM199.227 14.925V6.6731H201.068V16.4231H199.411L199.227 14.925ZM194.885 13.0715V12.9382C194.885 12.4135 194.945 11.9374 195.063 11.51C195.182 11.0784 195.355 10.7081 195.584 10.3992C195.812 10.0903 196.094 9.85116 196.428 9.68188C196.762 9.51261 197.143 9.42798 197.571 9.42798C197.973 9.42798 198.324 9.51261 198.624 9.68188C198.929 9.85116 199.187 10.0924 199.399 10.4055C199.615 10.7144 199.788 11.0805 199.919 11.5037C200.05 11.9226 200.146 12.3818 200.205 12.8811V13.1731C200.146 13.6513 200.05 14.0956 199.919 14.5061C199.788 14.9166 199.615 15.2763 199.399 15.5852C199.187 15.8899 198.929 16.1269 198.624 16.2961C198.32 16.4654 197.964 16.55 197.558 16.55C197.13 16.55 196.75 16.4633 196.415 16.2898C196.085 16.1163 195.806 15.873 195.577 15.5598C195.353 15.2467 195.182 14.8785 195.063 14.4553C194.945 14.0321 194.885 13.5709 194.885 13.0715ZM196.714 12.9382V13.0715C196.714 13.3551 196.735 13.6195 196.777 13.865C196.824 14.1104 196.898 14.3284 196.999 14.5188C197.105 14.705 197.24 14.851 197.406 14.9568C197.575 15.0583 197.78 15.1091 198.021 15.1091C198.334 15.1091 198.593 15.0393 198.796 14.8997C198.999 14.7558 199.153 14.559 199.259 14.3093C199.369 14.0597 199.433 13.7719 199.449 13.446V12.6145C199.437 12.3479 199.399 12.1088 199.335 11.8972C199.276 11.6814 199.187 11.4973 199.069 11.345C198.954 11.1926 198.81 11.0741 198.637 10.9895C198.468 10.9049 198.267 10.8625 198.034 10.8625C197.797 10.8625 197.594 10.9176 197.425 11.0276C197.255 11.1334 197.118 11.2794 197.012 11.4656C196.91 11.6518 196.834 11.8718 196.783 12.1257C196.737 12.3754 196.714 12.6462 196.714 12.9382Z" fill="#111111"/>
<path d="M29.8131 7.39478V15.9272H28.4982V8.7234H27.0005V7.39478H29.8131Z" fill="#010101"/>
<path d="M31.5005 11.9456H34.8756V13.0832H31.5005V11.9456Z" fill="#010101"/>
<path d="M37.6763 15.5301C37.1636 15.2753 36.7364 14.8875 36.4436 14.4113C36.1533 13.9181 36.0007 13.3618 36.0007 12.7959C36.0007 12.2301 36.1533 11.6737 36.4436 11.1806C36.7371 10.7094 37.1618 10.3254 37.6704 10.0713C38.2226 9.79761 38.8376 9.66002 39.4596 9.67099C40.0355 9.65871 40.6053 9.78453 41.1172 10.0369C41.581 10.2697 41.9559 10.6366 42.1884 11.0853L41.0394 11.7257C40.8731 11.4594 40.6356 11.2403 40.3512 11.091C39.9823 10.9098 39.5637 10.8423 39.153 10.8976C38.7423 10.9528 38.3595 11.1283 38.0573 11.3998C37.6903 11.7467 37.5068 12.2098 37.5068 12.7893C37.5068 13.3687 37.6883 13.8319 38.0513 14.1788C38.3542 14.4491 38.7369 14.6238 39.1473 14.6791C39.5577 14.7343 39.976 14.6674 40.3453 14.4875C40.6296 14.3382 40.8672 14.1191 41.0334 13.8528L42.1884 14.5009C41.9479 14.9493 41.57 15.317 41.1052 15.5549C40.5985 15.8101 40.0323 15.938 39.4596 15.9266C38.84 15.9374 38.2273 15.8012 37.6763 15.5301Z" fill="#010101"/>
<path d="M43.3132 6.82599H45.0008V15.9273H43.3132V6.82599Z" fill="#010101"/>
<path d="M46.9307 8.34129C46.8541 8.26006 46.7931 8.16225 46.7514 8.05382C46.7097 7.94539 46.6882 7.82861 46.6882 7.7106C46.6882 7.59258 46.7097 7.4758 46.7514 7.36737C46.7931 7.25894 46.8541 7.16113 46.9307 7.0799C47.0935 6.91038 47.3094 6.81933 47.5318 6.82645C47.7523 6.81888 47.9672 6.90527 48.1329 7.06811C48.2109 7.14303 48.2731 7.23632 48.3151 7.34129C48.357 7.44625 48.3777 7.56029 48.3755 7.67523C48.3783 7.79665 48.3586 7.91742 48.3178 8.02999C48.277 8.14255 48.2158 8.24451 48.1382 8.3295C48.0587 8.41761 47.9638 8.4866 47.8595 8.53221C47.7553 8.57783 47.6437 8.59911 47.5318 8.59474C47.3094 8.60186 47.0935 8.51081 46.9307 8.34129ZM46.8674 9.63018H48.1857V15.9273H46.8674V9.63018Z" fill="#010101"/>
<path d="M51.1763 15.5301C50.6636 15.2752 50.2364 14.8874 49.9436 14.4112C49.6533 13.9181 49.5007 13.3617 49.5007 12.7959C49.5007 12.23 49.6533 11.6737 49.9436 11.1805C50.2371 10.7093 50.6618 10.3253 51.1704 10.0712C51.7226 9.79755 52.3376 9.65996 52.9596 9.67092C53.5355 9.65865 54.1053 9.78447 54.6172 10.0369C55.081 10.2697 55.4559 10.6366 55.6884 11.0852L54.5424 11.7333C54.3761 11.467 54.1386 11.2479 53.8542 11.0985C53.4853 10.9174 53.0667 10.8498 52.656 10.9051C52.2453 10.9604 51.8625 11.1358 51.5603 11.4073C51.1933 11.7542 51.0098 12.2174 51.0098 12.7968C51.0098 13.3763 51.19 13.8394 51.5503 14.1863C51.8532 14.4567 52.2359 14.6314 52.6463 14.6866C53.0567 14.7419 53.475 14.675 53.8443 14.4951C54.1286 14.3457 54.3662 14.1267 54.5324 13.8604L55.6814 14.5008C55.4427 14.9483 55.0674 15.3158 54.6052 15.5549C54.0985 15.8101 53.5323 15.938 52.9596 15.9265C52.34 15.9373 51.7273 15.8011 51.1763 15.5301Z" fill="#010101"/>
<path d="M59.2433 13.1171L58.2068 14.197V15.9273H56.8136V6.82599H58.2068V12.3236L61.0953 9.37231H62.7671L60.2817 12.1232L63.0012 15.9273H61.3071L59.2433 13.1171Z" fill="#010101"/>
<path d="M68.4893 15.531C68.0119 15.2718 67.6177 14.8847 67.3515 14.4139C67.0725 13.9193 66.9302 13.3605 66.9389 12.7938C66.9297 12.2289 67.0721 11.6718 67.3515 11.1796C67.6191 10.7112 68.0131 10.3264 68.4893 10.0683C68.994 9.79783 69.5604 9.66086 70.1339 9.67059C70.6292 9.66196 71.1197 9.7681 71.5664 9.98057C71.9799 10.1811 72.3262 10.4959 72.5636 10.8871L71.9358 11.3082C71.7425 11.0155 71.4734 10.7798 71.1567 10.6259C70.837 10.4726 70.486 10.3946 70.131 10.3978C69.7089 10.3913 69.2924 10.4941 68.9225 10.6961C68.567 10.8928 68.2763 11.1873 68.0855 11.5441C67.8877 11.9332 67.7848 12.3629 67.7848 12.7987C67.7848 13.2344 67.8877 13.6641 68.0855 14.0532C68.2776 14.4075 68.5681 14.6998 68.9225 14.8954C69.2924 15.0974 69.7089 15.2002 70.131 15.1937C70.4854 15.197 70.836 15.1211 71.1567 14.9715C71.4747 14.8194 71.7443 14.5833 71.9358 14.2891L72.5607 14.7102C72.3224 15.1026 71.9742 15.4176 71.5585 15.6168C71.1132 15.828 70.6246 15.9341 70.131 15.9267C69.5586 15.9366 68.9933 15.8003 68.4893 15.531Z" fill="#E71583"/>
<path d="M78.6356 10.129C79.0877 10.5995 79.3138 11.2846 79.3138 12.1845V15.9273H78.4884V12.2704C78.4884 11.5996 78.3295 11.0883 78.0117 10.7365C77.6939 10.3847 77.2418 10.2088 76.6553 10.2088C75.9965 10.2088 75.4753 10.4154 75.0916 10.8285C74.7079 11.2417 74.5155 11.813 74.5142 12.5424V15.9273H73.6887V6.82599H74.5142V10.6097C74.74 10.2323 75.0625 9.93026 75.4443 9.73841C75.8681 9.52761 76.3322 9.42263 76.8006 9.43162C77.5705 9.42617 78.1822 9.65864 78.6356 10.129Z" fill="#E71583"/>
<path d="M87.1784 13.05H81.8602C81.8733 13.3444 81.9474 13.6333 82.0782 13.8995C82.209 14.1657 82.3939 14.4037 82.6217 14.5994C83.081 14.9931 83.6611 15.1899 84.3622 15.1899C84.7354 15.194 85.1056 15.1244 85.45 14.9853C85.7793 14.8496 86.0727 14.6438 86.3082 14.3831L86.7917 14.921C86.5074 15.2501 86.1444 15.507 85.734 15.6694C85.2912 15.8446 84.8164 15.9321 84.338 15.9266C83.7336 15.9382 83.1364 15.7993 82.6035 15.5232C82.1108 15.2645 81.7026 14.8777 81.425 14.4065C81.1386 13.9144 80.9926 13.3574 81.002 12.7927C80.9918 12.2304 81.1305 11.6749 81.4049 11.179C81.661 10.7167 82.0445 10.3322 82.5129 10.0681C82.9962 9.79999 83.5452 9.66266 84.1023 9.67053C84.6575 9.66217 85.2047 9.79957 85.6857 10.0681C86.1509 10.331 86.5317 10.7135 86.7856 11.1732C87.0603 11.671 87.199 12.2285 87.1885 12.7927L87.1784 13.05ZM82.5673 10.951C82.1476 11.3403 81.8958 11.8687 81.8622 12.4302H86.3706C86.3371 11.8687 86.0852 11.3403 85.6656 10.951C85.2387 10.5856 84.6884 10.3839 84.1184 10.3839C83.5484 10.3839 82.9982 10.5856 82.5713 10.951H82.5673Z" fill="#E71583"/>
<path d="M89.8648 15.5291C89.3876 15.2703 88.9936 14.8832 88.7279 14.4124C88.4483 13.9182 88.3057 13.3594 88.3145 12.7928C88.3052 12.228 88.4479 11.6709 88.7279 11.1791C88.9949 10.7107 89.3887 10.3259 89.8648 10.0682C90.3691 9.79778 90.9351 9.66086 91.5083 9.67059C92.0032 9.66197 92.4934 9.76807 92.9397 9.98047C93.3546 10.1805 93.7019 10.4961 93.9392 10.8887L93.3148 11.3097C93.1223 11.0169 92.8536 10.7812 92.5372 10.6275C92.2178 10.4743 91.867 10.3963 91.5122 10.3995C91.0904 10.393 90.6742 10.4958 90.3046 10.6977C89.9491 10.8941 89.6585 11.1886 89.4681 11.5455C89.2706 11.9345 89.1676 12.364 89.1676 12.7996C89.1676 13.2352 89.2706 13.6648 89.4681 14.0538C89.6599 14.4082 89.9503 14.7004 90.3046 14.8957C90.6742 15.0976 91.0904 15.2003 91.5122 15.1939C91.8664 15.1972 92.2167 15.1213 92.5372 14.9717C92.8549 14.8199 93.124 14.5838 93.3148 14.2896L93.9392 14.7105C93.7014 15.103 93.3534 15.418 92.9378 15.6168C92.4931 15.828 92.0051 15.934 91.5122 15.9267C90.9378 15.9371 90.3703 15.8001 89.8648 15.5291Z" fill="#E71583"/>
<path d="M97.2835 12.6876L95.8725 14.0866V15.9273H95.0646V6.82599H95.8725V12.9985L99.4455 9.47457H100.447L97.8866 12.1129L100.69 15.9273H99.6997L97.2835 12.6876Z" fill="#E71583"/>
<path d="M102.767 15.5219C102.303 15.2596 101.919 14.8734 101.656 14.4053C101.391 13.9099 101.252 13.3553 101.252 12.7919C101.252 12.2284 101.391 11.6738 101.656 11.1784C101.918 10.7112 102.302 10.3266 102.767 10.0677C103.255 9.80658 103.799 9.6701 104.351 9.6701C104.903 9.6701 105.447 9.80658 105.935 10.0677C106.4 10.3265 106.782 10.712 107.04 11.1803C107.302 11.6769 107.439 12.231 107.439 12.7938C107.439 13.3566 107.302 13.9107 107.04 14.4073C106.782 14.8756 106.399 15.2621 105.936 15.5239C105.449 15.7886 104.905 15.9272 104.352 15.9272C103.799 15.9272 103.255 15.7886 102.768 15.5239L102.767 15.5219ZM105.513 14.8905C105.856 14.692 106.135 14.3977 106.317 14.0429C106.507 13.6538 106.606 13.2258 106.606 12.7919C106.606 12.3579 106.507 11.9299 106.317 11.5408C106.135 11.186 105.856 10.8917 105.513 10.6932C105.157 10.4975 104.757 10.3951 104.351 10.3951C103.945 10.3951 103.546 10.4975 103.189 10.6932C102.846 10.8926 102.565 11.1865 102.38 11.5408C102.186 11.9287 102.085 12.3572 102.085 12.7919C102.085 13.2265 102.186 13.655 102.38 14.0429C102.565 14.3972 102.846 14.6911 103.189 14.8905C103.546 15.0862 103.945 15.1886 104.351 15.1886C104.757 15.1886 105.157 15.0862 105.513 14.8905Z" fill="#E71583"/>
<path d="M114.752 9.67017V15.8679H113.953V14.7364C113.739 15.1082 113.426 15.4124 113.049 15.6145C112.643 15.828 112.191 15.9354 111.734 15.9268C110.927 15.9268 110.291 15.7009 109.826 15.2491C109.36 14.7973 109.127 14.1353 109.127 13.2631V9.67017H109.961V13.1825C109.961 13.8373 110.121 14.3324 110.442 14.6676C110.763 15.0029 111.22 15.1718 111.812 15.1744C112.464 15.1744 112.977 14.976 113.35 14.5792C113.723 14.1824 113.911 13.6304 113.914 12.9232V9.67017H114.752Z" fill="#E71583"/>
<path d="M120.377 15.5037C120.197 15.6477 119.986 15.755 119.757 15.8186C119.508 15.8914 119.248 15.9281 118.986 15.9273C118.367 15.9273 117.891 15.7747 117.557 15.4693C117.223 15.164 117.055 14.7327 117.055 14.1755V10.5344H115.877V9.84928H117.055V8.53253H117.945V9.84928H119.951V10.5363H117.945V14.1316C117.945 14.4904 118.044 14.7632 118.24 14.9503C118.436 15.1373 118.718 15.2308 119.086 15.2308C119.267 15.2312 119.447 15.2041 119.619 15.1506C119.782 15.1014 119.933 15.0236 120.064 14.9216L120.377 15.5037Z" fill="#E71583"/>
<path d="M12.0728 0H10.9272C4.89228 0 0 4.89228 0 10.9272V12.0728C0 18.1077 4.89228 23 10.9272 23H12.0728C18.1077 23 23 18.1077 23 12.0728V10.9272C23 4.89228 18.1077 0 12.0728 0Z" fill="#131313"/>
<path d="M11.5304 7.39478C10.4123 7.39608 9.34034 7.83877 8.5497 8.62574C7.75905 9.41271 7.3143 10.4797 7.31299 11.5926V17.9594C7.3318 17.9732 7.3516 17.985 7.3714 17.9978C7.74497 18.2383 8.13883 18.446 8.54852 18.6186C8.67921 18.6738 8.80989 18.7251 8.94453 18.7714H8.9574V18.7477L8.9475 16.8153L8.9277 16.8055V16.7789L8.94849 16.7887L8.94057 14.9066C9.47031 15.3176 10.091 15.5966 10.751 15.7206C11.411 15.8446 12.0912 15.8099 12.735 15.6194C13.3788 15.4289 13.9676 15.0881 14.4523 14.6254C14.9371 14.1627 15.3038 13.5914 15.522 12.9591C15.7401 12.3269 15.8034 11.6519 15.7066 10.9903C15.6097 10.3288 15.3555 9.69983 14.9652 9.15581C14.5748 8.61179 14.0596 8.16843 13.4623 7.86264C12.8651 7.55684 12.2031 7.39745 11.5314 7.39773L11.5304 7.39478ZM11.5304 14.1843C11.0155 14.1843 10.5121 14.0323 10.0839 13.7475C9.6557 13.4627 9.32197 13.058 9.1249 12.5844C8.92783 12.1109 8.87627 11.5898 8.97673 11.087C9.0772 10.5843 9.32518 10.1225 9.68932 9.76007C10.0535 9.39762 10.5174 9.15079 11.0225 9.05079C11.5275 8.95079 12.0511 9.00212 12.5268 9.19828C13.0026 9.39443 13.4093 9.72661 13.6954 10.1528C13.9815 10.579 14.1342 11.0801 14.1342 11.5926C14.1334 12.2797 13.8588 12.9385 13.3707 13.4243C12.8826 13.9102 12.2207 14.1835 11.5304 14.1843Z" fill="#E63081"/>
<path d="M16.298 17.1201H18.8845V18.8928H11.4964C11.3141 18.8928 11.1327 18.8861 10.9532 18.8737C10.8701 18.8671 10.788 18.8604 10.7049 18.8508H10.6858C10.1151 18.7899 9.55366 18.6617 9.01306 18.469V18.4461L9.00542 16.5655V16.5398C10.2671 17.1666 11.718 17.298 13.0718 16.908C14.4256 16.5181 15.5841 15.6351 16.3188 14.4331C17.0536 13.2312 17.3111 11.7977 17.0408 10.4152C16.7704 9.03281 15.9917 7.80185 14.8583 6.96516C13.7248 6.12847 12.319 5.74679 10.918 5.89541C9.51692 6.04402 8.22245 6.71213 7.28985 7.76797C6.35726 8.82381 5.85424 10.1907 5.88001 11.5991C5.90578 13.0075 6.45848 14.3551 7.42908 15.3761V17.6767C6.21228 16.8717 5.26034 15.7253 4.69269 14.3814C4.16944 13.1464 3.99219 11.7922 4.17993 10.4642C4.36767 9.13609 4.91331 7.88411 5.7584 6.84241C6.60348 5.80071 7.71615 5.00855 8.97716 4.55083C10.2382 4.09311 11.6 3.98707 12.9167 4.24409C14.2333 4.5011 15.4552 5.11148 16.4515 6.00981C17.4477 6.90814 18.1806 8.06056 18.5717 9.34357C18.9628 10.6266 18.9974 11.9918 18.6717 13.293C18.346 14.5941 17.6724 15.7821 16.7229 16.7297C16.5845 16.8662 16.4432 16.9961 16.298 17.1201Z" fill="#FDECF3"/>
<path d="M126.835 16.4973L128.845 13.2028L126.816 9.98281H127.942L129.478 12.4211L130.911 9.98281H132.019L129.999 13.2494L132.047 16.4973H130.921L129.376 14.0404L127.942 16.4973H126.835Z" fill="black"/>
</svg>
