<svg width="86" height="22" viewBox="0 0 86 22" fill="none" xmlns="http://www.w3.org/2000/svg">
<g clip-path="url(#clip0_311_80)">
<path fill-rule="evenodd" clip-rule="evenodd" d="M7.4457 5.38037H13.2636C16.3872 5.38037 17.5631 7.02868 17.3814 9.45026C17.0811 13.4497 14.7623 15.66 11.6867 15.66H10.1264C9.70436 15.66 9.42053 15.9511 9.30639 16.7401L8.64711 21.3265C8.60356 21.6239 8.45339 21.7961 8.22812 21.8212H4.57281C4.2289 21.8212 4.10726 21.5472 4.19586 20.954L6.42449 6.2507C6.5131 5.66057 6.82246 5.38037 7.4457 5.38037Z" fill="#009EE3"/>
<path fill-rule="evenodd" clip-rule="evenodd" d="M32.6965 5.1084C34.6593 5.1084 36.4705 6.21823 36.2227 8.98575C35.9223 12.273 34.2328 14.0919 31.5672 14.0997H29.2394C28.9045 14.0997 28.7423 14.3831 28.6552 14.9685L28.2047 17.9536C28.1371 18.4044 27.9149 18.6283 27.586 18.6283H25.4189C25.0735 18.6283 24.9534 18.3966 25.03 17.8832L26.8186 5.91612C26.9072 5.32755 27.1189 5.1084 27.5049 5.1084H32.6965ZM29.1658 11.5138H30.9304C32.0342 11.47 32.7686 10.6732 32.8422 9.23621C32.8872 8.34866 32.3121 7.71313 31.3975 7.71782L29.735 7.72565L29.1658 11.5122V11.5138ZM42.1126 17.7094C42.3108 17.5231 42.5121 17.4245 42.4835 17.6562L42.413 18.2103C42.3769 18.4999 42.4866 18.6549 42.7464 18.6549H44.6701C44.9945 18.6549 45.1522 18.5171 45.2333 17.9959L46.4197 10.2333C46.4783 9.84356 46.3882 9.65259 46.1043 9.65259H43.9868C43.7961 9.65259 43.7045 9.7653 43.6534 10.069L43.5753 10.5464C43.5348 10.7953 43.4252 10.8391 43.323 10.5871C42.9641 9.70112 42.048 9.30352 40.77 9.33483C37.7995 9.39744 35.7977 11.747 35.5844 14.7603C35.4177 17.0895 37.0201 18.9194 39.1316 18.9194C40.6619 18.9194 41.3482 18.4498 42.1186 17.7125L42.1126 17.7094ZM40.5012 16.5151C39.2232 16.5151 38.3327 15.4522 38.5189 14.1498C38.7051 12.8475 39.899 11.7846 41.177 11.7846C42.455 11.7846 43.3456 12.8459 43.1608 14.1498C42.9761 15.4538 41.7807 16.5151 40.5012 16.5151ZM50.1891 9.62755H48.2443C47.8404 9.62755 47.6767 9.94061 47.8058 10.3257L50.2297 17.7251L47.8434 21.244C47.6451 21.5367 47.7983 21.8059 48.0791 21.8059H50.2732C50.4013 21.8213 50.5309 21.798 50.6467 21.7389C50.7625 21.6798 50.8596 21.5874 50.9265 21.4725L58.3798 10.3257C58.6096 9.98288 58.5014 9.62442 58.1245 9.62285H56.0475C55.6916 9.62285 55.549 9.76843 55.3447 10.0784L52.2345 14.7744L50.8469 10.069C50.7658 9.78408 50.5631 9.62755 50.1891 9.62755Z" fill="#113984"/>
<path fill-rule="evenodd" clip-rule="evenodd" d="M66.1345 5.1084C68.0988 5.1084 69.9099 6.21823 69.6606 8.98575C69.3678 12.273 67.6708 14.0919 65.0051 14.0997H62.6774C62.3425 14.0997 62.1803 14.3831 62.0932 14.9685L61.6427 17.9536C61.5736 18.4044 61.3528 18.6283 61.0239 18.6283H58.8584C58.513 18.6283 58.3928 18.3966 58.4694 17.8832L60.261 5.91612C60.3481 5.32755 60.5614 5.1084 60.9473 5.1084H66.1345ZM62.6053 11.5138H64.3699C65.4737 11.47 66.2081 10.6732 66.2816 9.23621C66.3267 8.34866 65.7515 7.71313 64.8354 7.71782L63.1745 7.72565L62.6053 11.5122V11.5138ZM75.5521 17.7094C75.7503 17.5231 75.9515 17.4245 75.923 17.6562L75.8524 18.2103C75.8149 18.4999 75.926 18.6549 76.1843 18.6549H78.1096C78.434 18.6549 78.5917 18.5171 78.6713 17.9959L79.8577 10.2333C79.9177 9.84356 79.8276 9.65259 79.5423 9.65259H77.4278C77.2371 9.65259 77.144 9.7653 77.0944 10.069L77.0163 10.5464C76.9758 10.7953 76.8661 10.8391 76.764 10.5871C76.4051 9.70112 75.489 9.30352 74.2035 9.33483C71.2345 9.39744 69.2326 11.747 69.0179 14.7603C68.8527 17.0895 70.4551 18.9194 72.5651 18.9194C74.0969 18.9194 74.7817 18.4498 75.5536 17.7125L75.5521 17.7094ZM73.9407 16.5151C72.6627 16.5151 71.7721 15.4522 71.9583 14.1498C72.1446 12.8475 73.3385 11.7846 74.6165 11.7846C75.8945 11.7846 76.785 12.8459 76.5988 14.1498C76.4126 15.4538 75.2187 16.5151 73.9407 16.5151ZM82.8206 18.6658H80.5995C80.56 18.6681 80.5205 18.6611 80.484 18.6452C80.4474 18.6293 80.4148 18.605 80.3885 18.5742C80.3622 18.5433 80.343 18.5067 80.3322 18.467C80.3214 18.4273 80.3194 18.3856 80.3262 18.3449L82.2785 5.45277C82.2974 5.36492 82.3441 5.28625 82.4111 5.22945C82.4782 5.17266 82.5616 5.14104 82.6479 5.1397H84.8706C84.9093 5.13761 84.948 5.14454 84.9838 5.15998C85.0197 5.17541 85.0518 5.19897 85.0778 5.22895C85.1038 5.25892 85.1231 5.29456 85.1343 5.33327C85.1455 5.37199 85.1482 5.41281 85.1424 5.45277L83.1901 18.3449C83.1735 18.435 83.1278 18.5163 83.0605 18.5753C82.9933 18.6343 82.9086 18.6674 82.8206 18.669V18.6658Z" fill="#009EE3"/>
<path fill-rule="evenodd" clip-rule="evenodd" d="M3.79901 0.319824H9.62437C11.2643 0.319824 13.2091 0.376177 14.5111 1.5721C15.3807 2.37199 15.8372 3.64461 15.7321 5.01586C15.3747 9.65084 12.7135 12.2477 9.14681 12.2477H6.27392C5.78585 12.2477 5.46147 12.5843 5.3233 13.5L4.52136 18.8144C4.4703 19.1587 4.32613 19.3622 4.07083 19.3873H0.477089C0.0791199 19.3873 -0.0620479 19.0742 0.0415743 18.3823L2.62462 1.33104C2.72824 0.645414 3.09017 0.319824 3.79901 0.319824Z" fill="#113984"/>
<path fill-rule="evenodd" clip-rule="evenodd" d="M5.40723 12.9598L6.42393 6.2507C6.51253 5.66057 6.8219 5.38037 7.43762 5.38037H13.2555C14.2181 5.38037 14.9975 5.53691 15.6073 5.82649C15.0216 9.95118 12.4625 12.2444 9.10909 12.2444H6.24371C5.85926 12.2444 5.57693 12.4448 5.40723 12.9598Z" fill="#172C70"/>
</g>
<defs>
<clipPath id="clip0_311_80">
<rect width="85.1399" height="21.5" fill="white" transform="translate(0.00878906 0.319824)"/>
</clipPath>
</defs>
</svg>
