<svg width="33" height="33" viewBox="0 0 33 33" fill="none" xmlns="http://www.w3.org/2000/svg">
<rect width="33" height="33" rx="3" fill="#59B9AF" fill-opacity="0.13"/>
<path d="M12.9185 8C11.3067 8 9.97776 9.31034 10.1361 10.9144C10.9219 18.8758 15.1242 23.0781 23.0856 23.8639C24.6897 24.0222 26 22.6933 26 21.0815V21.0815C26 19.7784 25.1362 18.6332 23.8832 18.2752L22.8002 17.9658C22.0375 17.7479 21.2214 18.0478 20.7815 18.7078V18.7078C20.4432 19.2152 19.8647 19.5436 19.2765 19.3827C17.2694 18.834 15.166 16.7306 14.6173 14.7235C14.4564 14.1353 14.7848 13.5568 15.2922 13.2185V13.2185C15.9522 12.7785 16.2521 11.9625 16.0342 11.1998L15.7248 10.1168C15.3668 8.86382 14.2216 8 12.9185 8V8Z" stroke="#27544F" stroke-width="1.5" stroke-linecap="round" stroke-linejoin="round"/>
</svg>
