<svg width="33" height="33" viewBox="0 0 33 33" fill="none" xmlns="http://www.w3.org/2000/svg">
<rect width="33" height="33" rx="3" fill="#EAF6F5"/>
<path d="M22.1364 21.7812C22.7777 21.7812 23.2955 21.2369 23.2955 20.5625C23.2955 19.8881 22.7777 19.3438 22.1364 19.3438C21.495 19.3438 20.9773 19.8881 20.9773 20.5625C20.9773 21.2369 21.495 21.7812 22.1364 21.7812ZM23.2955 14.4688H21.3636V16.5H24.81L23.2955 14.4688ZM12.8636 21.7812C13.505 21.7812 14.0227 21.2369 14.0227 20.5625C14.0227 19.8881 13.505 19.3438 12.8636 19.3438C12.2223 19.3438 11.7045 19.8881 11.7045 20.5625C11.7045 21.2369 12.2223 21.7812 12.8636 21.7812ZM23.6818 13.25L26 16.5V20.5625H24.4545C24.4545 21.9113 23.4191 23 22.1364 23C20.8536 23 19.8182 21.9113 19.8182 20.5625H15.1818C15.1818 21.9113 14.1464 23 12.8636 23C11.5809 23 10.5455 21.9113 10.5455 20.5625H9V11.625C9 10.7231 9.68773 10 10.5455 10H21.3636V13.25H23.6818ZM10.5455 11.625V18.9375H11.1327C11.5577 18.4419 12.1759 18.125 12.8636 18.125C13.5514 18.125 14.1695 18.4419 14.5945 18.9375H19.8182V11.625H10.5455ZM15.9545 12.4375L18.6591 15.2812L15.9545 18.125V16.0938H12.0909V14.4688H15.9545V12.4375Z" fill="#27544F"/>
</svg>
