<svg width="33" height="33" viewBox="0 0 33 33" fill="none" xmlns="http://www.w3.org/2000/svg">
<rect width="33" height="33" rx="3" fill="#EAF6F5"/>
<path d="M25.3571 9H8.64286C8.28728 9 8 9.28437 8 9.63636V22.3636C8 22.7156 8.28728 23 8.64286 23H25.3571C25.7127 23 26 22.7156 26 22.3636V9.63636C26 9.28437 25.7127 9 25.3571 9ZM9.44643 10.4318H24.5536V12.8182H9.44643V10.4318ZM24.5536 21.5682H9.44643V14.5682H24.5536V21.5682ZM19.7924 20.2955H23.1071C23.1955 20.2955 23.2679 20.2239 23.2679 20.1364V18.7045C23.2679 18.617 23.1955 18.5455 23.1071 18.5455H19.7924C19.704 18.5455 19.6317 18.617 19.6317 18.7045V20.1364C19.6317 20.2239 19.704 20.2955 19.7924 20.2955Z" fill="#27544F"/>
</svg>
