<svg width="48" height="18" viewBox="0 0 48 18" fill="none" xmlns="http://www.w3.org/2000/svg">
<path d="M32.1195 10.223L32.5898 10.3641C32.5585 10.4974 32.5114 10.6071 32.4409 10.6934C32.3703 10.7796 32.2919 10.8502 32.19 10.8894C32.0881 10.9364 31.9627 10.9599 31.8059 10.9599C31.6177 10.9599 31.4688 10.9364 31.3433 10.8815C31.2257 10.8266 31.1238 10.7326 31.0376 10.5914C30.9513 10.4582 30.9043 10.2779 30.9043 10.0662C30.9043 9.78396 30.9827 9.56444 31.1316 9.40765C31.2806 9.25085 31.5001 9.1803 31.7745 9.1803C31.994 9.1803 32.1587 9.22734 32.2841 9.31357C32.4095 9.39981 32.5036 9.53308 32.5585 9.72124L32.0881 9.82316C32.0724 9.76828 32.0567 9.72908 32.0332 9.70556C32.0019 9.66636 31.9705 9.635 31.9235 9.61148C31.8764 9.58796 31.8294 9.58012 31.7823 9.58012C31.6648 9.58012 31.5707 9.62716 31.508 9.72908C31.4609 9.79964 31.4374 9.91723 31.4374 10.0662C31.4374 10.2543 31.4688 10.3876 31.5236 10.4582C31.5785 10.5287 31.6647 10.5679 31.7667 10.5679C31.8686 10.5679 31.947 10.5366 31.994 10.4817C32.0567 10.4111 32.0959 10.3327 32.1195 10.223Z" fill="#225E63"/>
<path d="M32.778 10.0661C32.778 9.78386 32.8564 9.56435 33.0131 9.40755C33.1699 9.25076 33.3895 9.17236 33.6717 9.17236C33.9618 9.17236 34.1813 9.25076 34.3381 9.39972C34.4949 9.55651 34.5732 9.76818 34.5732 10.0504C34.5732 10.2542 34.5419 10.4189 34.4713 10.5443C34.4008 10.6698 34.3067 10.7717 34.1734 10.8422C34.048 10.9128 33.8834 10.952 33.6952 10.952C33.4992 10.952 33.3424 10.9206 33.2091 10.8579C33.0837 10.7952 32.9818 10.7011 32.8955 10.56C32.8093 10.4189 32.778 10.2699 32.778 10.0661ZM33.3111 10.0661C33.3111 10.2386 33.3424 10.364 33.4051 10.4424C33.4678 10.5208 33.5541 10.56 33.6717 10.56C33.7893 10.56 33.8755 10.5208 33.9382 10.4502C34.001 10.3718 34.0323 10.2386 34.0323 10.0504C34.0323 9.88578 34.001 9.76818 33.9304 9.69763C33.8677 9.61923 33.7736 9.58787 33.6638 9.58787C33.5541 9.58787 33.4678 9.62707 33.4051 9.70547C33.3424 9.76818 33.3111 9.89362 33.3111 10.0661Z" fill="#225E63"/>
<path d="M34.8477 9.20374H35.5454L35.812 10.2543L36.0785 9.20374H36.7763V10.9285H36.3373V9.6114L36.0001 10.9285H35.6082L35.2711 9.6114V10.9285H34.832V9.20374H34.8477Z" fill="#225E63"/>
<path d="M37.1209 9.20374H38.0068C38.2028 9.20374 38.3439 9.25077 38.438 9.34485C38.5321 9.43893 38.5791 9.56436 38.5791 9.73684C38.5791 9.90931 38.5242 10.0504 38.4223 10.1445C38.3204 10.2464 38.1558 10.2935 37.9441 10.2935H37.654V10.9363H37.1209V9.20374ZM37.654 9.94067H37.7873C37.8892 9.94067 37.9598 9.92499 38.0068 9.88579C38.046 9.84659 38.0695 9.80739 38.0695 9.75252C38.0695 9.69764 38.0538 9.6506 38.0146 9.6114C37.9754 9.5722 37.9127 9.55652 37.8108 9.55652H37.6619V9.94067H37.654Z" fill="#225E63"/>
<path d="M38.8616 9.20374H39.3947V10.5051H40.2257V10.9285H38.8616V9.20374Z" fill="#225E63"/>
<path d="M40.4922 9.20374H41.0253V10.9285H40.4922V9.20374Z" fill="#225E63"/>
<path d="M42.4677 10.6384H41.8641L41.7778 10.9207H41.2369L41.8876 9.19592H42.4677L43.1184 10.9207H42.5618L42.4677 10.6384ZM42.358 10.27L42.1698 9.65063L41.9817 10.27H42.358Z" fill="#225E63"/>
<path d="M43.283 9.20374H43.7769L44.4276 10.1602V9.20374H44.9294V10.9285H44.4276L43.7848 9.97987V10.9285H43.283V9.20374Z" fill="#225E63"/>
<path d="M45.1649 9.20374H46.7877V9.62708H46.2467V10.9285H45.7136V9.62708H45.1727V9.20374H45.1649Z" fill="#225E63"/>
<path d="M25.7065 11.8301L27.2509 11.3441L26.7491 10.2308C26.3807 10.6934 26.0122 11.2892 25.7065 11.8301ZM25.1812 6.74216L22.1551 0L0 1.25436L6.1385 18L17.953 14.2761C17.2003 13.1943 16.926 11.9085 17.7962 11.2814C18.7683 10.5758 20.2343 11.3911 21.1672 12.5436C22.0688 11.0383 24.601 7.53397 25.1812 6.74216Z" fill="#225E63"/>
<path d="M21.4648 4.87245C22.3899 4.87245 23.1425 4.16687 23.1425 3.28882C23.1425 2.41077 22.3899 1.7052 21.4648 1.7052C20.5397 1.7052 19.7871 2.41077 19.7871 3.28882C19.7871 4.15903 20.5397 4.87245 21.4648 4.87245ZM20.0928 5.5545H22.8367V12.7278H20.0928V5.5545Z" fill="#FEFEFE"/>
<path d="M18.7365 7.64759C18.7601 7.65543 18.7757 7.64759 18.7757 7.62408V5.80526C18.7757 5.78174 18.7601 5.75822 18.7365 5.74254C18.7365 5.74254 18.3759 5.50735 17.2784 5.44463C17.2235 5.41327 16.2592 5.40543 16.0005 5.44463C12.0022 5.76606 11.8533 8.65892 11.8533 8.78435V9.48993C11.8533 9.57617 11.8533 12.5317 16.0005 12.7905C16.4081 12.8218 17.2 12.7905 17.2784 12.7905C18.2348 12.7905 18.8933 12.5004 18.8933 12.5004C18.9169 12.4925 18.9325 12.469 18.9325 12.4455V10.7443C18.9325 10.7208 18.9169 10.7129 18.9012 10.7286C18.9012 10.7286 18.6033 10.9638 17.3019 11.0971C16.9334 11.1363 16.7531 11.1206 16.6198 11.0971C14.7696 10.7835 14.6834 9.43505 14.6834 9.43505C14.6834 9.41153 14.6756 9.37233 14.6756 9.35665V8.83923C14.6756 8.81571 14.6756 8.77651 14.6834 8.76083C14.6834 8.76083 14.8088 7.31049 16.6198 7.15369H17.3019C18.0937 7.25561 18.7365 7.64759 18.7365 7.64759Z" fill="#FEFEFE"/>
<path d="M4.23309 12.7044C4.23309 12.7279 4.24877 12.7436 4.27229 12.7436H6.94564C6.96916 12.7436 6.98484 12.7279 6.98484 12.7044V10.619C6.98484 10.5955 7.00051 10.5798 7.02403 10.5798C7.02403 10.5798 11.2967 10.8855 11.2967 8.02405C11.2967 5.75837 8.6155 5.51534 7.73745 5.55454C7.72177 5.55454 4.27229 5.55454 4.27229 5.55454C4.24877 5.55454 4.23309 5.57022 4.23309 5.59374V12.7044ZM6.9378 8.98834V7.11464H7.59633C7.59633 7.11464 8.54494 7.15384 8.62334 7.80454C8.63902 7.85158 8.63902 8.173 8.62334 8.18868C8.4979 8.94914 7.67473 8.98834 7.67473 8.98834H6.9378Z" fill="#FEFEFE"/>
<path d="M21.5435 16.1889C21.763 16.1889 21.9355 16.1889 22.2177 16.0635C23.1898 15.5539 26.4747 7.53387 29.9398 5.06436C29.9633 5.04868 29.9869 5.02516 30.0025 5.00164C30.0261 4.97028 30.0261 4.93892 30.0261 4.93892C30.0261 4.93892 30.0261 4.77429 29.5165 4.77429C26.4355 4.68805 23.229 11.1558 21.5435 13.7116C21.52 13.7429 21.4102 13.7116 21.4102 13.7116C21.4102 13.7116 20.2813 12.3788 19.3013 11.8692C19.2778 11.8614 19.168 11.8222 19.0505 11.83C18.9721 11.83 18.5174 11.9241 18.3057 12.1436C18.0548 12.4102 18.0626 12.5591 18.0626 12.8806C18.0626 12.9041 18.0783 13.0138 18.1097 13.0687C18.3527 13.4921 19.4424 14.9973 20.344 15.8283C20.4773 15.9302 20.689 16.1889 21.5435 16.1889Z" fill="#2BBC5D"/>
<path d="M30.8495 2.64221H33.413C33.9226 2.64221 34.3303 2.71277 34.636 2.84605C34.9496 2.98716 35.2083 3.18315 35.4043 3.43402C35.6082 3.69274 35.7571 3.99064 35.8434 4.32775C35.9374 4.66486 35.9845 5.02549 35.9845 5.40963C35.9845 6.00545 35.9139 6.468 35.7806 6.79726C35.6474 7.12653 35.4592 7.40092 35.2162 7.62828C34.9732 7.84779 34.7144 7.99674 34.4401 8.07514C34.0637 8.17705 33.7188 8.22409 33.413 8.22409H30.8495V2.64221ZM32.5742 3.90441V6.95406H32.9975C33.3582 6.95406 33.6169 6.91486 33.7658 6.83646C33.9148 6.75807 34.0402 6.61695 34.1265 6.42096C34.2127 6.22497 34.2597 5.8957 34.2597 5.44883C34.2597 4.85301 34.1657 4.45319 33.9697 4.23367C33.7737 4.01416 33.4601 3.90441 33.0054 3.90441H32.5742Z" fill="#225E63"/>
<path d="M36.4627 6.38163L38.1091 6.27971C38.1483 6.54626 38.2188 6.75009 38.3286 6.89121C38.5089 7.11856 38.7598 7.22831 39.089 7.22831C39.3321 7.22831 39.5281 7.17344 39.6613 7.05584C39.7946 6.93824 39.8652 6.80497 39.8652 6.65602C39.8652 6.5149 39.8025 6.38163 39.677 6.26403C39.5516 6.14643 39.2537 6.04452 38.7911 5.9426C38.0307 5.77013 37.4976 5.54277 37.1683 5.26054C36.839 4.97831 36.6823 4.61769 36.6823 4.17866C36.6823 3.88859 36.7685 3.62204 36.9331 3.36333C37.0978 3.10462 37.3486 2.90863 37.6857 2.75967C38.0228 2.61072 38.4775 2.54016 39.0577 2.54016C39.7711 2.54016 40.3199 2.67344 40.6883 2.93999C41.0647 3.20654 41.2842 3.62988 41.3547 4.21002L39.7241 4.3041C39.677 4.05323 39.5908 3.87292 39.4497 3.75532C39.3086 3.63772 39.1204 3.58284 38.8774 3.58284C38.6735 3.58284 38.5246 3.62204 38.4227 3.70828C38.3208 3.79452 38.2737 3.89643 38.2737 4.02187C38.2737 4.10811 38.3129 4.19434 38.3992 4.2649C38.4775 4.33546 38.6735 4.40601 38.9793 4.46873C39.7319 4.63337 40.2728 4.798 40.6021 4.96264C40.9314 5.12727 41.1666 5.33894 41.3155 5.58197C41.4645 5.825 41.535 6.10724 41.535 6.41298C41.535 6.77361 41.4331 7.10288 41.2371 7.40079C41.0411 7.70654 40.7589 7.93389 40.4061 8.09068C40.0533 8.24748 39.5986 8.32588 39.0577 8.32588C38.1091 8.32588 37.4505 8.14556 37.0821 7.7771C36.7214 7.40863 36.5176 6.94609 36.4627 6.38163Z" fill="#225E63"/>
<path d="M41.9742 6.38163L43.6205 6.27971C43.6597 6.54626 43.7302 6.75009 43.84 6.89121C44.0203 7.11856 44.2712 7.22831 44.6005 7.22831C44.8435 7.22831 45.0395 7.17344 45.1728 7.05584C45.306 6.93824 45.3766 6.80497 45.3766 6.65602C45.3766 6.5149 45.3139 6.38163 45.1884 6.26403C45.063 6.14643 44.7651 6.04452 44.3025 5.9426C43.5421 5.77013 43.009 5.54277 42.6797 5.26054C42.3583 4.97831 42.1937 4.61769 42.1937 4.17866C42.1937 3.88859 42.2799 3.62204 42.4445 3.36333C42.6092 3.10462 42.86 2.90863 43.1971 2.75967C43.5343 2.61072 43.989 2.54016 44.5691 2.54016C45.2825 2.54016 45.8313 2.67344 46.1998 2.93999C46.5761 3.20654 46.7956 3.62988 46.8661 4.21002L45.2355 4.3041C45.1884 4.05323 45.1022 3.87292 44.9611 3.75532C44.82 3.63772 44.6318 3.58284 44.3888 3.58284C44.185 3.58284 44.036 3.62204 43.9341 3.70828C43.8322 3.79452 43.7851 3.89643 43.7851 4.02187C43.7851 4.10811 43.8243 4.19434 43.9106 4.2649C43.989 4.33546 44.185 4.40601 44.4907 4.46873C45.2433 4.63337 45.7843 4.798 46.1135 4.96264C46.4428 5.12727 46.678 5.33894 46.8269 5.58197C46.9759 5.825 47.0465 6.10724 47.0465 6.41298C47.0465 6.77361 46.9445 7.10288 46.7485 7.40079C46.5525 7.70654 46.2703 7.93389 45.9175 8.09068C45.5647 8.24748 45.11 8.32588 44.5691 8.32588C43.6205 8.32588 42.962 8.14556 42.5935 7.7771C42.225 7.40863 42.0212 6.94609 41.9742 6.38163Z" fill="#225E63"/>
</svg>
