<svg width="31" height="18" viewBox="0 0 31 18" fill="none" xmlns="http://www.w3.org/2000/svg">
<path d="M25.7065 11.8301L27.2509 11.3441L26.7491 10.2308C26.3807 10.6934 26.0122 11.2892 25.7065 11.8301ZM25.1812 6.74216L22.1551 0L0 1.25436L6.1385 18L17.953 14.2761C17.2003 13.1943 16.926 11.9085 17.7962 11.2814C18.7683 10.5758 20.2343 11.3911 21.1672 12.5436C22.0688 11.0383 24.601 7.53397 25.1812 6.74216Z" fill="#225E63"/>
<path d="M21.4647 4.87245C22.3898 4.87245 23.1424 4.16687 23.1424 3.28882C23.1424 2.41077 22.3898 1.7052 21.4647 1.7052C20.5397 1.7052 19.787 2.41077 19.787 3.28882C19.787 4.15903 20.5397 4.87245 21.4647 4.87245ZM20.0928 5.5545H22.8367V12.7278H20.0928V5.5545Z" fill="#FEFEFE"/>
<path d="M18.7365 7.64759C18.7601 7.65543 18.7757 7.64759 18.7757 7.62408V5.80526C18.7757 5.78174 18.7601 5.75822 18.7365 5.74254C18.7365 5.74254 18.3759 5.50735 17.2784 5.44463C17.2235 5.41327 16.2592 5.40543 16.0005 5.44463C12.0022 5.76606 11.8533 8.65892 11.8533 8.78435V9.48993C11.8533 9.57617 11.8533 12.5317 16.0005 12.7905C16.4081 12.8218 17.2 12.7905 17.2784 12.7905C18.2348 12.7905 18.8933 12.5004 18.8933 12.5004C18.9169 12.4925 18.9325 12.469 18.9325 12.4455V10.7443C18.9325 10.7208 18.9169 10.7129 18.9012 10.7286C18.9012 10.7286 18.6033 10.9638 17.3019 11.0971C16.9334 11.1363 16.7531 11.1206 16.6198 11.0971C14.7696 10.7835 14.6834 9.43505 14.6834 9.43505C14.6834 9.41153 14.6756 9.37233 14.6756 9.35665V8.83923C14.6756 8.81571 14.6756 8.77651 14.6834 8.76083C14.6834 8.76083 14.8088 7.31049 16.6198 7.15369H17.3019C18.0937 7.25561 18.7365 7.64759 18.7365 7.64759Z" fill="#FEFEFE"/>
<path d="M4.23309 12.7044C4.23309 12.7279 4.24877 12.7436 4.27229 12.7436H6.94564C6.96916 12.7436 6.98484 12.7279 6.98484 12.7044V10.619C6.98484 10.5955 7.00051 10.5798 7.02403 10.5798C7.02403 10.5798 11.2967 10.8855 11.2967 8.02405C11.2967 5.75837 8.6155 5.51534 7.73745 5.55454C7.72177 5.55454 4.27229 5.55454 4.27229 5.55454C4.24877 5.55454 4.23309 5.57022 4.23309 5.59374V12.7044ZM6.9378 8.98834V7.11464H7.59633C7.59633 7.11464 8.54494 7.15384 8.62334 7.80454C8.63902 7.85158 8.63902 8.173 8.62334 8.18868C8.4979 8.94914 7.67473 8.98834 7.67473 8.98834H6.9378Z" fill="#FEFEFE"/>
<path d="M21.5435 16.1892C21.763 16.1892 21.9355 16.1892 22.2177 16.0637C23.1898 15.5542 26.4747 7.53412 29.9398 5.0646C29.9633 5.04892 29.9869 5.02541 30.0025 5.00189C30.0261 4.97053 30.0261 4.93917 30.0261 4.93917C30.0261 4.93917 30.0261 4.77454 29.5165 4.77454C26.4355 4.6883 23.229 11.1561 21.5435 13.7118C21.52 13.7432 21.4102 13.7118 21.4102 13.7118C21.4102 13.7118 20.2813 12.3791 19.3013 11.8695C19.2778 11.8616 19.168 11.8224 19.0505 11.8303C18.9721 11.8303 18.5174 11.9244 18.3057 12.1439C18.0548 12.4104 18.0626 12.5594 18.0626 12.8808C18.0626 12.9043 18.0783 13.0141 18.1097 13.069C18.3527 13.4923 19.4424 14.9975 20.344 15.8285C20.4773 15.9305 20.689 16.1892 21.5435 16.1892Z" fill="#2BBC5D"/>
</svg>
