<svg width="350" height="39" viewBox="0 0 350 39" fill="none" xmlns="http://www.w3.org/2000/svg">
<path d="M24.5025 32.6282C23.8325 33.9372 22.9023 35.0529 21.7196 35.9806C20.5343 36.9082 19.1171 37.5962 17.4705 38.042C15.8214 38.4877 14.0176 38.7119 12.0593 38.7119C10.3741 38.7119 8.93366 38.6089 7.72773 38.4027C6.52696 38.1966 5.52975 37.9492 4.74126 37.6554C3.95019 37.3643 3.35753 37.0963 2.96329 36.8567C2.56904 36.6144 2.31909 36.4959 2.21602 36.4959C2.11295 36.4959 1.89135 36.6995 1.54606 37.1118C1.20335 37.524 0.894139 37.9183 0.618425 38.2971H0.154606L0 28.0441H0.512777C0.821989 28.9692 1.21623 29.871 1.69809 30.7523C2.17737 31.6258 2.70303 32.4504 3.26734 33.2234C3.83423 33.9964 4.43462 34.6741 5.07108 35.2591C5.70754 35.844 6.31308 36.2898 6.90059 36.599C7.48294 36.9108 8.25597 37.2174 9.21968 37.5266C10.1808 37.8358 11.1085 37.9904 12.0026 37.9904C14.5459 37.9904 16.6073 37.2947 18.1868 35.9058C19.7664 34.5118 20.5549 32.6308 20.5549 30.2601C20.5549 29.3016 20.3977 28.459 20.0911 27.7375C19.7819 27.0185 19.3618 26.3924 18.8285 25.8564C18.2951 25.3256 17.6689 24.8695 16.9474 24.4933C16.2259 24.1145 15.4529 23.7744 14.6283 23.4652C13.8038 23.156 13.0823 22.8957 12.4638 22.6896C11.8454 22.4834 11.2708 22.2876 10.7374 22.0995C10.204 21.9088 9.65515 21.7207 9.08827 21.5326C8.52395 21.3419 7.84369 21.092 7.05262 20.7828C6.15848 20.4401 5.30041 19.9685 4.47585 19.363C3.65128 18.7652 2.92979 18.0617 2.31136 17.2552C1.69551 16.4486 1.19304 15.5545 0.816836 14.5727C0.440627 13.5936 0.252524 12.5577 0.252524 11.4574C0.252524 9.60216 0.59008 8.002 1.26777 6.66466C1.94546 5.32216 2.85764 4.20899 3.99915 3.31485C5.14323 2.42071 6.45996 1.76105 7.95449 1.33073C9.45159 0.900407 11.0208 0.68396 12.6726 0.68396C14.2186 0.68396 15.5405 0.815378 16.6408 1.07305C17.7411 1.33073 18.6429 1.61418 19.3464 1.92339C20.0473 2.23003 20.5807 2.51348 20.944 2.77116C21.3047 3.03141 21.5006 3.15768 21.5341 3.15768C21.6397 3.15768 21.8536 2.95152 22.1783 2.53924C22.5029 2.12695 22.8044 1.71468 23.0801 1.30497H23.647V10.8364H23.0801C22.6678 9.70266 22.1344 8.5792 21.4825 7.4583C20.8306 6.34256 20.073 5.35049 19.215 4.47181C18.3569 3.59571 17.3752 2.88194 16.2775 2.33309C15.1772 1.78424 13.9584 1.50853 12.6184 1.50853C11.5542 1.50853 10.5493 1.66313 9.6062 1.97492C8.65795 2.28413 7.83338 2.74795 7.12992 3.3638C6.42646 3.98223 5.87761 4.74752 5.48079 5.6597C5.08654 6.57188 4.88813 7.61033 4.88813 8.77761C4.88813 10.5994 5.43698 12.0578 6.53211 13.1581C7.62981 14.2584 9.05219 15.1345 10.7992 15.7864C11.4847 16.0595 12.1263 16.2992 12.7267 16.5079C13.3271 16.7141 13.9197 16.9099 14.4995 17.1006C15.0818 17.2887 15.6745 17.4845 16.2749 17.6907C16.8727 17.8942 17.5014 18.1184 18.1508 18.358C20.4802 19.2187 22.2865 20.4633 23.5723 22.0969C24.8581 23.728 25.5023 25.7662 25.5023 28.2013C25.5049 29.8478 25.1725 31.3243 24.5025 32.6282Z" fill="#231F20"/>
<path d="M61.6286 38.3512V37.8359C61.7317 37.8359 61.9816 37.8024 62.3759 37.7328C62.7727 37.6658 63.1824 37.5447 63.6101 37.3694C64.0404 37.1994 64.4167 36.9597 64.7439 36.6505C65.0686 36.3413 65.2335 35.9471 65.2335 35.4626C65.2335 35.1534 65.1382 34.651 64.95 33.9449C64.7594 33.2415 64.494 32.3834 64.1512 31.3656C63.806 30.3529 63.4117 29.2294 62.9685 27.9926C62.5202 26.7557 62.0409 25.4673 61.5229 24.1274H47.8145C47.3018 25.4338 46.7993 26.6759 46.32 27.8612C45.8381 29.0465 45.3563 30.2395 44.877 31.4429C44.1555 33.2982 43.7948 34.6071 43.7948 35.3621C43.7948 35.8105 43.9313 36.179 44.2096 36.4702C44.4828 36.7639 44.8358 37.001 45.2661 37.1917C45.6964 37.3823 46.1602 37.5215 46.6576 37.6039C47.1549 37.689 47.6264 37.7663 48.0748 37.8359V38.3512H37.0977V37.7817C37.9945 37.6812 38.7572 37.439 39.3911 37.0628C40.0275 36.6866 40.3986 36.4263 40.5017 36.2898C40.7387 36.0501 41.1381 35.4833 41.687 34.5891C42.2358 33.695 42.9058 32.3731 43.6969 30.6209C44.4183 29.0053 45.2249 27.1655 46.1164 25.104C47.0106 23.0426 47.9279 20.9219 48.8736 18.7394C49.8193 16.5595 50.7546 14.3589 51.6823 12.1429C52.6099 9.92687 53.486 7.85771 54.3106 5.93287L53.7926 4.80425C54.4111 4.52854 54.9702 4.20128 55.4675 3.82249C55.9649 3.44628 56.4029 3.04947 56.7817 2.63461C57.1579 2.2249 57.4774 1.82808 57.7351 1.45187C57.9928 1.07566 58.1912 0.76387 58.3252 0.524231H58.74C59.8042 3.37671 60.8169 6.08233 61.778 8.63848C62.7418 11.1998 63.6591 13.6657 64.5352 16.0338C65.4113 18.4044 66.2616 20.6978 67.0862 22.9164C67.9108 25.1298 68.7353 27.32 69.5573 29.4845C69.9361 30.5513 70.2891 31.4351 70.6138 32.1386C70.941 32.8421 71.3121 33.6409 71.7218 34.5324C71.7888 34.6741 71.9434 34.9138 72.1856 35.2565C72.4253 35.5992 72.7448 35.9522 73.139 36.3104C73.5333 36.6763 74.0203 36.9907 74.6078 37.2664C75.1927 37.5395 75.8781 37.6941 76.6692 37.7302V38.3486H61.6286V38.3512ZM54.8775 7.12333C54.6713 7.56911 54.3724 8.27257 53.9782 9.2337C53.5813 10.1948 53.0918 11.3673 52.5068 12.7355C51.9219 14.1115 51.2803 15.6679 50.5743 17.4047C49.8708 19.1362 49.1055 21.0173 48.2809 23.0426H61.1132C60.5257 21.4991 59.9357 19.9531 59.3353 18.4044C58.7323 16.861 58.15 15.3741 57.5831 13.9492C57.0162 12.5217 56.5008 11.2153 56.0344 10.0299C55.5732 8.8472 55.1867 7.87832 54.8775 7.12333" fill="#231F20"/>
<path d="M118.003 15.418C117.591 16.4461 117.052 17.3583 116.382 18.1493C115.71 18.9404 114.932 19.6181 114.037 20.185C113.143 20.7519 112.234 21.2054 111.306 21.5481C110.342 21.8934 109.312 22.1511 108.214 22.3211C107.114 22.4964 106.003 22.6252 104.887 22.7077C103.769 22.7927 102.682 22.8391 101.615 22.8391H98.8294V25.6735V27.6808C98.8294 28.2683 98.8397 28.8069 98.8577 29.3042C98.8732 29.8015 98.8835 30.3452 98.8835 30.9301C98.917 32.0304 98.9531 32.9735 98.9866 33.7646C99.0227 34.5557 99.2108 35.2101 99.5561 35.7229C99.8318 36.1713 100.363 36.6171 101.154 37.0654C101.942 37.5112 103.042 37.7689 104.449 37.8385V38.3538H87.9606V37.8385C88.8187 37.6993 89.6406 37.4932 90.4317 37.22C91.2228 36.9469 91.8412 36.532 92.287 35.9858C92.4596 35.777 92.5962 35.4704 92.6967 35.0581C92.8049 34.6458 92.8796 34.182 92.9312 33.6667C92.9827 33.1513 93.0291 32.6025 93.06 32.0175C93.0961 31.4326 93.1116 30.8657 93.1116 30.3169C93.1116 29.8376 93.1167 29.1831 93.1373 28.3585C93.1528 27.534 93.1708 26.6295 93.1914 25.6529C93.2069 24.6737 93.2172 23.6662 93.2172 22.6381V19.6465V9.60222C93.2172 8.9838 93.2095 8.35506 93.1914 7.72117C93.1708 7.08471 93.1373 6.48691 93.0858 5.91744C93.0343 5.35055 92.9492 4.83518 92.8255 4.37136C92.707 3.90755 92.5447 3.57257 92.3411 3.36643C91.8232 2.81757 91.1635 2.4491 90.3544 2.25584C89.5453 2.06773 88.6769 1.90283 87.7519 1.76884V1.25348H88.9861C89.6381 1.25348 90.4034 1.24834 91.2795 1.22772C92.1556 1.20968 93.109 1.19937 94.1397 1.19937C95.173 1.19937 96.1934 1.19164 97.206 1.17618C98.2213 1.15556 99.1721 1.14783 100.064 1.14783H102.383C104.648 1.14783 106.658 1.26122 108.412 1.48282C110.165 1.707 111.816 2.25069 113.36 3.10618C114.87 3.93074 116.122 5.09802 117.119 6.61058C118.114 8.12315 118.614 9.90628 118.614 11.9703C118.622 13.238 118.415 14.3873 118.003 15.418M111.538 6.39929C110.523 4.85065 109.193 3.68595 107.544 2.89488C106.719 2.51867 105.843 2.26101 104.916 2.12186C103.991 1.98529 103.027 1.91572 102.03 1.91572C101.306 1.91572 100.747 1.94148 100.355 1.99301C99.958 2.04455 99.6411 2.09094 99.4015 2.12186C99.3654 2.328 99.3241 2.50837 99.2726 2.66298C99.2185 2.82016 99.1773 3.01856 99.1438 3.25305C99.1077 3.49527 99.0742 3.83282 99.0407 4.25799C99.0072 4.69089 98.9711 5.299 98.9376 6.09007C98.9016 7.29342 98.8758 8.75188 98.8603 10.468C98.8423 12.1867 98.832 13.8693 98.832 15.5211V19.85V22.1176C100.241 22.1176 101.563 22.0738 102.803 21.9887C104.04 21.9011 105.191 21.6692 106.256 21.293C108.454 20.5354 110.136 19.2883 111.306 17.5567C112.473 15.82 113.056 13.8693 113.056 11.7074C113.056 9.71558 112.551 7.94793 111.538 6.39929" fill="#231F20"/>
<path d="M162.63 15.418C162.218 16.4461 161.677 17.3583 161.007 18.1494C160.337 18.9404 159.556 19.6181 158.665 20.185C157.77 20.7519 156.861 21.2054 155.931 21.5481C154.967 21.8934 153.936 22.1511 152.839 22.3212C151.738 22.4964 150.628 22.6252 149.512 22.7077C148.396 22.7927 147.306 22.8391 146.239 22.8391H143.454V25.6735V27.6808C143.454 28.2683 143.464 28.8069 143.482 29.3042C143.498 29.8015 143.505 30.3452 143.505 30.9302C143.542 32.0304 143.572 32.9735 143.609 33.7646C143.645 34.5557 143.833 35.2101 144.178 35.7229C144.451 36.1713 144.985 36.6171 145.776 37.0654C146.564 37.5112 147.664 37.7689 149.074 37.8385V38.3538H132.585V37.8385C133.443 37.6993 136.466 36.532 136.911 35.9832C137.084 35.7745 137.223 35.4678 137.324 35.0556C137.429 34.6433 137.504 34.1795 137.558 33.6641C137.61 33.1487 137.654 32.5999 137.687 32.015C137.723 31.43 137.739 30.8631 137.739 30.3143C137.739 29.835 137.744 29.1805 137.764 28.356C137.78 27.5314 137.798 26.6269 137.819 25.6503C137.834 24.6712 137.844 23.6637 137.844 22.6355V19.6439V9.59966C137.844 8.98123 137.834 8.35249 137.819 7.71861C137.8 7.08215 137.764 6.48434 137.715 5.91488C137.664 5.34799 137.576 4.83262 137.455 4.3688C137.337 3.90498 137.172 3.57 136.968 3.36386C136.453 2.81501 135.791 2.44653 134.984 2.25328C134.175 2.06517 133.307 1.90027 132.382 1.76628V1.25091H133.616C134.268 1.25091 135.03 1.24577 135.909 1.22516C136.783 1.20712 137.739 1.19681 138.769 1.19681C139.8 1.19681 140.823 1.18907 141.836 1.17361C142.851 1.153 143.802 1.14526 144.693 1.14526H147.015C149.28 1.14526 151.29 1.25865 153.042 1.48026C154.794 1.70444 156.443 2.24813 157.989 3.10361C159.502 3.92818 160.754 5.09546 161.749 6.60802C162.744 8.12058 163.246 9.90371 163.246 11.9677C163.249 13.2381 163.045 14.3873 162.63 15.418M156.163 6.3993C155.147 4.85066 153.818 3.68596 152.171 2.89489C151.347 2.51868 150.47 2.26102 149.54 2.12187C148.615 1.9853 147.651 1.91573 146.654 1.91573C145.933 1.91573 145.374 1.94149 144.977 1.99303C144.583 2.04456 144.266 2.09095 144.026 2.12187C143.987 2.32801 143.949 2.50839 143.895 2.66299C143.84 2.82018 143.799 3.01858 143.766 3.25306C143.732 3.49528 143.701 3.83283 143.663 4.258C143.629 4.6909 143.596 5.29901 143.56 6.09008C143.526 7.29343 143.5 8.7519 143.485 10.468C143.467 12.1867 143.456 13.8694 143.456 15.5211V19.85V22.1176C144.866 22.1176 146.19 22.0738 147.425 21.9888C148.664 21.9012 149.813 21.6692 150.878 21.293C153.078 20.5355 154.758 19.2883 155.928 17.5567C157.095 15.82 157.683 13.8693 157.683 11.7074C157.685 9.7156 157.175 7.94794 156.163 6.3993" fill="#231F20"/>
<path d="M203.083 38.3512V37.8358C204.353 37.7328 205.42 37.5009 206.278 37.1401C207.136 36.7768 207.703 36.3748 207.979 35.9265C208.046 35.8234 208.108 35.6172 208.157 35.308C208.206 34.9988 208.252 34.6381 208.285 34.2258C208.321 33.8161 208.345 33.3858 208.363 32.9374C208.378 32.4916 208.391 32.0613 208.391 31.6516C208.425 30.5178 208.44 29.3454 208.44 28.1472V24.6943V21.8083V20.0046H188.089V31.0847C188.089 32.0845 188.104 33.0456 188.143 33.9707C188.176 34.8983 188.328 35.5477 188.607 35.929C189.016 36.514 189.601 36.9597 190.359 37.2715C191.114 37.5807 191.851 37.7689 192.572 37.8384V38.3538H177.375V37.8384C178.23 37.7019 179.055 37.4674 179.846 37.1427C180.637 36.8129 181.24 36.4109 181.649 35.929C181.789 35.759 181.899 35.4729 181.984 35.0787C182.069 34.687 182.142 34.2284 182.188 33.7156C182.242 33.2002 182.286 32.6411 182.319 32.0407C182.355 31.4403 182.373 30.8657 182.373 30.3142C182.373 29.8324 182.379 29.1805 182.399 28.3559C182.415 27.5313 182.433 26.6269 182.453 25.6477C182.469 24.6711 182.477 23.6636 182.477 22.6329V19.6464V9.59961V7.74176C182.477 7.12334 182.453 6.5487 182.402 6.01531C182.35 5.48192 182.27 5.00265 182.17 4.57233C182.064 4.14458 181.91 3.80703 181.703 3.56481C181.222 2.98504 180.629 2.55988 179.928 2.30478C179.225 2.04452 178.423 1.86673 177.532 1.76366V1.24829H192.887V1.76366C192.405 1.83065 191.889 1.93629 191.341 2.07286C190.792 2.212 190.292 2.42588 189.846 2.71447C189.398 3.00822 189.021 3.41278 188.712 3.92556C188.403 4.44349 188.23 5.09542 188.2 5.88648C188.163 7.08983 188.14 8.38595 188.122 9.77741C188.104 11.1714 188.096 12.5036 188.096 13.774V17.0671V18.9739H208.448V15.9874V13.3076V10.6793C208.448 9.78514 208.432 8.77247 208.399 7.63611C208.36 6.98419 208.322 6.3065 208.267 5.60046C208.213 4.897 208.054 4.32239 207.778 3.87403C207.159 2.94639 206.456 2.37176 205.667 2.15016C204.876 1.92598 204.088 1.79715 203.297 1.76366V1.24829H218.809V1.76366C217.984 1.86673 217.178 2.09863 216.389 2.45938C215.596 2.82012 215.013 3.34579 214.635 4.03121C214.495 4.27085 214.395 4.6084 214.328 5.03872C214.258 5.46646 214.207 5.94831 214.168 6.47913C214.135 7.0151 214.119 7.55623 214.119 8.10251V9.70009V18.5127V21.9681V24.9546C214.119 25.9183 214.127 26.9129 214.142 27.9436C214.16 28.9718 214.168 30.1081 214.168 31.3475C214.168 32.3422 214.197 33.2569 214.245 34.1021C214.3 34.9421 214.426 35.5193 214.632 35.826C215.078 36.5139 215.681 36.9958 216.436 37.2715C217.191 37.5421 218.015 37.7354 218.909 37.8384V38.3538H203.083V38.3512Z" fill="#231F20"/>
<path d="M234.674 38.3512V37.8359C235.53 37.6993 236.331 37.4751 237.071 37.1633C237.807 36.8567 238.434 36.4083 238.949 35.8234C239.119 35.6173 239.25 35.3261 239.335 34.9473C239.421 34.5685 239.49 34.1227 239.542 33.6048C239.593 33.0869 239.627 32.5509 239.642 31.984C239.663 31.4171 239.67 30.858 239.67 30.3091C239.67 29.8273 239.678 29.1753 239.696 28.3508C239.714 27.5262 239.732 26.6218 239.75 25.6426C239.768 24.666 239.776 23.6585 239.776 22.6278V19.6413V9.59447V7.73661C239.776 7.11819 239.75 6.54357 239.699 6.01018C239.647 5.47679 239.57 4.99752 239.467 4.5672C239.364 4.13946 239.209 3.8019 239.003 3.55969C238.519 2.97991 237.929 2.55475 237.225 2.29965C236.522 2.0394 235.723 1.86158 234.829 1.75851V1.24316H250.235V1.75851C249.514 1.86158 248.741 2.05226 247.919 2.3254C247.094 2.59854 246.458 3.14997 246.012 3.97711C245.703 4.56204 245.538 5.29899 245.522 6.19056C245.507 7.08212 245.479 7.92731 245.448 8.7158C245.448 9.57386 245.437 10.4242 245.419 11.2642C245.401 12.1042 245.393 12.9572 245.393 13.8126V16.4925V19.43V31.0796C245.393 32.0794 245.409 33.0405 245.448 33.9656C245.481 34.8932 245.633 35.5425 245.911 35.9239C246.324 36.5088 246.976 36.9546 247.87 37.2664C248.766 37.5756 249.57 37.7637 250.292 37.8333V38.3486H234.674V38.3512Z" fill="#231F20"/>
<path d="M294.192 38.3512C293.886 38.042 293.659 37.8101 293.522 37.6529C293.381 37.4983 293.229 37.3179 293.059 37.1118C292.886 36.9082 292.672 36.6067 292.414 36.2099C292.154 35.8157 291.75 35.2204 291.203 34.4345C290.549 33.4708 289.972 32.6025 289.474 31.8294C288.977 31.0564 288.469 30.2937 287.957 29.5361C287.441 28.7785 286.879 28.0132 286.282 27.2428C285.681 26.4672 284.967 25.6014 284.143 24.6377C283.455 23.8492 282.705 23.1096 281.901 22.4242C281.095 21.7362 280.242 21.3059 279.35 21.1358C278.698 20.9967 278.201 20.9271 277.856 20.9271C277.549 20.9271 277.155 20.9117 276.67 20.8782V26.6991C276.67 28.3508 276.691 29.7397 276.724 30.8734C276.76 31.9737 276.791 32.9194 276.827 33.7105C276.861 34.4989 277.049 35.1535 277.397 35.6688C277.67 36.1146 278.203 36.5707 278.992 37.0345C279.783 37.4983 280.881 37.7637 282.29 37.8333V38.3486H265.801V37.8333C266.66 37.6941 267.482 37.4906 268.275 37.2149C269.064 36.9391 269.682 36.5269 270.13 35.9806C270.298 35.7745 270.44 35.4627 270.54 35.0555C270.646 34.6407 270.723 34.1769 270.772 33.6615C270.826 33.1461 270.867 32.5973 270.903 32.0098C270.937 31.4274 270.958 30.8605 270.958 30.3117C270.958 29.8324 270.965 29.1779 270.981 28.3534C270.996 27.5288 271.017 26.6243 271.035 25.6452C271.048 24.6686 271.058 23.6611 271.058 22.6329V19.6439V9.59704C271.058 8.97862 271.048 8.3499 271.035 7.71601C271.014 7.08213 270.981 6.48175 270.927 5.91228C270.878 5.34797 270.793 4.83002 270.672 4.3662C270.55 3.90239 270.388 3.56483 270.185 3.35869C269.667 2.81242 269.092 2.44394 268.456 2.25068C267.819 2.06257 267.038 1.89767 266.113 1.76368V1.24832H268.224C269.391 1.24832 270.715 1.24058 272.192 1.22254C273.668 1.20451 275.145 1.19421 276.624 1.19421H280.231C282.532 1.19421 284.578 1.26379 286.364 1.40294C288.147 1.5395 289.781 2.00073 291.257 2.7918C292.77 3.58287 293.989 4.65738 294.916 6.01276C295.841 7.37072 296.308 9.07655 296.308 11.1405C296.308 12.4135 296.076 13.555 295.61 14.5651C295.143 15.5829 294.527 16.4744 293.754 17.2475C292.981 18.0205 292.079 18.6827 291.049 19.2316C290.021 19.783 288.936 20.2468 287.799 20.6231V20.7777C288.387 21.0869 288.951 21.5352 289.5 22.1201C290.051 22.7051 290.585 23.3544 291.1 24.0811C291.992 25.3849 292.961 26.7918 294.009 28.3044C295.056 29.817 295.993 31.1569 296.821 32.3242C298.091 34.1099 299.328 35.4189 300.529 36.2408C301.732 37.068 303.141 37.6014 304.757 37.841V38.3564H294.192V38.3512ZM289.09 6.24468C288.23 4.90476 286.977 3.84056 285.328 3.05207C284.504 2.67586 283.635 2.40014 282.723 2.2275C281.814 2.06001 280.86 1.96981 279.865 1.96981C279.147 1.96981 278.556 1.98786 278.113 2.02135C277.667 2.06001 277.32 2.09093 277.083 2.12443C277.046 2.33057 277.013 2.50836 276.979 2.66812C276.946 2.82273 276.923 3.02113 276.902 3.25819C276.887 3.49783 276.869 3.83539 276.851 4.26313C276.833 4.69345 276.809 5.30159 276.776 6.09265C276.737 7.29601 276.717 8.65137 276.699 10.1614C276.681 11.6765 276.67 13.1324 276.67 14.5445V18.2524V20.2082C278.08 20.2082 279.394 20.1515 280.613 20.033C281.834 19.9119 283.009 19.6619 284.143 19.2831C285.241 18.943 286.186 18.4766 286.977 17.8917C287.768 17.3067 288.413 16.6497 288.91 15.9076C289.407 15.1706 289.778 14.3692 290.021 13.5086C290.26 12.6531 290.381 11.7564 290.381 10.8313C290.379 9.11262 289.948 7.5846 289.09 6.24468Z" fill="#231F20"/>
<path d="M347.423 38.3512H315.889V37.8358C316.747 37.6993 317.546 37.4751 318.285 37.1633C319.025 36.8567 319.63 36.4264 320.115 35.8775C320.285 35.6714 320.424 35.3725 320.527 34.9731C320.627 34.5788 320.725 34.1227 320.808 33.6074C320.893 33.092 320.957 32.5535 320.988 31.9866C321.024 31.4197 321.04 30.8605 321.04 30.3117C321.04 29.8298 321.05 29.1779 321.068 28.3533C321.083 27.5288 321.102 26.6243 321.122 25.6451C321.138 24.6686 321.148 23.661 321.148 22.6303V19.6438V9.59702C321.148 8.97859 321.138 8.34214 321.122 7.68764C321.102 7.03572 321.068 6.41729 321.016 5.83236C320.965 5.24743 320.88 4.72692 320.759 4.26311C320.638 3.79929 320.475 3.46431 320.272 3.25817C319.756 2.70932 319.205 2.35373 318.62 2.2017C318.035 2.04452 317.278 1.90023 316.353 1.76366V1.24829H344.797L348.302 9.75164L347.787 10.0093C345.004 6.54098 342.391 4.20385 339.953 3.00049C339.368 2.72736 338.289 2.48772 336.706 2.28158C335.124 2.07544 333.205 1.96978 330.937 1.96978C330.213 1.96978 329.468 1.99814 328.695 2.0471C327.92 2.10121 327.36 2.16048 327.02 2.22748C326.953 2.7789 326.891 3.91268 326.84 5.62623C326.788 7.34494 326.763 9.33936 326.763 11.6043V14.9026C326.763 15.7967 326.776 16.526 326.791 17.0954C326.809 17.6597 326.817 18.1004 326.817 18.407V18.9739H327.845C328.36 18.9739 328.956 18.9584 329.625 18.9249C330.293 18.8889 330.963 18.8476 331.633 18.7935C332.303 18.7394 332.862 18.6621 333.305 18.5616C334.336 18.3194 335.194 17.9921 335.882 17.5824C336.567 17.1702 337.126 16.6728 337.557 16.0879C337.985 15.503 338.327 14.8253 338.587 14.0523C338.845 13.2792 339.074 12.4134 339.283 11.4497H339.902V27.6834H339.283C339.007 26.5805 338.587 25.4493 338.021 24.2846C337.454 23.1148 336.861 22.2386 336.245 21.6537C335.694 21.1744 335.034 20.7776 334.259 20.471C333.485 20.1618 332.586 19.9737 331.553 19.8989C331.038 19.868 330.607 19.8448 330.265 19.8242C329.922 19.8088 329.574 19.7985 329.236 19.7985H328.206H326.866C326.796 20.2803 326.76 20.9864 326.76 21.9114V24.7948V26.3434V28.0956C326.76 28.6471 326.773 29.1702 326.788 29.6675C326.806 30.1648 326.814 30.5848 326.814 30.9301C326.85 32.0278 326.907 33.0662 326.995 34.048C327.08 35.0272 327.278 35.7564 327.585 36.2382C327.894 36.7227 328.633 37.0628 329.801 37.269C330.968 37.4751 332.238 37.5782 333.614 37.5782C334.199 37.5782 334.944 37.5601 335.853 37.5241C336.763 37.4906 337.719 37.4029 338.711 37.2664C339.814 37.1298 340.827 36.8618 341.754 36.465C342.682 36.0707 343.576 35.5142 344.434 34.7927C345.29 34.0686 346.125 33.1848 346.934 32.1386C347.743 31.0924 348.575 29.8298 349.436 28.3507L350 28.5054L347.423 38.3512Z" fill="#231F20"/>
</svg>
