<svg width="13" height="13" viewBox="0 0 13 13" fill="none" xmlns="http://www.w3.org/2000/svg">
<path d="M3.0065 1C1.89834 1 0.984713 1.90086 1.09357 3.00366C1.63383 8.47713 4.52287 11.3662 9.99634 11.9064C11.0991 12.0153 12 11.1017 12 9.9935V9.9935C12 9.09764 11.4061 8.31032 10.5447 8.06421L9.80012 7.85146C9.27579 7.70165 8.71475 7.90788 8.41226 8.36161V8.36161C8.17969 8.71046 7.78199 8.9362 7.37757 8.82563C5.99772 8.44836 4.55164 7.00228 4.17437 5.62243C4.0638 5.21801 4.28954 4.82031 4.63839 4.58774V4.58774C5.09212 4.28525 5.29835 3.72421 5.14854 3.19988L4.93579 2.45527C4.68968 1.59388 3.90236 1 3.0065 1V1Z" stroke="#3C3C3F" stroke-width="1.25" stroke-linecap="round" stroke-linejoin="round"/>
</svg>
