<svg width="14" height="11" viewBox="0 0 14 11" fill="none" xmlns="http://www.w3.org/2000/svg">
<path d="M10.8182 9.96875C11.3464 9.96875 11.7727 9.50813 11.7727 8.9375C11.7727 8.36687 11.3464 7.90625 10.8182 7.90625C10.29 7.90625 9.86364 8.36687 9.86364 8.9375C9.86364 9.50813 10.29 9.96875 10.8182 9.96875ZM11.7727 3.78125H10.1818V5.5H13.02L11.7727 3.78125ZM3.18182 9.96875C3.71 9.96875 4.13636 9.50813 4.13636 8.9375C4.13636 8.36687 3.71 7.90625 3.18182 7.90625C2.65364 7.90625 2.22727 8.36687 2.22727 8.9375C2.22727 9.50813 2.65364 9.96875 3.18182 9.96875ZM12.0909 2.75L14 5.5V8.9375H12.7273C12.7273 10.0787 11.8745 11 10.8182 11C9.76182 11 8.90909 10.0787 8.90909 8.9375H5.09091C5.09091 10.0787 4.23818 11 3.18182 11C2.12545 11 1.27273 10.0787 1.27273 8.9375H0V1.375C0 0.611875 0.566364 0 1.27273 0H10.1818V2.75H12.0909ZM1.27273 1.375V7.5625H1.75636C2.10636 7.14313 2.61545 6.875 3.18182 6.875C3.74818 6.875 4.25727 7.14313 4.60727 7.5625H8.90909V1.375H1.27273ZM5.72727 2.0625L7.95455 4.46875L5.72727 6.875V5.15625H2.54545V3.78125H5.72727V2.0625Z" fill="#3C3C3F"/>
</svg>
