<svg width="31" height="20" viewBox="0 0 31 20" fill="none" xmlns="http://www.w3.org/2000/svg">
<path d="M24.502 8.68042C24.502 8.68042 24.8979 10.6684 24.9871 11.0849H23.2468L24.0808 8.76025C24.0705 8.7766 24.2525 8.27359 24.3566 7.96389L24.502 8.68042ZM30.0211 2.56509V17.4349C30.0208 18.1151 29.7571 18.7674 29.288 19.2484C28.8188 19.7294 28.1826 19.9997 27.5191 20H2.50199C1.8385 19.9997 1.20225 19.7294 0.73309 19.2484C0.26393 18.7674 0.000248639 18.1151 0 17.4349V2.56509C0.000248639 1.88487 0.26393 1.23257 0.73309 0.75158C1.20225 0.270587 1.8385 0.00025491 2.50199 0H27.5191C28.1826 0.00025491 28.8188 0.270587 29.288 0.75158C29.7571 1.23257 30.0208 1.88487 30.0211 2.56509ZM7.94876 14.0184L11.2425 5.72581H9.02761L6.97968 11.3898L6.75546 10.2414L6.0256 6.42599C5.90552 5.89701 5.5359 5.74697 5.07715 5.72581H1.70552L1.66893 5.89123C2.44108 6.08544 3.18175 6.3932 3.8679 6.80494L5.73384 14.0184H7.94876ZM12.8692 14.0289L14.1826 5.72581H12.0878L10.78 14.0289H12.8692ZM20.1604 11.3148C20.1707 10.3693 19.6078 9.64798 18.4042 9.05456C17.6697 8.67465 17.2212 8.41882 17.2212 8.02833C17.2315 7.67535 17.6021 7.3118 18.4248 7.3118C18.9607 7.2963 19.4932 7.4041 19.9831 7.62726L20.1707 7.71767L20.4578 5.92201C19.8589 5.68696 19.2228 5.5673 18.5815 5.56904C16.512 5.56904 15.0579 6.70202 15.0476 8.31494C15.0316 9.5066 16.0898 10.1693 16.8826 10.5694C17.6903 10.9753 17.967 11.2426 17.967 11.6004C17.9567 12.1563 17.3104 12.4122 16.7109 12.4122C15.8769 12.4122 15.4285 12.2785 14.7455 11.9688L14.4697 11.8351L14.1779 13.7C14.6676 13.9299 15.5748 14.1328 16.5129 14.1434C18.7119 14.1482 20.1454 13.0316 20.1613 11.3119L20.1604 11.3148ZM27.5191 14.0289L25.8304 5.72581H24.2093C23.7093 5.72581 23.3284 5.87585 23.1146 6.41541L20.0028 14.0299H22.2018C22.2018 14.0299 22.5611 13.0037 22.6399 12.7853H25.3295C25.3923 13.0796 25.58 14.0299 25.58 14.0299L27.5191 14.0289Z" fill="#0066B3"/>
</svg>
