<svg width="65" height="11" viewBox="0 0 65 11" fill="none" xmlns="http://www.w3.org/2000/svg">
<path d="M2.21021 1.18091L4.13989 5.39575L6.06958 1.18091H8.14526L5.10474 7.05884V10.4231H3.17505V7.05884L0.128174 1.18091H2.21021ZM8.16431 7.05884V6.92554C8.16431 6.42196 8.23625 5.95858 8.38013 5.5354C8.52401 5.10799 8.73348 4.73771 9.00854 4.42456C9.28361 4.11141 9.62215 3.86808 10.0242 3.69458C10.4262 3.51685 10.8875 3.42798 11.408 3.42798C11.9285 3.42798 12.3918 3.51685 12.7981 3.69458C13.2043 3.86808 13.545 4.11141 13.8201 4.42456C14.0994 4.73771 14.311 5.10799 14.4548 5.5354C14.5987 5.95858 14.6707 6.42196 14.6707 6.92554V7.05884C14.6707 7.55819 14.5987 8.02157 14.4548 8.44897C14.311 8.87215 14.0994 9.24243 13.8201 9.55981C13.545 9.87297 13.2065 10.1163 12.8044 10.2898C12.4024 10.4633 11.9412 10.55 11.4207 10.55C10.9001 10.55 10.4368 10.4633 10.0305 10.2898C9.6285 10.1163 9.28784 9.87297 9.00854 9.55981C8.73348 9.24243 8.52401 8.87215 8.38013 8.44897C8.23625 8.02157 8.16431 7.55819 8.16431 7.05884ZM9.99243 6.92554V7.05884C9.99243 7.3466 10.0178 7.61532 10.0686 7.86499C10.1194 8.11466 10.1998 8.33472 10.3098 8.52515C10.4241 8.71134 10.5722 8.85734 10.7542 8.96313C10.9361 9.06893 11.1583 9.12183 11.4207 9.12183C11.6746 9.12183 11.8925 9.06893 12.0745 8.96313C12.2564 8.85734 12.4024 8.71134 12.5125 8.52515C12.6225 8.33472 12.7029 8.11466 12.7537 7.86499C12.8087 7.61532 12.8362 7.3466 12.8362 7.05884V6.92554C12.8362 6.64624 12.8087 6.38387 12.7537 6.13843C12.7029 5.88875 12.6204 5.6687 12.5061 5.47827C12.3961 5.28361 12.2501 5.13127 12.0681 5.02124C11.8861 4.91121 11.6661 4.8562 11.408 4.8562C11.1498 4.8562 10.9298 4.91121 10.7478 5.02124C10.5701 5.13127 10.4241 5.28361 10.3098 5.47827C10.1998 5.6687 10.1194 5.88875 10.0686 6.13843C10.0178 6.38387 9.99243 6.64624 9.99243 6.92554ZM19.8567 8.77905V3.55493H21.6848V10.4231H19.9646L19.8567 8.77905ZM20.0598 7.36987L20.5994 7.35718C20.5994 7.81421 20.5465 8.2395 20.4407 8.63306C20.3349 9.02238 20.1762 9.36092 19.9646 9.64868C19.753 9.93221 19.4864 10.1544 19.1648 10.3152C18.8432 10.4718 18.4644 10.55 18.0286 10.55C17.6943 10.55 17.3853 10.5035 17.1018 10.4104C16.8225 10.3131 16.5813 10.1628 16.3782 9.95972C16.1793 9.75236 16.0227 9.48787 15.9084 9.16626C15.7984 8.84041 15.7434 8.44897 15.7434 7.99194V3.55493H17.5715V8.00464C17.5715 8.20776 17.5948 8.37915 17.6414 8.5188C17.6921 8.65845 17.762 8.77271 17.8508 8.86157C17.9397 8.95044 18.0434 9.01392 18.1619 9.052C18.2846 9.09009 18.42 9.10913 18.5681 9.10913C18.9447 9.10913 19.241 9.03296 19.4568 8.88062C19.6768 8.72827 19.8313 8.52091 19.9202 8.25854C20.0133 7.99194 20.0598 7.69572 20.0598 7.36987ZM24.9094 5.05298V10.4231H23.0813V3.55493H24.8015L24.9094 5.05298ZM26.9788 3.5105L26.947 5.20532C26.8582 5.19263 26.7502 5.18205 26.6233 5.17358C26.5006 5.16089 26.3884 5.15454 26.2869 5.15454C26.0287 5.15454 25.8044 5.1884 25.614 5.2561C25.4278 5.31958 25.2712 5.41479 25.1443 5.54175C25.0216 5.6687 24.9285 5.82316 24.865 6.00513C24.8057 6.18709 24.7719 6.39445 24.7634 6.6272L24.3953 6.51294C24.3953 6.0686 24.4397 5.66024 24.5286 5.28784C24.6174 4.91121 24.7465 4.58325 24.9158 4.30396C25.0893 4.02466 25.3009 3.80884 25.5505 3.65649C25.8002 3.50415 26.0859 3.42798 26.4075 3.42798C26.509 3.42798 26.6127 3.43644 26.7185 3.45337C26.8243 3.46606 26.9111 3.48511 26.9788 3.5105ZM34.8118 6.36694H32.4377L32.425 5.05933H34.4182C34.7694 5.05933 35.0572 5.01489 35.2815 4.92603C35.5058 4.83293 35.6729 4.69963 35.783 4.52612C35.8972 4.34839 35.9543 4.13257 35.9543 3.87866C35.9543 3.5909 35.8993 3.35815 35.7893 3.18042C35.6835 3.00269 35.5164 2.87362 35.2878 2.79321C35.0636 2.71281 34.7737 2.67261 34.4182 2.67261H33.0979V10.4231H31.1936V1.18091H34.4182C34.9556 1.18091 35.436 1.23169 35.8591 1.33325C36.2865 1.43481 36.6484 1.58927 36.9446 1.79663C37.2408 2.00399 37.4672 2.26636 37.6238 2.58374C37.7804 2.89689 37.8586 3.26929 37.8586 3.70093C37.8586 4.08179 37.7719 4.43302 37.5984 4.75464C37.4291 5.07625 37.1604 5.33862 36.7922 5.54175C36.4283 5.74487 35.9522 5.85701 35.364 5.87817L34.8118 6.36694ZM34.7292 10.4231H31.9172L32.6599 8.93774H34.7292C35.0636 8.93774 35.3365 8.88485 35.5481 8.77905C35.7597 8.66903 35.9163 8.52091 36.0178 8.33472C36.1194 8.14852 36.1702 7.93481 36.1702 7.6936C36.1702 7.42277 36.1236 7.18791 36.0305 6.98901C35.9417 6.79012 35.7978 6.63778 35.5989 6.53198C35.4 6.42196 35.1376 6.36694 34.8118 6.36694H32.9773L32.99 5.05933H35.2751L35.7131 5.57349C36.276 5.56502 36.7288 5.66447 37.0715 5.87183C37.4185 6.07495 37.6703 6.33944 37.8269 6.66528C37.9877 6.99113 38.0681 7.34025 38.0681 7.71265C38.0681 8.30509 37.939 8.80444 37.6809 9.21069C37.4228 9.61271 37.044 9.91528 36.5447 10.1184C36.0496 10.3215 35.4444 10.4231 34.7292 10.4231ZM41.2102 5.05298V10.4231H39.3821V3.55493H41.1023L41.2102 5.05298ZM43.2795 3.5105L43.2478 5.20532C43.1589 5.19263 43.051 5.18205 42.9241 5.17358C42.8014 5.16089 42.6892 5.15454 42.5876 5.15454C42.3295 5.15454 42.1052 5.1884 41.9148 5.2561C41.7286 5.31958 41.572 5.41479 41.4451 5.54175C41.3223 5.6687 41.2292 5.82316 41.1658 6.00513C41.1065 6.18709 41.0727 6.39445 41.0642 6.6272L40.696 6.51294C40.696 6.0686 40.7405 5.66024 40.8293 5.28784C40.9182 4.91121 41.0473 4.58325 41.2166 4.30396C41.3901 4.02466 41.6016 3.80884 41.8513 3.65649C42.101 3.50415 42.3866 3.42798 42.7083 3.42798C42.8098 3.42798 42.9135 3.43644 43.0193 3.45337C43.1251 3.46606 43.2118 3.48511 43.2795 3.5105ZM47.634 8.87427V5.8147C47.634 5.59465 47.5981 5.40633 47.5261 5.24976C47.4542 5.08895 47.342 4.96411 47.1897 4.87524C47.0416 4.78638 46.849 4.74194 46.6121 4.74194C46.4089 4.74194 46.2333 4.77791 46.0852 4.84985C45.9371 4.91756 45.8228 5.01701 45.7424 5.14819C45.662 5.27515 45.6218 5.42537 45.6218 5.59888H43.7937C43.7937 5.30688 43.8614 5.0297 43.9968 4.76733C44.1322 4.50496 44.329 4.27433 44.5872 4.07544C44.8453 3.87231 45.1521 3.71362 45.5076 3.59937C45.8673 3.48511 46.2693 3.42798 46.7136 3.42798C47.2468 3.42798 47.7208 3.51685 48.1355 3.69458C48.5502 3.87231 48.8761 4.13892 49.113 4.49438C49.3542 4.84985 49.4749 5.29419 49.4749 5.82739V8.76636C49.4749 9.14299 49.4981 9.4519 49.5447 9.69312C49.5912 9.93009 49.6589 10.1375 49.7478 10.3152V10.4231H47.9006C47.8118 10.2369 47.7441 10.0042 47.6975 9.72485C47.6552 9.44132 47.634 9.1578 47.634 8.87427ZM47.8752 6.23999L47.8879 7.27466H46.866C46.6248 7.27466 46.4153 7.30216 46.2375 7.35718C46.0598 7.41219 45.9138 7.49048 45.7996 7.59204C45.6853 7.68937 45.6007 7.80363 45.5457 7.93481C45.4949 8.066 45.4695 8.20988 45.4695 8.36646C45.4695 8.52303 45.5055 8.66479 45.5774 8.79175C45.6493 8.91447 45.753 9.0118 45.8884 9.08374C46.0238 9.15145 46.1825 9.1853 46.3645 9.1853C46.6396 9.1853 46.8787 9.13029 47.0818 9.02026C47.2849 8.91024 47.4415 8.77482 47.5515 8.61401C47.6658 8.45321 47.725 8.30086 47.7292 8.15698L48.2117 8.9314C48.144 9.1049 48.0509 9.28475 47.9324 9.47095C47.8181 9.65715 47.6721 9.83276 47.4944 9.9978C47.3167 10.1586 47.1029 10.2919 46.8533 10.3977C46.6036 10.4993 46.3074 10.55 45.9646 10.55C45.5287 10.55 45.1331 10.4633 44.7776 10.2898C44.4264 10.1121 44.1471 9.86873 43.9397 9.55981C43.7366 9.24666 43.635 8.89119 43.635 8.49341C43.635 8.13371 43.7027 7.81421 43.8381 7.53491C43.9736 7.25562 44.1724 7.02075 44.4348 6.83032C44.7014 6.63566 45.0336 6.48966 45.4314 6.39233C45.8292 6.29077 46.2904 6.23999 46.8152 6.23999H47.8752ZM52.6741 5.02124V10.4231H50.8459V3.55493H52.5598L52.6741 5.02124ZM52.4075 6.7478H51.9124C51.9124 6.23999 51.9779 5.78296 52.1091 5.37671C52.2403 4.96623 52.4244 4.61711 52.6614 4.32935C52.8984 4.03735 53.1798 3.81519 53.5056 3.66284C53.8357 3.50627 54.2039 3.42798 54.6101 3.42798C54.9317 3.42798 55.2258 3.47453 55.4924 3.56763C55.759 3.66073 55.9875 3.80884 56.178 4.01196C56.3726 4.21509 56.5208 4.48381 56.6223 4.81812C56.7281 5.15243 56.781 5.56079 56.781 6.04321V10.4231H54.9402V6.03687C54.9402 5.73218 54.8979 5.4952 54.8132 5.32593C54.7286 5.15666 54.6038 5.03817 54.4387 4.97046C54.2779 4.89852 54.079 4.86255 53.842 4.86255C53.5966 4.86255 53.3829 4.91121 53.2009 5.00854C53.0232 5.10588 52.8751 5.24129 52.7566 5.41479C52.6423 5.58407 52.5556 5.78296 52.4963 6.01147C52.4371 6.23999 52.4075 6.48543 52.4075 6.7478ZM62.2273 8.92505V0.673096H64.0681V10.4231H62.4114L62.2273 8.92505ZM57.8855 7.07153V6.93823C57.8855 6.41349 57.9447 5.93742 58.0632 5.51001C58.1817 5.07837 58.3552 4.70809 58.5837 4.39917C58.8123 4.09025 59.0937 3.85116 59.428 3.68188C59.7623 3.51261 60.1431 3.42798 60.5706 3.42798C60.9726 3.42798 61.3238 3.51261 61.6243 3.68188C61.929 3.85116 62.1871 4.09237 62.3987 4.40552C62.6145 4.71444 62.788 5.08049 62.9192 5.50366C63.0504 5.92261 63.1456 6.38175 63.2048 6.8811V7.1731C63.1456 7.65129 63.0504 8.09562 62.9192 8.5061C62.788 8.91659 62.6145 9.27629 62.3987 9.58521C62.1871 9.88989 61.929 10.1269 61.6243 10.2961C61.3196 10.4654 60.9641 10.55 60.5579 10.55C60.1305 10.55 59.7496 10.4633 59.4153 10.2898C59.0852 10.1163 58.8059 9.87297 58.5774 9.55981C58.3531 9.24666 58.1817 8.8785 58.0632 8.45532C57.9447 8.03215 57.8855 7.57088 57.8855 7.07153ZM59.7136 6.93823V7.07153C59.7136 7.35506 59.7348 7.61955 59.7771 7.86499C59.8236 8.11043 59.8977 8.32837 59.9993 8.5188C60.1051 8.705 60.2405 8.85099 60.4055 8.95679C60.5748 9.05835 60.78 9.10913 61.0212 9.10913C61.3344 9.10913 61.5925 9.03931 61.7957 8.89966C61.9988 8.75578 62.1532 8.559 62.259 8.30933C62.3691 8.05965 62.4325 7.77189 62.4495 7.44604V6.6145C62.4368 6.3479 62.3987 6.10881 62.3352 5.89722C62.276 5.6814 62.1871 5.49731 62.0686 5.34497C61.9543 5.19263 61.8105 5.07414 61.637 4.9895C61.4677 4.90487 61.2667 4.86255 61.0339 4.86255C60.797 4.86255 60.5938 4.91756 60.4246 5.02759C60.2553 5.13338 60.1178 5.27938 60.012 5.46558C59.9104 5.65177 59.8342 5.87183 59.7834 6.12573C59.7369 6.37541 59.7136 6.64624 59.7136 6.93823Z" fill="#111111"/>
</svg>
